<?xml version="1.0" encoding="UTF-8" standalone="no"?>
<!-- Created with Inkscape (http://www.inkscape.org/) -->

<svg
   xmlns:dc="http://purl.org/dc/elements/1.1/"
   xmlns:cc="http://creativecommons.org/ns#"
   xmlns:rdf="http://www.w3.org/1999/02/22-rdf-syntax-ns#"
   xmlns:svg="http://www.w3.org/2000/svg"
   xmlns="http://www.w3.org/2000/svg"
   xmlns:sodipodi="http://sodipodi.sourceforge.net/DTD/sodipodi-0.dtd"
   xmlns:inkscape="http://www.inkscape.org/namespaces/inkscape"
   version="1.1"
   id="svg2"
   xml:space="preserve"
   width="1056"
   height="384"
   viewBox="0 0 1056 384"
   sodipodi:docname="Random_web_180.pdf"><metadata
     id="metadata8"><rdf:RDF><cc:Work
         rdf:about=""><dc:format>image/svg+xml</dc:format><dc:type
           rdf:resource="http://purl.org/dc/dcmitype/StillImage" /></cc:Work></rdf:RDF></metadata><defs
     id="defs6"><clipPath
       clipPathUnits="userSpaceOnUse"
       id="clipPath34"><path
         d="M 0,0 H 264 V 288 H 0 Z"
         id="path32"
         inkscape:connector-curvature="0" /></clipPath><clipPath
       clipPathUnits="userSpaceOnUse"
       id="clipPath46"><path
         d="M 9.94,2.74 H 256.8 V 270.33 H 9.94 Z"
         id="path44"
         inkscape:connector-curvature="0" /></clipPath><clipPath
       clipPathUnits="userSpaceOnUse"
       id="clipPath218"><path
         d="M 264,0 H 528 V 288 H 264 Z"
         id="path216"
         inkscape:connector-curvature="0" /></clipPath><clipPath
       clipPathUnits="userSpaceOnUse"
       id="clipPath230"><path
         d="M 273.94,2.74 H 520.8 V 270.33 H 273.94 Z"
         id="path228"
         inkscape:connector-curvature="0" /></clipPath><clipPath
       clipPathUnits="userSpaceOnUse"
       id="clipPath398"><path
         d="M 528,0 H 792 V 288 H 528 Z"
         id="path396"
         inkscape:connector-curvature="0" /></clipPath><clipPath
       clipPathUnits="userSpaceOnUse"
       id="clipPath410"><path
         d="M 537.94,2.74 H 784.8 V 270.33 H 537.94 Z"
         id="path408"
         inkscape:connector-curvature="0" /></clipPath><clipPath
       id="clipPath5131"
       clipPathUnits="userSpaceOnUse"><path
         inkscape:connector-curvature="0"
         id="path5129"
         d="M 59.04,73.44 H 977.76 V 228.96 H 59.04 Z" /></clipPath></defs><sodipodi:namedview
     pagecolor="#ffffff"
     bordercolor="#666666"
     borderopacity="1"
     objecttolerance="10"
     gridtolerance="10"
     guidetolerance="10"
     inkscape:pageopacity="0"
     inkscape:pageshadow="2"
     inkscape:window-width="640"
     inkscape:window-height="480"
     id="namedview4"
     showgrid="false"
     inkscape:snap-text-baseline="false" /><g
     id="g10"
     inkscape:groupmode="layer"
     inkscape:label="Random_web_180"
     transform="matrix(1.3333333,0,0,-1.3333333,0,384)"><g
       id="g12" /><g
       id="g14" /><g
       id="g16" /><g
       id="g18" /><g
       id="g20" /><g
       id="g22" /><g
       id="g24" /><g
       id="g26" /><g
       id="g28"><g
         id="g30"
         clip-path="url(#clipPath34)"><path
           d="M 0,0 H 264 V 288 H 0 Z"
           style="fill:#ffffff;fill-opacity:1;fill-rule:nonzero;stroke:#ffffff;stroke-width:1.07000005;stroke-linecap:round;stroke-linejoin:round;stroke-miterlimit:10;stroke-dasharray:none;stroke-opacity:1"
           id="path36"
           inkscape:connector-curvature="0" /></g></g><g
       id="g38" /><g
       id="g40"><g
         id="g42"
         clip-path="url(#clipPath46)"><path
           d="M 9.94,45.31 H 256.8"
           style="fill:none;stroke:#ffffff;stroke-width:0.52999997;stroke-linecap:butt;stroke-linejoin:round;stroke-miterlimit:10;stroke-dasharray:none;stroke-opacity:1"
           id="path48"
           inkscape:connector-curvature="0" /><path
           d="M 9.94,106.13 H 256.8"
           style="fill:none;stroke:#ffffff;stroke-width:0.52999997;stroke-linecap:butt;stroke-linejoin:round;stroke-miterlimit:10;stroke-dasharray:none;stroke-opacity:1"
           id="path50"
           inkscape:connector-curvature="0" /><path
           d="M 9.94,166.94 H 256.8"
           style="fill:none;stroke:#ffffff;stroke-width:0.52999997;stroke-linecap:butt;stroke-linejoin:round;stroke-miterlimit:10;stroke-dasharray:none;stroke-opacity:1"
           id="path52"
           inkscape:connector-curvature="0" /><path
           d="M 9.94,227.76 H 256.8"
           style="fill:none;stroke:#ffffff;stroke-width:0.52999997;stroke-linecap:butt;stroke-linejoin:round;stroke-miterlimit:10;stroke-dasharray:none;stroke-opacity:1"
           id="path54"
           inkscape:connector-curvature="0" /><path
           d="M 49.21,2.74 V 270.33"
           style="fill:none;stroke:#ffffff;stroke-width:0.52999997;stroke-linecap:butt;stroke-linejoin:round;stroke-miterlimit:10;stroke-dasharray:none;stroke-opacity:1"
           id="path56"
           inkscape:connector-curvature="0" /><path
           d="M 105.32,2.74 V 270.33"
           style="fill:none;stroke:#ffffff;stroke-width:0.52999997;stroke-linecap:butt;stroke-linejoin:round;stroke-miterlimit:10;stroke-dasharray:none;stroke-opacity:1"
           id="path58"
           inkscape:connector-curvature="0" /><path
           d="M 161.42,2.74 V 270.33"
           style="fill:none;stroke:#ffffff;stroke-width:0.52999997;stroke-linecap:butt;stroke-linejoin:round;stroke-miterlimit:10;stroke-dasharray:none;stroke-opacity:1"
           id="path60"
           inkscape:connector-curvature="0" /><path
           d="M 217.53,2.74 V 270.33"
           style="fill:none;stroke:#ffffff;stroke-width:0.52999997;stroke-linecap:butt;stroke-linejoin:round;stroke-miterlimit:10;stroke-dasharray:none;stroke-opacity:1"
           id="path62"
           inkscape:connector-curvature="0" /><path
           d="M 9.94,14.9 H 256.8"
           style="fill:none;stroke:#ffffff;stroke-width:1.07000005;stroke-linecap:butt;stroke-linejoin:round;stroke-miterlimit:10;stroke-dasharray:none;stroke-opacity:1"
           id="path64"
           inkscape:connector-curvature="0" /><path
           d="M 9.94,75.72 H 256.8"
           style="fill:none;stroke:#ffffff;stroke-width:1.07000005;stroke-linecap:butt;stroke-linejoin:round;stroke-miterlimit:10;stroke-dasharray:none;stroke-opacity:1"
           id="path66"
           inkscape:connector-curvature="0" /><path
           d="M 9.94,136.53 H 256.8"
           style="fill:none;stroke:#ffffff;stroke-width:1.07000005;stroke-linecap:butt;stroke-linejoin:round;stroke-miterlimit:10;stroke-dasharray:none;stroke-opacity:1"
           id="path68"
           inkscape:connector-curvature="0" /><path
           d="M 9.94,197.35 H 256.8"
           style="fill:none;stroke:#ffffff;stroke-width:1.07000005;stroke-linecap:butt;stroke-linejoin:round;stroke-miterlimit:10;stroke-dasharray:none;stroke-opacity:1"
           id="path70"
           inkscape:connector-curvature="0" /><path
           d="M 9.94,258.16 H 256.8"
           style="fill:none;stroke:#ffffff;stroke-width:1.07000005;stroke-linecap:butt;stroke-linejoin:round;stroke-miterlimit:10;stroke-dasharray:none;stroke-opacity:1"
           id="path72"
           inkscape:connector-curvature="0" /><path
           d="M 21.16,2.74 V 270.33"
           style="fill:none;stroke:#ffffff;stroke-width:1.07000005;stroke-linecap:butt;stroke-linejoin:round;stroke-miterlimit:10;stroke-dasharray:none;stroke-opacity:1"
           id="path74"
           inkscape:connector-curvature="0" /><path
           d="M 77.27,2.74 V 270.33"
           style="fill:none;stroke:#ffffff;stroke-width:1.07000005;stroke-linecap:butt;stroke-linejoin:round;stroke-miterlimit:10;stroke-dasharray:none;stroke-opacity:1"
           id="path76"
           inkscape:connector-curvature="0" /><path
           d="M 133.37,2.74 V 270.33"
           style="fill:none;stroke:#ffffff;stroke-width:1.07000005;stroke-linecap:butt;stroke-linejoin:round;stroke-miterlimit:10;stroke-dasharray:none;stroke-opacity:1"
           id="path78"
           inkscape:connector-curvature="0" /><path
           d="M 189.47,2.74 V 270.33"
           style="fill:none;stroke:#ffffff;stroke-width:1.07000005;stroke-linecap:butt;stroke-linejoin:round;stroke-miterlimit:10;stroke-dasharray:none;stroke-opacity:1"
           id="path80"
           inkscape:connector-curvature="0" /><path
           d="M 245.58,2.74 V 270.33"
           style="fill:none;stroke:#ffffff;stroke-width:1.07000005;stroke-linecap:butt;stroke-linejoin:round;stroke-miterlimit:10;stroke-dasharray:none;stroke-opacity:1"
           id="path82"
           inkscape:connector-curvature="0" /><path
           d="m 21.16,14.9 1.26,1.83 1.24,1.79 1.21,1.75 1.19,1.71 1.17,1.69 1.14,1.65 1.12,1.61 1.09,1.59 1.08,1.55 1.05,1.53 1.03,1.49 1.02,1.46 0.99,1.44 0.98,1.41 0.95,1.38 0.94,1.36 0.92,1.33 0.91,1.3 0.88,1.29 0.87,1.26 0.86,1.24 0.84,1.21 0.83,1.2 0.81,1.17 0.8,1.16 0.79,1.14 0.78,1.12 0.76,1.1 0.75,1.09 0.74,1.07 0.74,1.06 0.72,1.04 0.71,1.03 0.7,1.02 0.7,1 0.69,1 0.68,0.99 0.68,0.97 0.66,0.97 0.67,0.96 0.66,0.95 0.65,0.94 0.65,0.94 0.65,0.94 0.64,0.93 0.64,0.93 0.64,0.92 0.64,0.93 0.64,0.92 0.64,0.92 0.64,0.92 0.63,0.92 0.64,0.93 0.65,0.93 0.64,0.93 0.65,0.93 0.65,0.94 0.65,0.95 0.66,0.95 0.66,0.96 0.67,0.97 0.68,0.97 0.68,0.99 0.69,0.99 0.69,1.01 0.71,1.01 0.71,1.04 0.72,1.04 0.73,1.06 0.75,1.07 0.75,1.08 0.76,1.11 0.78,1.12 0.78,1.14 0.8,1.15 0.82,1.18 0.83,1.19 0.84,1.22 0.85,1.24 0.88,1.26 0.88,1.28 0.91,1.31 0.92,1.33 0.94,1.36 0.95,1.38 0.98,1.41 0.99,1.43 1.01,1.47 1.04,1.49 1.05,1.52 1.08,1.56 1.09,1.58 1.12,1.62 1.14,1.65 1.17,1.68 1.19,1.72 1.21,1.75 1.24,1.79 1.26,1.82"
           style="fill:none;stroke:#000000;stroke-width:12.80000019;stroke-linecap:butt;stroke-linejoin:round;stroke-miterlimit:1;stroke-dasharray:none;stroke-opacity:1"
           id="path84"
           inkscape:connector-curvature="0" /><path
           d="m 21.16,14.9 2.1,1.83 2.07,1.79 2.02,1.75 1.98,1.71 1.94,1.69 1.9,1.65 1.86,1.61 1.83,1.59 1.79,1.55 1.76,1.53 1.72,1.49 1.69,1.46 1.66,1.44 1.62,1.41 1.6,1.38 1.56,1.36 1.54,1.33 1.5,1.3 1.48,1.29 1.45,1.26 1.43,1.24 1.4,1.21 1.38,1.2 1.36,1.17 1.33,1.16 1.31,1.14 1.3,1.12 1.27,1.1 1.25,1.09 1.24,1.07 1.22,1.06 1.2,1.04 1.19,1.03 1.17,1.02 1.16,1 1.15,1 1.14,0.99 1.12,0.97 1.12,0.97 1.1,0.96 1.1,0.95 1.09,0.94 1.08,0.94 1.08,0.94 1.08,0.93 1.07,0.93 1.06,0.92 1.07,0.93 1.06,0.92 1.06,0.92 1.07,0.92 1.06,0.92 1.07,0.93 1.07,0.93 1.07,0.93 1.08,0.93 1.08,0.94 1.09,0.95 1.1,0.95 1.11,0.96 1.11,0.97 1.13,0.97 1.13,0.99 1.15,0.99 1.16,1.01 1.17,1.01 1.19,1.04 1.2,1.04 1.22,1.06 1.24,1.07 1.25,1.08 1.28,1.11 1.29,1.12 1.31,1.14 1.33,1.15 1.36,1.18 1.38,1.19 1.4,1.22 1.43,1.24 1.45,1.26 1.48,1.28 1.51,1.31 1.53,1.33 1.57,1.36 1.59,1.38 1.63,1.41 1.65,1.43 1.69,1.47 1.72,1.49 1.76,1.52 1.79,1.56 1.83,1.58 1.86,1.62 1.9,1.65 1.95,1.68 1.98,1.72 2.02,1.75 2.06,1.79 2.1,1.82"
           style="fill:none;stroke:#000000;stroke-width:3.51999998;stroke-linecap:butt;stroke-linejoin:round;stroke-miterlimit:1;stroke-dasharray:none;stroke-opacity:1"
           id="path86"
           inkscape:connector-curvature="0" /><path
           d="m 21.16,14.9 1.68,3.65 1.65,3.58 1.62,3.5 1.58,3.44 1.56,3.36 1.52,3.3 1.49,3.23 1.46,3.17 1.44,3.11 1.4,3.05 1.38,2.99 1.35,2.92 1.32,2.88 1.3,2.81 1.28,2.77 1.25,2.71 1.23,2.66 1.2,2.62 1.19,2.56 1.16,2.52 1.14,2.48 1.12,2.43 1.11,2.39 1.08,2.35 1.07,2.32 1.05,2.27 1.03,2.24 1.02,2.21 1,2.17 0.99,2.15 0.98,2.11 0.96,2.09 0.95,2.06 0.94,2.03 0.93,2.02 0.91,1.99 0.91,1.97 0.9,1.95 0.9,1.93 0.88,1.92 0.88,1.9 0.87,1.9 0.87,1.88 0.86,1.87 0.86,1.86 0.86,1.85 0.85,1.85 0.85,1.85 0.85,1.84 0.85,1.84 0.85,1.85 0.85,1.84 0.86,1.85 0.85,1.86 0.86,1.86 0.86,1.87 0.87,1.88 0.87,1.89 0.88,1.91 0.88,1.91 0.9,1.94 0.9,1.95 0.91,1.97 0.91,1.99 0.93,2.01 0.94,2.04 0.95,2.06 0.96,2.08 0.98,2.12 0.99,2.14 1,2.18 1.02,2.2 1.03,2.24 1.05,2.28 1.07,2.31 1.08,2.36 1.11,2.39 1.12,2.43 1.14,2.47 1.16,2.52 1.19,2.57 1.2,2.61 1.23,2.67 1.25,2.71 1.28,2.76 1.3,2.82 1.32,2.87 1.35,2.93 1.38,2.99 1.41,3.04 1.43,3.11 1.46,3.17 1.49,3.24 1.52,3.29 1.56,3.37 1.58,3.43 1.62,3.51 1.65,3.57 1.68,3.65"
           style="fill:none;stroke:#000000;stroke-width:4.32999992;stroke-linecap:butt;stroke-linejoin:round;stroke-miterlimit:1;stroke-dasharray:none;stroke-opacity:1"
           id="path88"
           inkscape:connector-curvature="0" /><path
           d="m 133.37,14.9 0.42,1.83 0.41,1.79 0.41,1.75 0.39,1.71 0.39,1.69 0.38,1.65 0.37,1.61 0.37,1.59 0.36,1.55 0.35,1.53 0.34,1.49 0.34,1.46 0.33,1.44 0.33,1.41 0.32,1.38 0.31,1.36 0.31,1.33 0.3,1.3 0.29,1.29 0.29,1.26 0.29,1.24 0.28,1.21 0.28,1.2 0.27,1.17 0.26,1.16 0.27,1.14 0.26,1.12 0.25,1.1 0.25,1.09 0.25,1.07 0.24,1.06 0.24,1.04 0.24,1.03 0.23,1.02 0.24,1 0.23,1 0.22,0.99 0.23,0.97 0.22,0.97 0.22,0.96 0.22,0.95 0.22,0.94 0.22,0.94 0.21,0.94 0.22,0.93 0.21,0.93 0.21,0.92 0.22,0.93 0.21,0.92 0.21,0.92 0.21,0.92 0.22,0.92 0.21,0.93 0.21,0.93 0.22,0.93 0.22,0.93 0.21,0.94 0.22,0.95 0.22,0.95 0.22,0.96 0.22,0.97 0.23,0.97 0.23,0.99 0.23,0.99 0.23,1.01 0.23,1.01 0.24,1.04 0.24,1.04 0.24,1.06 0.25,1.07 0.25,1.08 0.26,1.11 0.26,1.12 0.26,1.14 0.26,1.15 0.28,1.18 0.27,1.19 0.28,1.22 0.29,1.24 0.29,1.26 0.29,1.28 0.31,1.31 0.3,1.33 0.32,1.36 0.31,1.38 0.33,1.41 0.33,1.43 0.34,1.47 0.34,1.49 0.35,1.52 0.36,1.56 0.37,1.58 0.37,1.62 0.38,1.65 0.39,1.68 0.39,1.72 0.41,1.75 0.41,1.79 0.42,1.82"
           style="fill:none;stroke:#000000;stroke-width:2.13000011;stroke-linecap:butt;stroke-linejoin:round;stroke-miterlimit:1;stroke-dasharray:none;stroke-opacity:1"
           id="path90"
           inkscape:connector-curvature="0" /><path
           d="m 133.37,14.9 v 3.65 3.58 3.5 3.44 3.36 3.3 3.23 3.17 3.11 3.05 2.99 2.92 2.88 2.81 2.77 2.71 2.66 2.62 2.56 2.52 2.48 2.43 2.39 2.35 2.32 2.27 2.24 2.21 2.17 2.15 2.11 2.09 2.06 2.03 2.02 1.99 1.97 1.95 1.93 1.92 1.9 1.9 1.88 1.87 1.86 1.85 1.85 1.85 1.84 1.84 1.85 1.84 1.85 1.86 1.86 1.87 1.88 1.89 1.91 1.91 1.94 1.95 1.97 1.99 2.01 2.04 2.06 2.08 2.12 2.14 2.18 2.2 2.24 2.28 2.31 2.36 2.39 2.43 2.47 2.52 2.57 2.61 2.67 2.71 2.76 2.82 2.87 2.93 2.99 3.04 3.11 3.17 3.24 3.29 3.37 3.43 3.51 3.57 3.65"
           style="fill:none;stroke:#000000;stroke-width:2.38000011;stroke-linecap:butt;stroke-linejoin:round;stroke-miterlimit:1;stroke-dasharray:none;stroke-opacity:1"
           id="path92"
           inkscape:connector-curvature="0" /><path
           d="m 105.32,136.53 h 0.84 0.82 0.81 0.79 0.78 0.76 0.75 0.73 0.71 0.71 0.69 0.67 0.66 0.65 0.64 0.63 0.61 0.6 0.6 0.58 0.57 0.56 0.55 0.54 0.54 0.52 0.52 0.51 0.5 0.49 0.49 0.48 0.48 0.47 0.46 0.46 0.45 0.45 0.45 0.44 0.44 0.44 0.43 0.43 0.43 0.43 0.43 0.42 0.43 0.42 0.43 0.42 0.43 0.43 0.43 0.43 0.43 0.44 0.44 0.44 0.45 0.45 0.45 0.46 0.46 0.47 0.48 0.48 0.49 0.49 0.5 0.51 0.52 0.52 0.54 0.54 0.55 0.56 0.57 0.58 0.6 0.6 0.61 0.63 0.64 0.65 0.66 0.67 0.69 0.7 0.72 0.73 0.75 0.76 0.78 0.79 0.81 0.82 0.84"
           style="fill:none;stroke:#000000;stroke-width:2.86999989;stroke-linecap:butt;stroke-linejoin:round;stroke-miterlimit:1;stroke-dasharray:none;stroke-opacity:1"
           id="path94"
           inkscape:connector-curvature="0" /><path
           d="m 105.32,136.53 0.42,1.83 0.41,1.79 0.4,1.75 0.4,1.71 0.39,1.69 0.38,1.65 0.37,1.61 0.37,1.59 0.36,1.55 0.35,1.53 0.34,1.49 0.34,1.46 0.33,1.44 0.33,1.41 0.31,1.38 0.32,1.36 0.3,1.33 0.31,1.3 0.29,1.29 0.29,1.26 0.29,1.24 0.28,1.21 0.27,1.2 0.28,1.17 0.26,1.16 0.26,1.14 0.26,1.12 0.26,1.1 0.25,1.09 0.25,1.07 0.24,1.06 0.24,1.04 0.24,1.03 0.23,1.02 0.23,1.01 0.23,0.99 0.23,0.99 0.23,0.97 0.22,0.97 0.22,0.96 0.22,0.95 0.22,0.94 0.21,0.94 0.22,0.94 0.21,0.93 0.22,0.93 0.21,0.92 0.21,0.93 0.22,0.92 0.21,0.92 0.21,0.92 0.22,0.92 0.21,0.93 0.21,0.93 0.22,0.93 0.21,0.93 0.22,0.94 0.22,0.95 0.22,0.95 0.22,0.96 0.22,0.97 0.23,0.97 0.22,0.99 0.23,0.99 0.24,1.01 0.23,1.02 0.24,1.03 0.24,1.04 0.24,1.06 0.25,1.07 0.25,1.09 0.25,1.1 0.26,1.12 0.27,1.14 0.26,1.15 0.27,1.18 0.28,1.19 0.28,1.22 0.29,1.24 0.29,1.26 0.29,1.28 0.3,1.31 0.31,1.33 0.31,1.36 0.32,1.38 0.33,1.41 0.33,1.43 0.34,1.47 0.34,1.49 0.35,1.52 0.36,1.56 0.37,1.58 0.37,1.62 0.38,1.65 0.39,1.68 0.39,1.72 0.41,1.75 0.41,1.79 0.42,1.82"
           style="fill:none;stroke:#000000;stroke-width:3.75999999;stroke-linecap:butt;stroke-linejoin:round;stroke-miterlimit:1;stroke-dasharray:none;stroke-opacity:1"
           id="path96"
           inkscape:connector-curvature="0" /><path
           d="m 161.42,136.53 -0.42,1.83 -0.41,1.79 -0.41,1.75 -0.39,1.71 -0.39,1.69 -0.38,1.65 -0.37,1.61 -0.37,1.59 -0.36,1.55 -0.35,1.53 -0.34,1.49 -0.34,1.46 -0.33,1.44 -0.33,1.41 -0.31,1.38 -0.32,1.36 -0.3,1.33 -0.31,1.3 -0.29,1.29 -0.29,1.26 -0.29,1.24 -0.28,1.21 -0.27,1.2 -0.28,1.17 -0.26,1.16 -0.26,1.14 -0.26,1.12 -0.26,1.1 -0.25,1.09 -0.25,1.07 -0.24,1.06 -0.24,1.04 -0.24,1.03 -0.23,1.02 -0.23,1.01 -0.23,0.99 -0.23,0.99 -0.23,0.97 -0.22,0.97 -0.22,0.96 -0.22,0.95 -0.22,0.94 -0.21,0.94 -0.22,0.94 -0.22,0.93 -0.21,0.93 -0.21,0.92 -0.22,0.93 -0.21,0.92 -0.21,0.92 -0.21,0.92 -0.22,0.92 -0.21,0.93 -0.21,0.93 -0.22,0.93 -0.21,0.93 -0.22,0.94 -0.22,0.95 -0.22,0.95 -0.22,0.96 -0.22,0.97 -0.23,0.97 -0.22,0.99 -0.23,0.99 -0.24,1.01 -0.23,1.02 -0.24,1.03 -0.24,1.04 -0.24,1.06 -0.25,1.07 -0.25,1.09 -0.25,1.1 -0.26,1.12 -0.27,1.14 -0.26,1.15 -0.27,1.18 -0.28,1.19 -0.28,1.22 -0.29,1.24 -0.29,1.26 -0.29,1.28 -0.3,1.31 -0.31,1.33 -0.31,1.36 -0.32,1.38 -0.33,1.41 -0.33,1.43 -0.34,1.47 -0.34,1.49 -0.35,1.52 -0.36,1.56 -0.37,1.58 -0.37,1.62 -0.38,1.65 -0.39,1.68 -0.39,1.72 -0.41,1.75 -0.41,1.79 -0.42,1.82"
           style="fill:none;stroke:#000000;stroke-width:2.13000011;stroke-linecap:butt;stroke-linejoin:round;stroke-miterlimit:1;stroke-dasharray:none;stroke-opacity:1"
           id="path98"
           inkscape:connector-curvature="0" /><path
           d="m 10.14,14.9 c 0,6.07 4.96,11.03 11.02,11.03 6.06,0 11.02,-4.96 11.02,-11.03 C 32.18,8.84 27.22,3.88 21.16,3.88 15.1,3.88 10.14,8.84 10.14,14.9"
           style="fill:#00637c;fill-opacity:1;fill-rule:nonzero;stroke:#000000;stroke-width:0.70999998;stroke-linecap:round;stroke-linejoin:round;stroke-miterlimit:10;stroke-dasharray:none;stroke-opacity:1"
           id="path100"
           inkscape:connector-curvature="0" /><path
           d="m 122.35,14.9 c 0,6.07 4.96,11.03 11.02,11.03 6.06,0 11.02,-4.96 11.02,-11.03 0,-6.06 -4.96,-11.02 -11.02,-11.02 -6.06,0 -11.02,4.96 -11.02,11.02"
           style="fill:#3b9ab2;fill-opacity:1;fill-rule:nonzero;stroke:#000000;stroke-width:0.70999998;stroke-linecap:round;stroke-linejoin:round;stroke-miterlimit:10;stroke-dasharray:none;stroke-opacity:1"
           id="path102"
           inkscape:connector-curvature="0" /><path
           d="m 234.55,14.9 c 0,6.07 4.97,11.03 11.03,11.03 6.06,0 11.02,-4.96 11.02,-11.03 0,-6.06 -4.96,-11.02 -11.02,-11.02 -6.06,0 -11.03,4.96 -11.03,11.02"
           style="fill:#78b7c5;fill-opacity:1;fill-rule:nonzero;stroke:#000000;stroke-width:0.70999998;stroke-linecap:round;stroke-linejoin:round;stroke-miterlimit:10;stroke-dasharray:none;stroke-opacity:1"
           id="path104"
           inkscape:connector-curvature="0" /><path
           d="m 94.29,136.53 c 0,6.07 4.96,11.03 11.03,11.03 6.06,0 11.02,-4.96 11.02,-11.03 0,-6.06 -4.96,-11.02 -11.02,-11.02 -6.07,0 -11.03,4.96 -11.03,11.02"
           style="fill:#ebcc2a;fill-opacity:1;fill-rule:nonzero;stroke:#000000;stroke-width:0.70999998;stroke-linecap:round;stroke-linejoin:round;stroke-miterlimit:10;stroke-dasharray:none;stroke-opacity:1"
           id="path106"
           inkscape:connector-curvature="0" /><path
           d="m 150.4,136.53 c 0,6.07 4.96,11.03 11.02,11.03 6.07,0 11.03,-4.96 11.03,-11.03 0,-6.06 -4.96,-11.02 -11.03,-11.02 -6.06,0 -11.02,4.96 -11.02,11.02"
           style="fill:#e1af00;fill-opacity:1;fill-rule:nonzero;stroke:#000000;stroke-width:0.70999998;stroke-linecap:round;stroke-linejoin:round;stroke-miterlimit:10;stroke-dasharray:none;stroke-opacity:1"
           id="path108"
           inkscape:connector-curvature="0" /><path
           d="m 122.35,258.16 c 0,6.07 4.96,11.03 11.02,11.03 6.06,0 11.02,-4.96 11.02,-11.03 0,-6.06 -4.96,-11.02 -11.02,-11.02 -6.06,0 -11.02,4.96 -11.02,11.02"
           style="fill:#f21a00;fill-opacity:1;fill-rule:nonzero;stroke:#000000;stroke-width:0.70999998;stroke-linecap:round;stroke-linejoin:round;stroke-miterlimit:10;stroke-dasharray:none;stroke-opacity:1"
           id="path110"
           inkscape:connector-curvature="0" /></g></g><g
       id="g112" /><g
       id="g114" /><g
       id="g116" /><g
       id="g118" /><g
       id="g120" /><g
       id="g122" /><g
       id="g124" /><g
       id="g126" /><g
       id="g128" /><g
       id="g130" /><g
       id="g132" /><g
       id="g134" /><g
       id="g136" /><g
       id="g138" /><g
       id="g140" /><g
       id="g142" /><g
       id="g144" /><g
       id="g146" /><g
       id="g148" /><g
       id="g150" /><g
       id="g152" /><g
       id="g154" /><g
       id="g156" /><g
       id="g158" /><g
       id="g160" /><g
       id="g162" /><g
       id="g164" /><g
       id="g166" /><g
       id="g168" /><g
       id="g170" /><g
       id="g172" /><g
       id="g174" /><g
       id="g176" /><g
       id="g178" /><g
       id="g180" /><g
       id="g182" /><g
       id="g184" /><g
       id="g186"><text
         transform="matrix(1,0,0,-1,89.36,278.67)"
         style="font-variant:normal;font-weight:normal;font-size:13px;font-family:Helvetica;-inkscape-font-specification:Helvetica;writing-mode:lr-tb;fill:#000000;fill-opacity:1;fill-rule:nonzero;stroke:none"
         id="text190"><tspan
           x="0 8.6709995 13 20.228001 26.728001 33.956001 41.183998 44.798 48.411999 55.639999 62.868 66.482002 73.709999 77.908997 85.137001"
           y="0"
           sodipodi:role="line"
           id="tspan188">Present natural</tspan></text>
</g><g
       id="g192" /><g
       id="g194" /><g
       id="g196" /><g
       id="g198" /><g
       id="g200" /><g
       id="g202" /><g
       id="g204" /><g
       id="g206" /><g
       id="g208" /><g
       id="g210" /><g
       id="g212"><g
         id="g214"
         clip-path="url(#clipPath218)"><path
           d="M 264,0 H 528 V 288 H 264 Z"
           style="fill:#ffffff;fill-opacity:1;fill-rule:nonzero;stroke:#ffffff;stroke-width:1.07000005;stroke-linecap:round;stroke-linejoin:round;stroke-miterlimit:10;stroke-dasharray:none;stroke-opacity:1"
           id="path220"
           inkscape:connector-curvature="0" /></g></g><g
       id="g222" /><g
       id="g224"><g
         id="g226"
         clip-path="url(#clipPath230)"><path
           d="M 273.94,45.31 H 520.8"
           style="fill:none;stroke:#ffffff;stroke-width:0.52999997;stroke-linecap:butt;stroke-linejoin:round;stroke-miterlimit:10;stroke-dasharray:none;stroke-opacity:1"
           id="path232"
           inkscape:connector-curvature="0" /><path
           d="M 273.94,106.13 H 520.8"
           style="fill:none;stroke:#ffffff;stroke-width:0.52999997;stroke-linecap:butt;stroke-linejoin:round;stroke-miterlimit:10;stroke-dasharray:none;stroke-opacity:1"
           id="path234"
           inkscape:connector-curvature="0" /><path
           d="M 273.94,166.94 H 520.8"
           style="fill:none;stroke:#ffffff;stroke-width:0.52999997;stroke-linecap:butt;stroke-linejoin:round;stroke-miterlimit:10;stroke-dasharray:none;stroke-opacity:1"
           id="path236"
           inkscape:connector-curvature="0" /><path
           d="M 273.94,227.76 H 520.8"
           style="fill:none;stroke:#ffffff;stroke-width:0.52999997;stroke-linecap:butt;stroke-linejoin:round;stroke-miterlimit:10;stroke-dasharray:none;stroke-opacity:1"
           id="path238"
           inkscape:connector-curvature="0" /><path
           d="M 313.21,2.74 V 270.33"
           style="fill:none;stroke:#ffffff;stroke-width:0.52999997;stroke-linecap:butt;stroke-linejoin:round;stroke-miterlimit:10;stroke-dasharray:none;stroke-opacity:1"
           id="path240"
           inkscape:connector-curvature="0" /><path
           d="M 369.32,2.74 V 270.33"
           style="fill:none;stroke:#ffffff;stroke-width:0.52999997;stroke-linecap:butt;stroke-linejoin:round;stroke-miterlimit:10;stroke-dasharray:none;stroke-opacity:1"
           id="path242"
           inkscape:connector-curvature="0" /><path
           d="M 425.42,2.74 V 270.33"
           style="fill:none;stroke:#ffffff;stroke-width:0.52999997;stroke-linecap:butt;stroke-linejoin:round;stroke-miterlimit:10;stroke-dasharray:none;stroke-opacity:1"
           id="path244"
           inkscape:connector-curvature="0" /><path
           d="M 481.53,2.74 V 270.33"
           style="fill:none;stroke:#ffffff;stroke-width:0.52999997;stroke-linecap:butt;stroke-linejoin:round;stroke-miterlimit:10;stroke-dasharray:none;stroke-opacity:1"
           id="path246"
           inkscape:connector-curvature="0" /><path
           d="M 273.94,14.9 H 520.8"
           style="fill:none;stroke:#ffffff;stroke-width:1.07000005;stroke-linecap:butt;stroke-linejoin:round;stroke-miterlimit:10;stroke-dasharray:none;stroke-opacity:1"
           id="path248"
           inkscape:connector-curvature="0" /><path
           d="M 273.94,75.72 H 520.8"
           style="fill:none;stroke:#ffffff;stroke-width:1.07000005;stroke-linecap:butt;stroke-linejoin:round;stroke-miterlimit:10;stroke-dasharray:none;stroke-opacity:1"
           id="path250"
           inkscape:connector-curvature="0" /><path
           d="M 273.94,136.53 H 520.8"
           style="fill:none;stroke:#ffffff;stroke-width:1.07000005;stroke-linecap:butt;stroke-linejoin:round;stroke-miterlimit:10;stroke-dasharray:none;stroke-opacity:1"
           id="path252"
           inkscape:connector-curvature="0" /><path
           d="M 273.94,197.35 H 520.8"
           style="fill:none;stroke:#ffffff;stroke-width:1.07000005;stroke-linecap:butt;stroke-linejoin:round;stroke-miterlimit:10;stroke-dasharray:none;stroke-opacity:1"
           id="path254"
           inkscape:connector-curvature="0" /><path
           d="M 273.94,258.16 H 520.8"
           style="fill:none;stroke:#ffffff;stroke-width:1.07000005;stroke-linecap:butt;stroke-linejoin:round;stroke-miterlimit:10;stroke-dasharray:none;stroke-opacity:1"
           id="path256"
           inkscape:connector-curvature="0" /><path
           d="M 285.16,2.74 V 270.33"
           style="fill:none;stroke:#ffffff;stroke-width:1.07000005;stroke-linecap:butt;stroke-linejoin:round;stroke-miterlimit:10;stroke-dasharray:none;stroke-opacity:1"
           id="path258"
           inkscape:connector-curvature="0" /><path
           d="M 341.27,2.74 V 270.33"
           style="fill:none;stroke:#ffffff;stroke-width:1.07000005;stroke-linecap:butt;stroke-linejoin:round;stroke-miterlimit:10;stroke-dasharray:none;stroke-opacity:1"
           id="path260"
           inkscape:connector-curvature="0" /><path
           d="M 397.37,2.74 V 270.33"
           style="fill:none;stroke:#ffffff;stroke-width:1.07000005;stroke-linecap:butt;stroke-linejoin:round;stroke-miterlimit:10;stroke-dasharray:none;stroke-opacity:1"
           id="path262"
           inkscape:connector-curvature="0" /><path
           d="M 453.47,2.74 V 270.33"
           style="fill:none;stroke:#ffffff;stroke-width:1.07000005;stroke-linecap:butt;stroke-linejoin:round;stroke-miterlimit:10;stroke-dasharray:none;stroke-opacity:1"
           id="path264"
           inkscape:connector-curvature="0" /><path
           d="M 509.58,2.74 V 270.33"
           style="fill:none;stroke:#ffffff;stroke-width:1.07000005;stroke-linecap:butt;stroke-linejoin:round;stroke-miterlimit:10;stroke-dasharray:none;stroke-opacity:1"
           id="path266"
           inkscape:connector-curvature="0" /><path
           d="m 285.16,14.9 1.26,1.83 1.24,1.79 1.21,1.75 1.19,1.71 1.17,1.69 1.14,1.65 1.12,1.61 1.09,1.59 1.08,1.55 1.05,1.53 1.03,1.49 1.02,1.46 0.99,1.44 0.98,1.41 0.95,1.38 0.94,1.36 0.92,1.33 0.91,1.3 0.88,1.29 0.87,1.26 0.86,1.24 0.84,1.21 0.83,1.2 0.81,1.17 0.8,1.16 0.79,1.14 0.78,1.12 0.76,1.1 0.75,1.09 0.74,1.07 0.74,1.06 0.72,1.04 0.71,1.03 0.7,1.02 0.7,1 0.69,1 0.68,0.99 0.68,0.97 0.66,0.97 0.67,0.96 0.66,0.95 0.65,0.94 0.65,0.94 0.65,0.94 0.64,0.93 0.64,0.93 0.64,0.92 0.64,0.93 0.64,0.92 0.64,0.92 0.64,0.92 0.63,0.92 0.64,0.93 0.65,0.93 0.64,0.93 0.65,0.93 0.65,0.94 0.65,0.95 0.66,0.95 0.66,0.96 0.67,0.97 0.68,0.97 0.68,0.99 0.69,0.99 0.69,1.01 0.71,1.01 0.71,1.04 0.72,1.04 0.73,1.06 0.75,1.07 0.75,1.08 0.76,1.11 0.78,1.12 0.78,1.14 0.8,1.15 0.82,1.18 0.83,1.19 0.84,1.22 0.85,1.24 0.88,1.26 0.88,1.28 0.91,1.31 0.92,1.33 0.94,1.36 0.95,1.38 0.98,1.41 0.99,1.43 1.01,1.47 1.04,1.49 1.05,1.52 1.08,1.56 1.09,1.58 1.12,1.62 1.14,1.65 1.17,1.68 1.19,1.72 1.21,1.75 1.24,1.79 1.26,1.82"
           style="fill:none;stroke:#000000;stroke-width:12.80000019;stroke-linecap:butt;stroke-linejoin:round;stroke-miterlimit:1;stroke-dasharray:none;stroke-opacity:1"
           id="path268"
           inkscape:connector-curvature="0" /><path
           d="m 285.16,14.9 2.1,1.83 2.07,1.79 2.02,1.75 1.98,1.71 1.94,1.69 1.9,1.65 1.86,1.61 1.83,1.59 1.79,1.55 1.76,1.53 1.72,1.49 1.69,1.46 1.66,1.44 1.62,1.41 1.6,1.38 1.56,1.36 1.54,1.33 1.5,1.3 1.48,1.29 1.45,1.26 1.43,1.24 1.4,1.21 1.38,1.2 1.36,1.17 1.33,1.16 1.31,1.14 1.3,1.12 1.27,1.1 1.25,1.09 1.24,1.07 1.22,1.06 1.2,1.04 1.19,1.03 1.17,1.02 1.16,1 1.15,1 1.14,0.99 1.12,0.97 1.12,0.97 1.1,0.96 1.1,0.95 1.09,0.94 1.08,0.94 1.08,0.94 1.08,0.93 1.07,0.93 1.06,0.92 1.07,0.93 1.06,0.92 1.06,0.92 1.07,0.92 1.06,0.92 1.07,0.93 1.07,0.93 1.07,0.93 1.08,0.93 1.08,0.94 1.09,0.95 1.1,0.95 1.11,0.96 1.11,0.97 1.13,0.97 1.13,0.99 1.15,0.99 1.16,1.01 1.17,1.01 1.19,1.04 1.2,1.04 1.22,1.06 1.24,1.07 1.25,1.08 1.28,1.11 1.29,1.12 1.31,1.14 1.33,1.15 1.36,1.18 1.38,1.19 1.4,1.22 1.43,1.24 1.45,1.26 1.48,1.28 1.51,1.31 1.53,1.33 1.57,1.36 1.59,1.38 1.63,1.41 1.65,1.43 1.69,1.47 1.72,1.49 1.76,1.52 1.79,1.56 1.83,1.58 1.86,1.62 1.9,1.65 1.95,1.68 1.98,1.72 2.02,1.75 2.06,1.79 2.1,1.82"
           style="fill:none;stroke:#000000;stroke-width:3.31999993;stroke-linecap:butt;stroke-linejoin:round;stroke-miterlimit:1;stroke-dasharray:none;stroke-opacity:1"
           id="path270"
           inkscape:connector-curvature="0" /><path
           d="m 285.16,14.9 1.68,3.65 1.65,3.58 1.62,3.5 1.58,3.44 1.56,3.36 1.52,3.3 1.49,3.23 1.46,3.17 1.44,3.11 1.4,3.05 1.38,2.99 1.35,2.92 1.32,2.88 1.3,2.81 1.28,2.77 1.25,2.71 1.23,2.66 1.2,2.62 1.19,2.56 1.16,2.52 1.14,2.48 1.12,2.43 1.11,2.39 1.08,2.35 1.07,2.32 1.05,2.27 1.03,2.24 1.02,2.21 1,2.17 0.99,2.15 0.98,2.11 0.96,2.09 0.95,2.06 0.94,2.03 0.93,2.02 0.91,1.99 0.91,1.97 0.9,1.95 0.9,1.93 0.88,1.92 0.88,1.9 0.87,1.9 0.87,1.88 0.86,1.87 0.86,1.86 0.86,1.85 0.85,1.85 0.85,1.85 0.85,1.84 0.85,1.84 0.85,1.85 0.85,1.84 0.86,1.85 0.85,1.86 0.86,1.86 0.86,1.87 0.87,1.88 0.87,1.89 0.88,1.91 0.88,1.91 0.9,1.94 0.9,1.95 0.91,1.97 0.91,1.99 0.93,2.01 0.94,2.04 0.95,2.06 0.96,2.08 0.98,2.12 0.99,2.14 1,2.18 1.02,2.2 1.03,2.24 1.05,2.28 1.07,2.31 1.08,2.36 1.11,2.39 1.12,2.43 1.14,2.47 1.16,2.52 1.19,2.57 1.2,2.61 1.23,2.67 1.25,2.71 1.28,2.76 1.3,2.82 1.32,2.87 1.35,2.93 1.38,2.99 1.41,3.04 1.43,3.11 1.46,3.17 1.49,3.24 1.52,3.29 1.56,3.37 1.58,3.43 1.62,3.51 1.65,3.57 1.68,3.65"
           style="fill:none;stroke:#000000;stroke-width:3.31999993;stroke-linecap:butt;stroke-linejoin:round;stroke-miterlimit:1;stroke-dasharray:none;stroke-opacity:1"
           id="path272"
           inkscape:connector-curvature="0" /><path
           d="m 369.32,136.53 h 0.84 0.82 0.81 0.79 0.78 0.76 0.75 0.73 0.71 0.71 0.69 0.67 0.66 0.65 0.64 0.63 0.61 0.6 0.6 0.58 0.57 0.56 0.55 0.54 0.54 0.52 0.52 0.51 0.5 0.49 0.49 0.48 0.48 0.47 0.46 0.46 0.45 0.45 0.45 0.44 0.44 0.44 0.43 0.43 0.43 0.43 0.43 0.42 0.43 0.42 0.43 0.42 0.43 0.43 0.43 0.43 0.43 0.44 0.44 0.44 0.45 0.45 0.45 0.46 0.46 0.47 0.48 0.48 0.49 0.49 0.5 0.51 0.52 0.52 0.54 0.54 0.55 0.56 0.57 0.58 0.6 0.6 0.61 0.63 0.64 0.65 0.66 0.67 0.69 0.7 0.72 0.73 0.75 0.76 0.78 0.79 0.81 0.82 0.84"
           style="fill:none;stroke:#000000;stroke-width:2.95000005;stroke-linecap:butt;stroke-linejoin:round;stroke-miterlimit:1;stroke-dasharray:none;stroke-opacity:1"
           id="path274"
           inkscape:connector-curvature="0" /><path
           d="m 369.32,136.53 0.42,1.83 0.41,1.79 0.4,1.75 0.4,1.71 0.39,1.69 0.38,1.65 0.37,1.61 0.37,1.59 0.36,1.55 0.35,1.53 0.34,1.49 0.34,1.46 0.33,1.44 0.33,1.41 0.31,1.38 0.32,1.36 0.3,1.33 0.31,1.3 0.29,1.29 0.29,1.26 0.29,1.24 0.28,1.21 0.27,1.2 0.28,1.17 0.26,1.16 0.26,1.14 0.26,1.12 0.26,1.1 0.25,1.09 0.25,1.07 0.24,1.06 0.24,1.04 0.24,1.03 0.23,1.02 0.23,1.01 0.23,0.99 0.23,0.99 0.23,0.97 0.22,0.97 0.22,0.96 0.22,0.95 0.22,0.94 0.21,0.94 0.22,0.94 0.21,0.93 0.22,0.93 0.21,0.92 0.21,0.93 0.22,0.92 0.21,0.92 0.21,0.92 0.22,0.92 0.21,0.93 0.21,0.93 0.22,0.93 0.21,0.93 0.22,0.94 0.22,0.95 0.22,0.95 0.22,0.96 0.22,0.97 0.23,0.97 0.22,0.99 0.23,0.99 0.24,1.01 0.23,1.02 0.24,1.03 0.24,1.04 0.24,1.06 0.25,1.07 0.25,1.09 0.25,1.1 0.26,1.12 0.27,1.14 0.26,1.15 0.27,1.18 0.28,1.19 0.28,1.22 0.29,1.24 0.29,1.26 0.29,1.28 0.3,1.31 0.31,1.33 0.31,1.36 0.32,1.38 0.33,1.41 0.33,1.43 0.34,1.47 0.34,1.49 0.35,1.52 0.36,1.56 0.37,1.58 0.37,1.62 0.38,1.65 0.39,1.68 0.39,1.72 0.41,1.75 0.41,1.79 0.42,1.82"
           style="fill:none;stroke:#000000;stroke-width:2.95000005;stroke-linecap:butt;stroke-linejoin:round;stroke-miterlimit:1;stroke-dasharray:none;stroke-opacity:1"
           id="path276"
           inkscape:connector-curvature="0" /><path
           d="m 425.42,136.53 -0.42,1.83 -0.41,1.79 -0.41,1.75 -0.39,1.71 -0.39,1.69 -0.38,1.65 -0.37,1.61 -0.37,1.59 -0.36,1.55 -0.35,1.53 -0.34,1.49 -0.34,1.46 -0.33,1.44 -0.33,1.41 -0.31,1.38 -0.32,1.36 -0.3,1.33 -0.31,1.3 -0.29,1.29 -0.29,1.26 -0.29,1.24 -0.28,1.21 -0.27,1.2 -0.28,1.17 -0.26,1.16 -0.26,1.14 -0.26,1.12 -0.26,1.1 -0.25,1.09 -0.25,1.07 -0.24,1.06 -0.24,1.04 -0.24,1.03 -0.23,1.02 -0.23,1.01 -0.23,0.99 -0.23,0.99 -0.23,0.97 -0.22,0.97 -0.22,0.96 -0.22,0.95 -0.22,0.94 -0.21,0.94 -0.22,0.94 -0.22,0.93 -0.21,0.93 -0.21,0.92 -0.22,0.93 -0.21,0.92 -0.21,0.92 -0.21,0.92 -0.22,0.92 -0.21,0.93 -0.21,0.93 -0.22,0.93 -0.21,0.93 -0.22,0.94 -0.22,0.95 -0.22,0.95 -0.22,0.96 -0.22,0.97 -0.23,0.97 -0.22,0.99 -0.23,0.99 -0.24,1.01 -0.23,1.02 -0.24,1.03 -0.24,1.04 -0.24,1.06 -0.25,1.07 -0.25,1.09 -0.25,1.1 -0.26,1.12 -0.27,1.14 -0.26,1.15 -0.27,1.18 -0.28,1.19 -0.28,1.22 -0.29,1.24 -0.29,1.26 -0.29,1.28 -0.3,1.31 -0.31,1.33 -0.31,1.36 -0.32,1.38 -0.33,1.41 -0.33,1.43 -0.34,1.47 -0.34,1.49 -0.35,1.52 -0.36,1.56 -0.37,1.58 -0.37,1.62 -0.38,1.65 -0.39,1.68 -0.39,1.72 -0.41,1.75 -0.41,1.79 -0.42,1.82"
           style="fill:none;stroke:#000000;stroke-width:2.13000011;stroke-linecap:butt;stroke-linejoin:round;stroke-miterlimit:1;stroke-dasharray:none;stroke-opacity:1"
           id="path278"
           inkscape:connector-curvature="0" /><path
           d="m 274.14,14.9 c 0,6.07 4.96,11.03 11.02,11.03 6.06,0 11.02,-4.96 11.02,-11.03 0,-6.06 -4.96,-11.02 -11.02,-11.02 -6.06,0 -11.02,4.96 -11.02,11.02"
           style="fill:#00637c;fill-opacity:1;fill-rule:nonzero;stroke:#000000;stroke-width:0.70999998;stroke-linecap:round;stroke-linejoin:round;stroke-miterlimit:10;stroke-dasharray:none;stroke-opacity:1"
           id="path280"
           inkscape:connector-curvature="0" /><path
           d="m 386.35,14.9 c 0,6.07 4.96,11.03 11.02,11.03 6.06,0 11.02,-4.96 11.02,-11.03 0,-6.06 -4.96,-11.02 -11.02,-11.02 -6.06,0 -11.02,4.96 -11.02,11.02"
           style="fill:#3b9ab2;fill-opacity:1;fill-rule:nonzero;stroke:#000000;stroke-width:0.70999998;stroke-linecap:round;stroke-linejoin:round;stroke-miterlimit:10;stroke-dasharray:none;stroke-opacity:1"
           id="path282"
           inkscape:connector-curvature="0" /><path
           d="m 498.55,14.9 c 0,6.07 4.97,11.03 11.03,11.03 6.06,0 11.02,-4.96 11.02,-11.03 0,-6.06 -4.96,-11.02 -11.02,-11.02 -6.06,0 -11.03,4.96 -11.03,11.02"
           style="fill:#78b7c5;fill-opacity:1;fill-rule:nonzero;stroke:#000000;stroke-width:0.70999998;stroke-linecap:round;stroke-linejoin:round;stroke-miterlimit:10;stroke-dasharray:none;stroke-opacity:1"
           id="path284"
           inkscape:connector-curvature="0" /><path
           d="m 358.29,136.53 c 0,6.07 4.96,11.03 11.03,11.03 6.06,0 11.02,-4.96 11.02,-11.03 0,-6.06 -4.96,-11.02 -11.02,-11.02 -6.07,0 -11.03,4.96 -11.03,11.02"
           style="fill:#ebcc2a;fill-opacity:1;fill-rule:nonzero;stroke:#000000;stroke-width:0.70999998;stroke-linecap:round;stroke-linejoin:round;stroke-miterlimit:10;stroke-dasharray:none;stroke-opacity:1"
           id="path286"
           inkscape:connector-curvature="0" /><path
           d="m 414.4,136.53 c 0,6.07 4.96,11.03 11.02,11.03 6.07,0 11.03,-4.96 11.03,-11.03 0,-6.06 -4.96,-11.02 -11.03,-11.02 -6.06,0 -11.02,4.96 -11.02,11.02"
           style="fill:#e1af00;fill-opacity:1;fill-rule:nonzero;stroke:#000000;stroke-width:0.70999998;stroke-linecap:round;stroke-linejoin:round;stroke-miterlimit:10;stroke-dasharray:none;stroke-opacity:1"
           id="path288"
           inkscape:connector-curvature="0" /><path
           d="m 386.35,258.16 c 0,6.07 4.96,11.03 11.02,11.03 6.06,0 11.02,-4.96 11.02,-11.03 0,-6.06 -4.96,-11.02 -11.02,-11.02 -6.06,0 -11.02,4.96 -11.02,11.02"
           style="fill:#f21a00;fill-opacity:1;fill-rule:nonzero;stroke:#000000;stroke-width:0.70999998;stroke-linecap:round;stroke-linejoin:round;stroke-miterlimit:10;stroke-dasharray:none;stroke-opacity:1"
           id="path290"
           inkscape:connector-curvature="0" /></g></g><g
       id="g292" /><g
       id="g294" /><g
       id="g296" /><g
       id="g298" /><g
       id="g300" /><g
       id="g302" /><g
       id="g304" /><g
       id="g306" /><g
       id="g308" /><g
       id="g310" /><g
       id="g312" /><g
       id="g314" /><g
       id="g316" /><g
       id="g318" /><g
       id="g320" /><g
       id="g322" /><g
       id="g324" /><g
       id="g326" /><g
       id="g328" /><g
       id="g330" /><g
       id="g332" /><g
       id="g334" /><g
       id="g336" /><g
       id="g338" /><g
       id="g340" /><g
       id="g342" /><g
       id="g344" /><g
       id="g346" /><g
       id="g348" /><g
       id="g350" /><g
       id="g352" /><g
       id="g354" /><g
       id="g356" /><g
       id="g358" /><g
       id="g360" /><g
       id="g362" /><g
       id="g364" /><g
       id="g366"><text
         transform="matrix(1,0,0,-1,375.7,278.67)"
         style="font-variant:normal;font-weight:normal;font-size:13px;font-family:Helvetica;-inkscape-font-specification:Helvetica;writing-mode:lr-tb;fill:#000000;fill-opacity:1;fill-rule:nonzero;stroke:none"
         id="text370"><tspan
           x="0 9.3859997 16.614 20.943001 25.271999 32.5 39.728001"
           y="0"
           sodipodi:role="line"
           id="tspan368">Current</tspan></text>
</g><g
       id="g372" /><g
       id="g374" /><g
       id="g376" /><g
       id="g378" /><g
       id="g380" /><g
       id="g382" /><g
       id="g384" /><g
       id="g386" /><g
       id="g388" /><g
       id="g390" /><g
       id="g392"><g
         id="g394"
         clip-path="url(#clipPath398)"><path
           d="M 528,0 H 792 V 288 H 528 Z"
           style="fill:#ffffff;fill-opacity:1;fill-rule:nonzero;stroke:#ffffff;stroke-width:1.07000005;stroke-linecap:round;stroke-linejoin:round;stroke-miterlimit:10;stroke-dasharray:none;stroke-opacity:1"
           id="path400"
           inkscape:connector-curvature="0" /></g></g><g
       id="g402" /><g
       id="g404"><g
         id="g406"
         clip-path="url(#clipPath410)"><path
           d="M 537.94,45.31 H 784.8"
           style="fill:none;stroke:#ffffff;stroke-width:0.52999997;stroke-linecap:butt;stroke-linejoin:round;stroke-miterlimit:10;stroke-dasharray:none;stroke-opacity:1"
           id="path412"
           inkscape:connector-curvature="0" /><path
           d="M 537.94,106.13 H 784.8"
           style="fill:none;stroke:#ffffff;stroke-width:0.52999997;stroke-linecap:butt;stroke-linejoin:round;stroke-miterlimit:10;stroke-dasharray:none;stroke-opacity:1"
           id="path414"
           inkscape:connector-curvature="0" /><path
           d="M 537.94,166.94 H 784.8"
           style="fill:none;stroke:#ffffff;stroke-width:0.52999997;stroke-linecap:butt;stroke-linejoin:round;stroke-miterlimit:10;stroke-dasharray:none;stroke-opacity:1"
           id="path416"
           inkscape:connector-curvature="0" /><path
           d="M 537.94,227.76 H 784.8"
           style="fill:none;stroke:#ffffff;stroke-width:0.52999997;stroke-linecap:butt;stroke-linejoin:round;stroke-miterlimit:10;stroke-dasharray:none;stroke-opacity:1"
           id="path418"
           inkscape:connector-curvature="0" /><path
           d="M 577.21,2.74 V 270.33"
           style="fill:none;stroke:#ffffff;stroke-width:0.52999997;stroke-linecap:butt;stroke-linejoin:round;stroke-miterlimit:10;stroke-dasharray:none;stroke-opacity:1"
           id="path420"
           inkscape:connector-curvature="0" /><path
           d="M 633.32,2.74 V 270.33"
           style="fill:none;stroke:#ffffff;stroke-width:0.52999997;stroke-linecap:butt;stroke-linejoin:round;stroke-miterlimit:10;stroke-dasharray:none;stroke-opacity:1"
           id="path422"
           inkscape:connector-curvature="0" /><path
           d="M 689.42,2.74 V 270.33"
           style="fill:none;stroke:#ffffff;stroke-width:0.52999997;stroke-linecap:butt;stroke-linejoin:round;stroke-miterlimit:10;stroke-dasharray:none;stroke-opacity:1"
           id="path424"
           inkscape:connector-curvature="0" /><path
           d="M 745.53,2.74 V 270.33"
           style="fill:none;stroke:#ffffff;stroke-width:0.52999997;stroke-linecap:butt;stroke-linejoin:round;stroke-miterlimit:10;stroke-dasharray:none;stroke-opacity:1"
           id="path426"
           inkscape:connector-curvature="0" /><path
           d="M 537.94,14.9 H 784.8"
           style="fill:none;stroke:#ffffff;stroke-width:1.07000005;stroke-linecap:butt;stroke-linejoin:round;stroke-miterlimit:10;stroke-dasharray:none;stroke-opacity:1"
           id="path428"
           inkscape:connector-curvature="0" /><path
           d="M 537.94,75.72 H 784.8"
           style="fill:none;stroke:#ffffff;stroke-width:1.07000005;stroke-linecap:butt;stroke-linejoin:round;stroke-miterlimit:10;stroke-dasharray:none;stroke-opacity:1"
           id="path430"
           inkscape:connector-curvature="0" /><path
           d="M 537.94,136.53 H 784.8"
           style="fill:none;stroke:#ffffff;stroke-width:1.07000005;stroke-linecap:butt;stroke-linejoin:round;stroke-miterlimit:10;stroke-dasharray:none;stroke-opacity:1"
           id="path432"
           inkscape:connector-curvature="0" /><path
           d="M 537.94,197.35 H 784.8"
           style="fill:none;stroke:#ffffff;stroke-width:1.07000005;stroke-linecap:butt;stroke-linejoin:round;stroke-miterlimit:10;stroke-dasharray:none;stroke-opacity:1"
           id="path434"
           inkscape:connector-curvature="0" /><path
           d="M 537.94,258.16 H 784.8"
           style="fill:none;stroke:#ffffff;stroke-width:1.07000005;stroke-linecap:butt;stroke-linejoin:round;stroke-miterlimit:10;stroke-dasharray:none;stroke-opacity:1"
           id="path436"
           inkscape:connector-curvature="0" /><path
           d="M 549.16,2.74 V 270.33"
           style="fill:none;stroke:#ffffff;stroke-width:1.07000005;stroke-linecap:butt;stroke-linejoin:round;stroke-miterlimit:10;stroke-dasharray:none;stroke-opacity:1"
           id="path438"
           inkscape:connector-curvature="0" /><path
           d="M 605.27,2.74 V 270.33"
           style="fill:none;stroke:#ffffff;stroke-width:1.07000005;stroke-linecap:butt;stroke-linejoin:round;stroke-miterlimit:10;stroke-dasharray:none;stroke-opacity:1"
           id="path440"
           inkscape:connector-curvature="0" /><path
           d="M 661.37,2.74 V 270.33"
           style="fill:none;stroke:#ffffff;stroke-width:1.07000005;stroke-linecap:butt;stroke-linejoin:round;stroke-miterlimit:10;stroke-dasharray:none;stroke-opacity:1"
           id="path442"
           inkscape:connector-curvature="0" /><path
           d="M 717.47,2.74 V 270.33"
           style="fill:none;stroke:#ffffff;stroke-width:1.07000005;stroke-linecap:butt;stroke-linejoin:round;stroke-miterlimit:10;stroke-dasharray:none;stroke-opacity:1"
           id="path444"
           inkscape:connector-curvature="0" /><path
           d="M 773.58,2.74 V 270.33"
           style="fill:none;stroke:#ffffff;stroke-width:1.07000005;stroke-linecap:butt;stroke-linejoin:round;stroke-miterlimit:10;stroke-dasharray:none;stroke-opacity:1"
           id="path446"
           inkscape:connector-curvature="0" /><path
           d="m 549.16,14.9 1.26,1.83 1.24,1.79 1.21,1.75 1.19,1.71 1.17,1.69 1.14,1.65 1.12,1.61 1.09,1.59 1.08,1.55 1.05,1.53 1.03,1.49 1.02,1.46 0.99,1.44 0.98,1.41 0.95,1.38 0.94,1.36 0.92,1.33 0.91,1.3 0.88,1.29 0.87,1.26 0.86,1.24 0.84,1.21 0.83,1.2 0.81,1.17 0.8,1.16 0.79,1.14 0.78,1.12 0.76,1.1 0.75,1.09 0.74,1.07 0.74,1.06 0.72,1.04 0.71,1.03 0.7,1.02 0.7,1 0.69,1 0.68,0.99 0.68,0.97 0.66,0.97 0.67,0.96 0.66,0.95 0.65,0.94 0.65,0.94 0.65,0.94 0.64,0.93 0.64,0.93 0.64,0.92 0.64,0.93 0.64,0.92 0.64,0.92 0.64,0.92 0.63,0.92 0.64,0.93 0.65,0.93 0.64,0.93 0.65,0.93 0.65,0.94 0.65,0.95 0.66,0.95 0.66,0.96 0.67,0.97 0.68,0.97 0.68,0.99 0.69,0.99 0.69,1.01 0.71,1.01 0.71,1.04 0.72,1.04 0.73,1.06 0.75,1.07 0.75,1.08 0.76,1.11 0.78,1.12 0.78,1.14 0.8,1.15 0.82,1.18 0.83,1.19 0.84,1.22 0.85,1.24 0.88,1.26 0.88,1.28 0.91,1.31 0.92,1.33 0.94,1.36 0.95,1.38 0.98,1.41 0.99,1.43 1.01,1.47 1.04,1.49 1.05,1.52 1.08,1.56 1.09,1.58 1.12,1.62 1.14,1.65 1.17,1.68 1.19,1.72 1.21,1.75 1.24,1.79 1.26,1.82"
           style="fill:none;stroke:#000000;stroke-width:12.80000019;stroke-linecap:butt;stroke-linejoin:round;stroke-miterlimit:1;stroke-dasharray:none;stroke-opacity:1"
           id="path448"
           inkscape:connector-curvature="0" /><path
           d="m 549.16,14.9 2.1,1.83 2.07,1.79 2.02,1.75 1.98,1.71 1.94,1.69 1.9,1.65 1.86,1.61 1.83,1.59 1.79,1.55 1.76,1.53 1.72,1.49 1.69,1.46 1.66,1.44 1.62,1.41 1.6,1.38 1.56,1.36 1.54,1.33 1.5,1.3 1.48,1.29 1.45,1.26 1.43,1.24 1.4,1.21 1.38,1.2 1.36,1.17 1.33,1.16 1.31,1.14 1.3,1.12 1.27,1.1 1.25,1.09 1.24,1.07 1.22,1.06 1.2,1.04 1.19,1.03 1.17,1.02 1.16,1 1.15,1 1.14,0.99 1.12,0.97 1.12,0.97 1.1,0.96 1.1,0.95 1.09,0.94 1.08,0.94 1.08,0.94 1.08,0.93 1.07,0.93 1.06,0.92 1.07,0.93 1.06,0.92 1.06,0.92 1.07,0.92 1.06,0.92 1.07,0.93 1.07,0.93 1.07,0.93 1.08,0.93 1.08,0.94 1.09,0.95 1.1,0.95 1.11,0.96 1.11,0.97 1.13,0.97 1.13,0.99 1.15,0.99 1.16,1.01 1.17,1.01 1.19,1.04 1.2,1.04 1.22,1.06 1.24,1.07 1.25,1.08 1.28,1.11 1.29,1.12 1.31,1.14 1.33,1.15 1.36,1.18 1.38,1.19 1.4,1.22 1.43,1.24 1.45,1.26 1.48,1.28 1.51,1.31 1.53,1.33 1.57,1.36 1.59,1.38 1.63,1.41 1.65,1.43 1.69,1.47 1.72,1.49 1.76,1.52 1.79,1.56 1.83,1.58 1.86,1.62 1.9,1.65 1.95,1.68 1.98,1.72 2.02,1.75 2.06,1.79 2.1,1.82"
           style="fill:none;stroke:#000000;stroke-width:3.41000009;stroke-linecap:butt;stroke-linejoin:round;stroke-miterlimit:1;stroke-dasharray:none;stroke-opacity:1"
           id="path450"
           inkscape:connector-curvature="0" /><path
           d="m 549.16,14.9 1.68,3.65 1.65,3.58 1.62,3.5 1.58,3.44 1.56,3.36 1.52,3.3 1.49,3.23 1.46,3.17 1.44,3.11 1.4,3.05 1.38,2.99 1.35,2.92 1.32,2.88 1.3,2.81 1.28,2.77 1.25,2.71 1.23,2.66 1.2,2.62 1.19,2.56 1.16,2.52 1.14,2.48 1.12,2.43 1.11,2.39 1.08,2.35 1.07,2.32 1.05,2.27 1.03,2.24 1.02,2.21 1,2.17 0.99,2.15 0.98,2.11 0.96,2.09 0.95,2.06 0.94,2.03 0.93,2.02 0.91,1.99 0.91,1.97 0.9,1.95 0.9,1.93 0.88,1.92 0.88,1.9 0.87,1.9 0.87,1.88 0.86,1.87 0.86,1.86 0.86,1.85 0.85,1.85 0.85,1.85 0.85,1.84 0.85,1.84 0.85,1.85 0.85,1.84 0.86,1.85 0.85,1.86 0.86,1.86 0.86,1.87 0.87,1.88 0.87,1.89 0.88,1.91 0.88,1.91 0.9,1.94 0.9,1.95 0.91,1.97 0.91,1.99 0.93,2.01 0.94,2.04 0.95,2.06 0.96,2.08 0.98,2.12 0.99,2.14 1,2.18 1.02,2.2 1.03,2.24 1.05,2.28 1.07,2.31 1.08,2.36 1.11,2.39 1.12,2.43 1.14,2.47 1.16,2.52 1.19,2.57 1.2,2.61 1.23,2.67 1.25,2.71 1.28,2.76 1.3,2.82 1.32,2.87 1.35,2.93 1.38,2.99 1.41,3.04 1.43,3.11 1.46,3.17 1.49,3.24 1.52,3.29 1.56,3.37 1.58,3.43 1.62,3.51 1.65,3.57 1.68,3.65"
           style="fill:none;stroke:#000000;stroke-width:3.41000009;stroke-linecap:butt;stroke-linejoin:round;stroke-miterlimit:1;stroke-dasharray:none;stroke-opacity:1"
           id="path452"
           inkscape:connector-curvature="0" /><path
           d="m 661.37,14.9 v 3.65 3.58 3.5 3.44 3.36 3.3 3.23 3.17 3.11 3.05 2.99 2.92 2.88 2.81 2.77 2.71 2.66 2.62 2.56 2.52 2.48 2.43 2.39 2.35 2.32 2.27 2.24 2.21 2.17 2.15 2.11 2.09 2.06 2.03 2.02 1.99 1.97 1.95 1.93 1.92 1.9 1.9 1.88 1.87 1.86 1.85 1.85 1.85 1.84 1.84 1.85 1.84 1.85 1.86 1.86 1.87 1.88 1.89 1.91 1.91 1.94 1.95 1.97 1.99 2.01 2.04 2.06 2.08 2.12 2.14 2.18 2.2 2.24 2.28 2.31 2.36 2.39 2.43 2.47 2.52 2.57 2.61 2.67 2.71 2.76 2.82 2.87 2.93 2.99 3.04 3.11 3.17 3.24 3.29 3.37 3.43 3.51 3.57 3.65"
           style="fill:none;stroke:#000000;stroke-width:2.13000011;stroke-linecap:butt;stroke-linejoin:round;stroke-miterlimit:1;stroke-dasharray:none;stroke-opacity:1"
           id="path454"
           inkscape:connector-curvature="0" /><path
           d="m 633.32,136.53 h 0.84 0.82 0.81 0.79 0.78 0.76 0.75 0.73 0.71 0.71 0.69 0.67 0.66 0.65 0.64 0.63 0.61 0.6 0.6 0.58 0.57 0.56 0.55 0.54 0.54 0.52 0.52 0.51 0.5 0.49 0.49 0.48 0.48 0.47 0.46 0.46 0.45 0.45 0.45 0.44 0.44 0.44 0.43 0.43 0.43 0.43 0.43 0.42 0.43 0.42 0.43 0.42 0.43 0.43 0.43 0.43 0.43 0.44 0.44 0.44 0.45 0.45 0.45 0.46 0.46 0.47 0.48 0.48 0.49 0.49 0.5 0.51 0.52 0.52 0.54 0.54 0.55 0.56 0.57 0.58 0.6 0.6 0.61 0.63 0.64 0.65 0.66 0.67 0.69 0.7 0.72 0.73 0.75 0.76 0.78 0.79 0.81 0.82 0.84"
           style="fill:none;stroke:#000000;stroke-width:2.95000005;stroke-linecap:butt;stroke-linejoin:round;stroke-miterlimit:1;stroke-dasharray:none;stroke-opacity:1"
           id="path456"
           inkscape:connector-curvature="0" /><path
           d="m 633.32,136.53 0.42,1.83 0.41,1.79 0.4,1.75 0.4,1.71 0.39,1.69 0.38,1.65 0.37,1.61 0.37,1.59 0.36,1.55 0.35,1.53 0.34,1.49 0.34,1.46 0.33,1.44 0.33,1.41 0.31,1.38 0.32,1.36 0.3,1.33 0.31,1.3 0.29,1.29 0.29,1.26 0.29,1.24 0.28,1.21 0.27,1.2 0.28,1.17 0.26,1.16 0.26,1.14 0.26,1.12 0.26,1.1 0.25,1.09 0.25,1.07 0.24,1.06 0.24,1.04 0.24,1.03 0.23,1.02 0.23,1.01 0.23,0.99 0.23,0.99 0.23,0.97 0.22,0.97 0.22,0.96 0.22,0.95 0.22,0.94 0.21,0.94 0.22,0.94 0.21,0.93 0.22,0.93 0.21,0.92 0.21,0.93 0.22,0.92 0.21,0.92 0.21,0.92 0.22,0.92 0.21,0.93 0.21,0.93 0.22,0.93 0.21,0.93 0.22,0.94 0.22,0.95 0.22,0.95 0.22,0.96 0.22,0.97 0.23,0.97 0.22,0.99 0.23,0.99 0.24,1.01 0.23,1.02 0.24,1.03 0.24,1.04 0.24,1.06 0.25,1.07 0.25,1.09 0.25,1.1 0.26,1.12 0.27,1.14 0.26,1.15 0.27,1.18 0.28,1.19 0.28,1.22 0.29,1.24 0.29,1.26 0.29,1.28 0.3,1.31 0.31,1.33 0.31,1.36 0.32,1.38 0.33,1.41 0.33,1.43 0.34,1.47 0.34,1.49 0.35,1.52 0.36,1.56 0.37,1.58 0.37,1.62 0.38,1.65 0.39,1.68 0.39,1.72 0.41,1.75 0.41,1.79 0.42,1.82"
           style="fill:none;stroke:#000000;stroke-width:2.95000005;stroke-linecap:butt;stroke-linejoin:round;stroke-miterlimit:1;stroke-dasharray:none;stroke-opacity:1"
           id="path458"
           inkscape:connector-curvature="0" /><path
           d="m 689.42,136.53 -0.42,1.83 -0.41,1.79 -0.41,1.75 -0.39,1.71 -0.39,1.69 -0.38,1.65 -0.37,1.61 -0.37,1.59 -0.36,1.55 -0.35,1.53 -0.34,1.49 -0.34,1.46 -0.33,1.44 -0.33,1.41 -0.31,1.38 -0.32,1.36 -0.3,1.33 -0.31,1.3 -0.29,1.29 -0.29,1.26 -0.29,1.24 -0.28,1.21 -0.27,1.2 -0.28,1.17 -0.26,1.16 -0.26,1.14 -0.26,1.12 -0.26,1.1 -0.25,1.09 -0.25,1.07 -0.24,1.06 -0.24,1.04 -0.24,1.03 -0.23,1.02 -0.23,1.01 -0.23,0.99 -0.23,0.99 -0.23,0.97 -0.22,0.97 -0.22,0.96 -0.22,0.95 -0.22,0.94 -0.21,0.94 -0.22,0.94 -0.22,0.93 -0.21,0.93 -0.21,0.92 -0.22,0.93 -0.21,0.92 -0.21,0.92 -0.21,0.92 -0.22,0.92 -0.21,0.93 -0.21,0.93 -0.22,0.93 -0.21,0.93 -0.22,0.94 -0.22,0.95 -0.22,0.95 -0.22,0.96 -0.22,0.97 -0.23,0.97 -0.22,0.99 -0.23,0.99 -0.24,1.01 -0.23,1.02 -0.24,1.03 -0.24,1.04 -0.24,1.06 -0.25,1.07 -0.25,1.09 -0.25,1.1 -0.26,1.12 -0.27,1.14 -0.26,1.15 -0.27,1.18 -0.28,1.19 -0.28,1.22 -0.29,1.24 -0.29,1.26 -0.29,1.28 -0.3,1.31 -0.31,1.33 -0.31,1.36 -0.32,1.38 -0.33,1.41 -0.33,1.43 -0.34,1.47 -0.34,1.49 -0.35,1.52 -0.36,1.56 -0.37,1.58 -0.37,1.62 -0.38,1.65 -0.39,1.68 -0.39,1.72 -0.41,1.75 -0.41,1.79 -0.42,1.82"
           style="fill:none;stroke:#000000;stroke-width:2.13000011;stroke-linecap:butt;stroke-linejoin:round;stroke-miterlimit:1;stroke-dasharray:none;stroke-opacity:1"
           id="path460"
           inkscape:connector-curvature="0" /><path
           d="m 538.14,14.9 c 0,6.07 4.96,11.03 11.02,11.03 6.06,0 11.02,-4.96 11.02,-11.03 0,-6.06 -4.96,-11.02 -11.02,-11.02 -6.06,0 -11.02,4.96 -11.02,11.02"
           style="fill:#00637c;fill-opacity:1;fill-rule:nonzero;stroke:#000000;stroke-width:0.70999998;stroke-linecap:round;stroke-linejoin:round;stroke-miterlimit:10;stroke-dasharray:none;stroke-opacity:1"
           id="path462"
           inkscape:connector-curvature="0" /><path
           d="m 650.35,14.9 c 0,6.07 4.96,11.03 11.02,11.03 6.06,0 11.02,-4.96 11.02,-11.03 0,-6.06 -4.96,-11.02 -11.02,-11.02 -6.06,0 -11.02,4.96 -11.02,11.02"
           style="fill:#3b9ab2;fill-opacity:1;fill-rule:nonzero;stroke:#000000;stroke-width:0.70999998;stroke-linecap:round;stroke-linejoin:round;stroke-miterlimit:10;stroke-dasharray:none;stroke-opacity:1"
           id="path464"
           inkscape:connector-curvature="0" /><path
           d="m 762.55,14.9 c 0,6.07 4.97,11.03 11.03,11.03 6.06,0 11.02,-4.96 11.02,-11.03 0,-6.06 -4.96,-11.02 -11.02,-11.02 -6.06,0 -11.03,4.96 -11.03,11.02"
           style="fill:#78b7c5;fill-opacity:1;fill-rule:nonzero;stroke:#000000;stroke-width:0.70999998;stroke-linecap:round;stroke-linejoin:round;stroke-miterlimit:10;stroke-dasharray:none;stroke-opacity:1"
           id="path466"
           inkscape:connector-curvature="0" /><path
           d="m 622.29,136.53 c 0,6.07 4.96,11.03 11.03,11.03 6.06,0 11.02,-4.96 11.02,-11.03 0,-6.06 -4.96,-11.02 -11.02,-11.02 -6.07,0 -11.03,4.96 -11.03,11.02"
           style="fill:#ebcc2a;fill-opacity:1;fill-rule:nonzero;stroke:#000000;stroke-width:0.70999998;stroke-linecap:round;stroke-linejoin:round;stroke-miterlimit:10;stroke-dasharray:none;stroke-opacity:1"
           id="path468"
           inkscape:connector-curvature="0" /><path
           d="m 678.4,136.53 c 0,6.07 4.96,11.03 11.02,11.03 6.07,0 11.03,-4.96 11.03,-11.03 0,-6.06 -4.96,-11.02 -11.03,-11.02 -6.06,0 -11.02,4.96 -11.02,11.02"
           style="fill:#e1af00;fill-opacity:1;fill-rule:nonzero;stroke:#000000;stroke-width:0.70999998;stroke-linecap:round;stroke-linejoin:round;stroke-miterlimit:10;stroke-dasharray:none;stroke-opacity:1"
           id="path470"
           inkscape:connector-curvature="0" /><path
           d="m 650.35,258.16 c 0,6.07 4.96,11.03 11.02,11.03 6.06,0 11.02,-4.96 11.02,-11.03 0,-6.06 -4.96,-11.02 -11.02,-11.02 -6.06,0 -11.02,4.96 -11.02,11.02"
           style="fill:#f21a00;fill-opacity:1;fill-rule:nonzero;stroke:#000000;stroke-width:0.70999998;stroke-linecap:round;stroke-linejoin:round;stroke-miterlimit:10;stroke-dasharray:none;stroke-opacity:1"
           id="path472"
           inkscape:connector-curvature="0" /></g></g><g
       id="g474" /><g
       id="g476" /><g
       id="g478" /><g
       id="g480" /><g
       id="g482" /><g
       id="g484" /><g
       id="g486" /><g
       id="g488" /><g
       id="g490" /><g
       id="g492" /><g
       id="g494" /><g
       id="g496" /><g
       id="g498" /><g
       id="g500" /><g
       id="g502" /><g
       id="g504" /><g
       id="g506" /><g
       id="g508" /><g
       id="g510" /><g
       id="g512" /><g
       id="g514" /><g
       id="g516" /><g
       id="g518" /><g
       id="g520" /><g
       id="g522" /><g
       id="g524" /><g
       id="g526" /><g
       id="g528" /><g
       id="g530" /><g
       id="g532" /><g
       id="g534" /><g
       id="g536" /><g
       id="g538" /><g
       id="g540" /><g
       id="g542" /><g
       id="g544" /><g
       id="g546" /><g
       id="g548"><text
         transform="matrix(1,0,0,-1,634.77,278.67)"
         style="font-variant:normal;font-weight:normal;font-size:13px;font-family:Helvetica;-inkscape-font-specification:Helvetica;writing-mode:lr-tb;fill:#000000;fill-opacity:1;fill-rule:nonzero;stroke:none"
         id="text552"><tspan
           x="0 9.3859997 16.354 25.74 28.625999 31.511999 38.740002 45.967999"
           y="0"
           sodipodi:role="line"
           id="tspan550">Rewilded</tspan></text>
</g><g
       id="g554" /><g
       id="g556" /><g
       id="g558" /><g
       id="g560" /><g
       id="g562" /><g
       id="g564" /><g
       id="g566" /><g
       id="g568" /><g
       id="g570" /><g
       id="g572" /><g
       id="g574" /><g
       id="g576" /><g
       id="g578" /><g
       id="g580" /><g
       id="g582" /><g
       id="g584" /><g
       id="g586" /><g
       id="g588" /><g
       id="g590" /><g
       id="g592" /><g
       id="g594" /><g
       id="g596" /><g
       id="g598" /><g
       id="g600" /><g
       id="g602" /><g
       id="g604" /><g
       id="g606" /><g
       id="g608" /><g
       id="g610" /><g
       id="g612" /><g
       id="g614" /><g
       id="g616" /><g
       id="g618" /><g
       id="g620" /><g
       id="g622" /><g
       id="g624" /><g
       id="g626" /><g
       id="g628" /><g
       id="g630" /><g
       id="g632" /><g
       id="g634" /><g
       id="g636" /></g></svg>