<?xml version="1.0" encoding="UTF-8"?>
<svg xmlns="http://www.w3.org/2000/svg" xmlns:xlink="http://www.w3.org/1999/xlink" width="600pt" height="600pt" viewBox="0 0 600 600" version="1.1">
<defs>
<clipPath id="clip1">
  <path d="M 144.980469 41.078125 L 580.207031 41.078125 L 580.207031 461.203125 L 144.980469 461.203125 Z M 144.980469 41.078125 "/>
</clipPath>
<clipPath id="clip2">
  <path d="M 144.980469 41.078125 L 580.207031 41.078125 L 580.207031 461.203125 L 144.980469 461.203125 Z M 144.980469 41.078125 L 336.855469 251.144531 C 336.855469 298.480469 298.480469 336.855469 251.144531 336.855469 C 203.804688 336.855469 165.429688 298.480469 165.429688 251.144531 C 165.429688 203.804688 203.804688 165.429688 251.144531 165.429688 C 298.480469 165.429688 336.855469 203.804688 336.855469 251.144531 Z M 144.980469 41.078125 "/>
</clipPath>
<clipPath id="clip3">
  <path d="M 144.980469 41.078125 L 580.207031 41.078125 L 580.207031 461.203125 L 144.980469 461.203125 Z M 144.980469 41.078125 L 336.855469 251.144531 C 336.855469 298.480469 298.480469 336.855469 251.144531 336.855469 C 203.804688 336.855469 165.429688 298.480469 165.429688 251.144531 C 165.429688 203.804688 203.804688 165.429688 251.144531 165.429688 C 298.480469 165.429688 336.855469 203.804688 336.855469 251.144531 Z M 144.980469 41.078125 "/>
</clipPath>
</defs>
<g id="surface5">
<g clip-path="url(#clip1)" clip-rule="nonzero">
<g clip-path="url(#clip2)" clip-rule="evenodd">
<g clip-path="url(#clip3)" clip-rule="evenodd">
<path style="fill:none;stroke-width:0.175439;stroke-linecap:butt;stroke-linejoin:miter;stroke:rgb(55.294118%,82.745098%,78.039216%);stroke-opacity:0.8;stroke-miterlimit:10;" d="M 0.126214 0.784211 C 0.36979 0.246091 0.80601 -0.19013 1.344091 -0.19013 C 1.882211 -0.19013 2.318392 0.246091 2.318392 0.784211 C 2.318392 1.322291 1.882211 1.758512 1.344091 1.758512 C 0.80601 1.758512 0.36979 1.322291 0.126214 0.784211 " transform="matrix(97.714286,0,0,97.714286,238.811575,174.515921)"/>
</g>
</g>
</g>
<path style="fill-rule:nonzero;fill:rgb(55.294118%,82.745098%,78.039216%);fill-opacity:1;stroke-width:0.175439;stroke-linecap:butt;stroke-linejoin:miter;stroke:rgb(55.294118%,82.745098%,78.039216%);stroke-opacity:1;stroke-miterlimit:10;" d="M 0.877176 0.0000171327 C 0.877176 0.484449 0.484449 0.877176 0.0000171327 0.877176 C -0.484455 0.877176 -0.877182 0.484449 -0.877182 0.0000171327 C -0.877182 -0.484455 -0.484455 -0.877182 0.0000171327 -0.877182 C 0.484449 -0.877182 0.877176 -0.484455 0.877176 0.0000171327 Z M 0.877176 0.0000171327 " transform="matrix(97.714286,0,0,97.714286,251.142857,251.142857)"/>
</g>
</svg>
