<?xml version="1.0" encoding="UTF-8"?>
<svg xmlns="http://www.w3.org/2000/svg" xmlns:xlink="http://www.w3.org/1999/xlink" width="600pt" height="600pt" viewBox="0 0 600 600" version="1.1">
<defs>
<clipPath id="clip1">
  <path d="M 293 253.285156 L 501 253.285156 L 501 487.402344 L 293 487.402344 Z M 293 253.285156 "/>
</clipPath>
<clipPath id="clip2">
  <path d="M 268.839844 253.285156 L 525.53125 253.285156 L 525.53125 487.402344 L 268.839844 487.402344 Z M 268.839844 253.285156 L 451.109375 449.363281 C 451.109375 464.332031 438.976562 476.46875 424.003906 476.46875 C 409.035156 476.46875 396.902344 464.332031 396.902344 449.363281 C 396.902344 434.390625 409.035156 422.257812 424.003906 422.257812 C 438.976562 422.257812 451.109375 434.390625 451.109375 449.363281 Z M 268.839844 253.285156 "/>
</clipPath>
<clipPath id="clip3">
  <path d="M 268.839844 253.285156 L 525.53125 253.285156 L 525.53125 487.402344 L 268.839844 487.402344 Z M 268.839844 253.285156 L 397.472656 291.324219 C 397.472656 306.292969 385.339844 318.429688 370.367188 318.429688 C 355.398438 318.429688 343.261719 306.292969 343.261719 291.324219 C 343.261719 276.351562 355.398438 264.21875 370.367188 264.21875 C 385.339844 264.21875 397.472656 276.351562 397.472656 291.324219 Z M 268.839844 253.285156 "/>
</clipPath>
<clipPath id="clip4">
  <path d="M 355.898438 198 L 563.417969 198 L 563.417969 368 L 355.898438 368 Z M 355.898438 198 "/>
</clipPath>
<clipPath id="clip5">
  <path d="M 355.898438 168.835938 L 563.417969 168.835938 L 563.417969 397.832031 L 355.898438 397.832031 Z M 355.898438 168.835938 L 576.054688 275.34375 C 576.054688 290.3125 563.917969 302.445312 548.949219 302.445312 C 533.980469 302.445312 521.84375 290.3125 521.84375 275.34375 C 521.84375 260.371094 533.980469 248.238281 548.949219 248.238281 C 563.917969 248.238281 576.054688 260.371094 576.054688 275.34375 Z M 355.898438 168.835938 "/>
</clipPath>
<clipPath id="clip6">
  <path d="M 355.898438 168.835938 L 563.417969 168.835938 L 563.417969 397.832031 L 355.898438 397.832031 Z M 355.898438 168.835938 L 397.472656 291.324219 C 397.472656 306.292969 385.339844 318.429688 370.367188 318.429688 C 355.398438 318.429688 343.261719 306.292969 343.261719 291.324219 C 343.261719 276.351562 355.398438 264.21875 370.367188 264.21875 C 385.339844 264.21875 397.472656 276.351562 397.472656 291.324219 Z M 355.898438 168.835938 "/>
</clipPath>
<clipPath id="clip7">
  <path d="M 293 78.554688 L 519 78.554688 L 519 336.34375 L 293 336.34375 Z M 293 78.554688 "/>
</clipPath>
<clipPath id="clip8">
  <path d="M 271.5 78.554688 L 540.320312 78.554688 L 540.320312 336.34375 L 271.5 336.34375 Z M 271.5 78.554688 L 468.558594 123.574219 C 468.558594 138.542969 456.421875 150.679688 441.453125 150.679688 C 426.480469 150.679688 414.347656 138.542969 414.347656 123.574219 C 414.347656 108.605469 426.480469 96.46875 441.453125 96.46875 C 456.421875 96.46875 468.558594 108.605469 468.558594 123.574219 Z M 271.5 78.554688 "/>
</clipPath>
<clipPath id="clip9">
  <path d="M 271.5 78.554688 L 540.320312 78.554688 L 540.320312 336.34375 L 271.5 336.34375 Z M 271.5 78.554688 L 397.472656 291.324219 C 397.472656 306.292969 385.339844 318.429688 370.367188 318.429688 C 355.398438 318.429688 343.261719 306.292969 343.261719 291.324219 C 343.261719 276.351562 355.398438 264.21875 370.367188 264.21875 C 385.339844 264.21875 397.472656 276.351562 397.472656 291.324219 Z M 271.5 78.554688 "/>
</clipPath>
<clipPath id="clip10">
  <path d="M 98 184 L 281 184 L 281 448 L 98 448 Z M 98 184 "/>
</clipPath>
<clipPath id="clip11">
  <path d="M 97.238281 178.054688 L 311.019531 178.054688 L 311.019531 448.632812 L 97.238281 448.632812 Z M 97.238281 178.054688 L 201.910156 261.066406 C 201.910156 276.035156 189.773438 288.171875 174.804688 288.171875 C 159.832031 288.171875 147.699219 276.035156 147.699219 261.066406 C 147.699219 246.097656 159.832031 233.960938 174.804688 233.960938 C 189.773438 233.960938 201.910156 246.097656 201.910156 261.066406 Z M 97.238281 178.054688 "/>
</clipPath>
<clipPath id="clip12">
  <path d="M 97.238281 178.054688 L 311.019531 178.054688 L 311.019531 448.632812 L 97.238281 448.632812 Z M 97.238281 178.054688 L 206.328125 371.121094 C 206.328125 386.089844 194.195312 398.226562 179.222656 398.226562 C 164.253906 398.226562 152.117188 386.089844 152.117188 371.121094 C 152.117188 356.148438 164.253906 344.015625 179.222656 344.015625 C 194.195312 344.015625 206.328125 356.148438 206.328125 371.121094 Z M 97.238281 178.054688 "/>
</clipPath>
<clipPath id="clip13">
  <path d="M 153.863281 184 L 391.308594 184 L 391.308594 368 L 153.863281 368 Z M 153.863281 184 "/>
</clipPath>
<clipPath id="clip14">
  <path d="M 153.863281 155.347656 L 391.308594 155.347656 L 391.308594 397.042969 L 153.863281 397.042969 Z M 153.863281 155.347656 L 201.910156 261.066406 C 201.910156 276.035156 189.773438 288.171875 174.804688 288.171875 C 159.832031 288.171875 147.699219 276.035156 147.699219 261.066406 C 147.699219 246.097656 159.832031 233.960938 174.804688 233.960938 C 189.773438 233.960938 201.910156 246.097656 201.910156 261.066406 Z M 153.863281 155.347656 "/>
</clipPath>
<clipPath id="clip15">
  <path d="M 153.863281 155.347656 L 391.308594 155.347656 L 391.308594 397.042969 L 153.863281 397.042969 Z M 153.863281 155.347656 L 397.472656 291.324219 C 397.472656 306.292969 385.339844 318.429688 370.367188 318.429688 C 355.398438 318.429688 343.261719 306.292969 343.261719 291.324219 C 343.261719 276.351562 355.398438 264.21875 370.367188 264.21875 C 385.339844 264.21875 397.472656 276.351562 397.472656 291.324219 Z M 153.863281 155.347656 "/>
</clipPath>
<clipPath id="clip16">
  <path d="M 73 184 L 256 184 L 256 448 L 73 448 Z M 73 184 "/>
</clipPath>
<clipPath id="clip17">
  <path d="M 42.984375 183.550781 L 256.78125 183.550781 L 256.78125 454.132812 L 42.984375 454.132812 Z M 42.984375 183.550781 L 201.910156 261.066406 C 201.910156 276.035156 189.773438 288.171875 174.804688 288.171875 C 159.832031 288.171875 147.699219 276.035156 147.699219 261.066406 C 147.699219 246.097656 159.832031 233.960938 174.804688 233.960938 C 189.773438 233.960938 201.910156 246.097656 201.910156 261.066406 Z M 42.984375 183.550781 "/>
</clipPath>
<clipPath id="clip18">
  <path d="M 42.984375 183.550781 L 256.78125 183.550781 L 256.78125 454.132812 L 42.984375 454.132812 Z M 42.984375 183.550781 L 206.328125 371.121094 C 206.328125 386.089844 194.195312 398.226562 179.222656 398.226562 C 164.253906 398.226562 152.117188 386.089844 152.117188 371.121094 C 152.117188 356.148438 164.253906 344.015625 179.222656 344.015625 C 194.195312 344.015625 206.328125 356.148438 206.328125 371.121094 Z M 42.984375 183.550781 "/>
</clipPath>
<clipPath id="clip19">
  <path d="M 0 288 L 216.023438 288 L 216.023438 475.484375 L 0 475.484375 Z M 0 288 "/>
</clipPath>
<clipPath id="clip20">
  <path d="M -45.410156 258.453125 L 216.023438 258.453125 L 216.023438 475.484375 L -45.410156 475.484375 Z M -45.410156 258.453125 L 78.15625 425.210938 C 78.15625 440.179688 66.019531 452.316406 51.050781 452.316406 C 36.082031 452.316406 23.945312 440.179688 23.945312 425.210938 C 23.945312 410.242188 36.082031 398.105469 51.050781 398.105469 C 66.019531 398.105469 78.15625 410.242188 78.15625 425.210938 Z M -45.410156 258.453125 "/>
</clipPath>
<clipPath id="clip21">
  <path d="M -45.410156 258.453125 L 216.023438 258.453125 L 216.023438 475.484375 L -45.410156 475.484375 Z M -45.410156 258.453125 L 206.328125 371.121094 C 206.328125 386.089844 194.195312 398.226562 179.222656 398.226562 C 164.253906 398.226562 152.117188 386.089844 152.117188 371.121094 C 152.117188 356.148438 164.253906 344.015625 179.222656 344.015625 C 194.195312 344.015625 206.328125 356.148438 206.328125 371.121094 Z M -45.410156 258.453125 "/>
</clipPath>
<clipPath id="clip22">
  <path d="M 14.25 320.847656 L 256 320.847656 L 256 508 L 14.25 508 Z M 14.25 320.847656 "/>
</clipPath>
<clipPath id="clip23">
  <path d="M 14.25 320.847656 L 275.683594 320.847656 L 275.683594 537.855469 L 14.25 537.855469 Z M 14.25 320.847656 L 78.15625 425.210938 C 78.15625 440.179688 66.019531 452.316406 51.050781 452.316406 C 36.082031 452.316406 23.945312 440.179688 23.945312 425.210938 C 23.945312 410.242188 36.082031 398.105469 51.050781 398.105469 C 66.019531 398.105469 78.15625 410.242188 78.15625 425.210938 Z M 14.25 320.847656 "/>
</clipPath>
<clipPath id="clip24">
  <path d="M 14.25 320.847656 L 275.683594 320.847656 L 275.683594 537.855469 L 14.25 537.855469 Z M 14.25 320.847656 L 206.328125 371.121094 C 206.328125 386.089844 194.195312 398.226562 179.222656 398.226562 C 164.253906 398.226562 152.117188 386.089844 152.117188 371.121094 C 152.117188 356.148438 164.253906 344.015625 179.222656 344.015625 C 194.195312 344.015625 206.328125 356.148438 206.328125 371.121094 Z M 14.25 320.847656 "/>
</clipPath>
<clipPath id="clip25">
  <path d="M 161.191406 294 L 353.042969 294 L 353.042969 468 L 161.191406 468 Z M 161.191406 294 "/>
</clipPath>
<clipPath id="clip26">
  <path d="M 161.191406 264.996094 L 353.042969 264.996094 L 353.042969 496.753906 L 161.191406 496.753906 Z M 161.191406 264.996094 L 362.117188 390.628906 C 362.117188 405.597656 349.980469 417.734375 335.011719 417.734375 C 320.042969 417.734375 307.90625 405.597656 307.90625 390.628906 C 307.90625 375.660156 320.042969 363.523438 335.011719 363.523438 C 349.980469 363.523438 362.117188 375.660156 362.117188 390.628906 Z M 161.191406 264.996094 "/>
</clipPath>
<clipPath id="clip27">
  <path d="M 161.191406 264.996094 L 353.042969 264.996094 L 353.042969 496.753906 L 161.191406 496.753906 Z M 161.191406 264.996094 L 206.328125 371.121094 C 206.328125 386.089844 194.195312 398.226562 179.222656 398.226562 C 164.253906 398.226562 152.117188 386.089844 152.117188 371.121094 C 152.117188 356.148438 164.253906 344.015625 179.222656 344.015625 C 194.195312 344.015625 206.328125 356.148438 206.328125 371.121094 Z M 161.191406 264.996094 "/>
</clipPath>
<clipPath id="clip28">
  <path d="M 303.214844 310 L 501 310 L 501 494.191406 L 303.214844 494.191406 Z M 303.214844 310 "/>
</clipPath>
<clipPath id="clip29">
  <path d="M 303.214844 280.386719 L 529.90625 280.386719 L 529.90625 494.191406 L 303.214844 494.191406 Z M 303.214844 280.386719 L 362.117188 390.628906 C 362.117188 405.597656 349.980469 417.734375 335.011719 417.734375 C 320.042969 417.734375 307.90625 405.597656 307.90625 390.628906 C 307.90625 375.660156 320.042969 363.523438 335.011719 363.523438 C 349.980469 363.523438 362.117188 375.660156 362.117188 390.628906 Z M 303.214844 280.386719 "/>
</clipPath>
<clipPath id="clip30">
  <path d="M 303.214844 280.386719 L 529.90625 280.386719 L 529.90625 494.191406 L 303.214844 494.191406 Z M 303.214844 280.386719 L 451.109375 449.363281 C 451.109375 464.332031 438.976562 476.46875 424.003906 476.46875 C 409.035156 476.46875 396.902344 464.332031 396.902344 449.363281 C 396.902344 434.390625 409.035156 422.257812 424.003906 422.257812 C 438.976562 422.257812 451.109375 434.390625 451.109375 449.363281 Z M 303.214844 280.386719 "/>
</clipPath>
<clipPath id="clip31">
  <path d="M 258 345.785156 L 455.804688 345.785156 L 455.804688 530 L 258 530 Z M 258 345.785156 "/>
</clipPath>
<clipPath id="clip32">
  <path d="M 229.109375 345.785156 L 455.804688 345.785156 L 455.804688 559.589844 L 229.109375 559.589844 Z M 229.109375 345.785156 L 362.117188 390.628906 C 362.117188 405.597656 349.980469 417.734375 335.011719 417.734375 C 320.042969 417.734375 307.90625 405.597656 307.90625 390.628906 C 307.90625 375.660156 320.042969 363.523438 335.011719 363.523438 C 349.980469 363.523438 362.117188 375.660156 362.117188 390.628906 Z M 229.109375 345.785156 "/>
</clipPath>
<clipPath id="clip33">
  <path d="M 229.109375 345.785156 L 455.804688 345.785156 L 455.804688 559.589844 L 229.109375 559.589844 Z M 229.109375 345.785156 L 451.109375 449.363281 C 451.109375 464.332031 438.976562 476.46875 424.003906 476.46875 C 409.035156 476.46875 396.902344 464.332031 396.902344 449.363281 C 396.902344 434.390625 409.035156 422.257812 424.003906 422.257812 C 438.976562 422.257812 451.109375 434.390625 451.109375 449.363281 Z M 229.109375 345.785156 "/>
</clipPath>
<clipPath id="clip34">
  <path d="M 258 251.863281 L 448 251.863281 L 448 430.089844 L 258 430.089844 Z M 258 251.863281 "/>
</clipPath>
<clipPath id="clip35">
  <path d="M 233.980469 251.863281 L 471.398438 251.863281 L 471.398438 430.089844 L 233.980469 430.089844 Z M 233.980469 251.863281 L 362.117188 390.628906 C 362.117188 405.597656 349.980469 417.734375 335.011719 417.734375 C 320.042969 417.734375 307.90625 405.597656 307.90625 390.628906 C 307.90625 375.660156 320.042969 363.523438 335.011719 363.523438 C 349.980469 363.523438 362.117188 375.660156 362.117188 390.628906 Z M 233.980469 251.863281 "/>
</clipPath>
<clipPath id="clip36">
  <path d="M 233.980469 251.863281 L 471.398438 251.863281 L 471.398438 430.089844 L 233.980469 430.089844 Z M 233.980469 251.863281 L 397.472656 291.324219 C 397.472656 306.292969 385.339844 318.429688 370.367188 318.429688 C 355.398438 318.429688 343.261719 306.292969 343.261719 291.324219 C 343.261719 276.351562 355.398438 264.21875 370.367188 264.21875 C 385.339844 264.21875 397.472656 276.351562 397.472656 291.324219 Z M 233.980469 251.863281 "/>
</clipPath>
<clipPath id="clip37">
  <path d="M 102 161.128906 L 354 161.128906 L 354 432.183594 L 102 432.183594 Z M 102 161.128906 "/>
</clipPath>
<clipPath id="clip38">
  <path d="M 88.921875 161.128906 L 367.148438 161.128906 L 367.148438 432.183594 L 88.921875 432.183594 Z M 88.921875 161.128906 L 303.953125 222.191406 C 303.953125 237.160156 291.816406 249.296875 276.847656 249.296875 C 261.878906 249.296875 249.742188 237.160156 249.742188 222.191406 C 249.742188 207.222656 261.878906 195.085938 276.847656 195.085938 C 291.816406 195.085938 303.953125 207.222656 303.953125 222.191406 Z M 88.921875 161.128906 "/>
</clipPath>
<clipPath id="clip39">
  <path d="M 88.921875 161.128906 L 367.148438 161.128906 L 367.148438 432.183594 L 88.921875 432.183594 Z M 88.921875 161.128906 L 206.328125 371.121094 C 206.328125 386.089844 194.195312 398.226562 179.222656 398.226562 C 164.253906 398.226562 152.117188 386.089844 152.117188 371.121094 C 152.117188 356.148438 164.253906 344.015625 179.222656 344.015625 C 194.195312 344.015625 206.328125 356.148438 206.328125 371.121094 Z M 88.921875 161.128906 "/>
</clipPath>
<clipPath id="clip40">
  <path d="M 254.609375 144 L 448 144 L 448 327.699219 L 254.609375 327.699219 Z M 254.609375 144 "/>
</clipPath>
<clipPath id="clip41">
  <path d="M 254.609375 113.816406 L 476.40625 113.816406 L 476.40625 327.699219 L 254.609375 327.699219 Z M 254.609375 113.816406 L 303.953125 222.191406 C 303.953125 237.160156 291.816406 249.296875 276.847656 249.296875 C 261.878906 249.296875 249.742188 237.160156 249.742188 222.191406 C 249.742188 207.222656 261.878906 195.085938 276.847656 195.085938 C 291.816406 195.085938 303.953125 207.222656 303.953125 222.191406 Z M 254.609375 113.816406 "/>
</clipPath>
<clipPath id="clip42">
  <path d="M 254.609375 113.816406 L 476.40625 113.816406 L 476.40625 327.699219 L 254.609375 327.699219 Z M 254.609375 113.816406 L 397.472656 291.324219 C 397.472656 306.292969 385.339844 318.429688 370.367188 318.429688 C 355.398438 318.429688 343.261719 306.292969 343.261719 291.324219 C 343.261719 276.351562 355.398438 264.21875 370.367188 264.21875 C 385.339844 264.21875 397.472656 276.351562 397.472656 291.324219 Z M 254.609375 113.816406 "/>
</clipPath>
<clipPath id="clip43">
  <path d="M 200 185.816406 L 392.597656 185.816406 L 392.597656 370 L 200 370 Z M 200 185.816406 "/>
</clipPath>
<clipPath id="clip44">
  <path d="M 170.808594 185.816406 L 392.597656 185.816406 L 392.597656 399.6875 L 170.808594 399.6875 Z M 170.808594 185.816406 L 303.953125 222.191406 C 303.953125 237.160156 291.816406 249.296875 276.847656 249.296875 C 261.878906 249.296875 249.742188 237.160156 249.742188 222.191406 C 249.742188 207.222656 261.878906 195.085938 276.847656 195.085938 C 291.816406 195.085938 303.953125 207.222656 303.953125 222.191406 Z M 170.808594 185.816406 "/>
</clipPath>
<clipPath id="clip45">
  <path d="M 170.808594 185.816406 L 392.597656 185.816406 L 392.597656 399.6875 L 170.808594 399.6875 Z M 170.808594 185.816406 L 397.472656 291.324219 C 397.472656 306.292969 385.339844 318.429688 370.367188 318.429688 C 355.398438 318.429688 343.261719 306.292969 343.261719 291.324219 C 343.261719 276.351562 355.398438 264.21875 370.367188 264.21875 C 385.339844 264.21875 397.472656 276.351562 397.472656 291.324219 Z M 170.808594 185.816406 "/>
</clipPath>
<clipPath id="clip46">
  <path d="M 102.984375 294 L 363.558594 294 L 363.558594 554 L 102.984375 554 Z M 102.984375 294 "/>
</clipPath>
<clipPath id="clip47">
  <path d="M 102.984375 293.003906 L 363.558594 293.003906 L 363.558594 554.542969 L 102.984375 554.542969 Z M 102.984375 293.003906 L 314.425781 476.425781 C 314.425781 491.394531 302.292969 503.53125 287.320312 503.53125 C 272.351562 503.53125 260.214844 491.394531 260.214844 476.425781 C 260.214844 461.457031 272.351562 449.320312 287.320312 449.320312 C 302.292969 449.320312 314.425781 461.457031 314.425781 476.425781 Z M 102.984375 293.003906 "/>
</clipPath>
<clipPath id="clip48">
  <path d="M 102.984375 293.003906 L 363.558594 293.003906 L 363.558594 554.542969 L 102.984375 554.542969 Z M 102.984375 293.003906 L 206.328125 371.121094 C 206.328125 386.089844 194.195312 398.226562 179.222656 398.226562 C 164.253906 398.226562 152.117188 386.089844 152.117188 371.121094 C 152.117188 356.148438 164.253906 344.015625 179.222656 344.015625 C 194.195312 344.015625 206.328125 356.148438 206.328125 371.121094 Z M 102.984375 293.003906 "/>
</clipPath>
<clipPath id="clip49">
  <path d="M 210 244.359375 L 448 244.359375 L 448 523.390625 L 210 523.390625 Z M 210 244.359375 "/>
</clipPath>
<clipPath id="clip50">
  <path d="M 189.300781 244.359375 L 468.386719 244.359375 L 468.386719 523.390625 L 189.300781 523.390625 Z M 189.300781 244.359375 L 314.425781 476.425781 C 314.425781 491.394531 302.292969 503.53125 287.320312 503.53125 C 272.351562 503.53125 260.214844 491.394531 260.214844 476.425781 C 260.214844 461.457031 272.351562 449.320312 287.320312 449.320312 C 302.292969 449.320312 314.425781 461.457031 314.425781 476.425781 Z M 189.300781 244.359375 "/>
</clipPath>
<clipPath id="clip51">
  <path d="M 189.300781 244.359375 L 468.386719 244.359375 L 468.386719 523.390625 L 189.300781 523.390625 Z M 189.300781 244.359375 L 397.472656 291.324219 C 397.472656 306.292969 385.339844 318.429688 370.367188 318.429688 C 355.398438 318.429688 343.261719 306.292969 343.261719 291.324219 C 343.261719 276.351562 355.398438 264.21875 370.367188 264.21875 C 385.339844 264.21875 397.472656 276.351562 397.472656 291.324219 Z M 189.300781 244.359375 "/>
</clipPath>
<clipPath id="clip52">
  <path d="M 262.1875 372 L 449.136719 372 L 449.136719 554 L 262.1875 554 Z M 262.1875 372 "/>
</clipPath>
<clipPath id="clip53">
  <path d="M 262.1875 344.386719 L 449.136719 344.386719 L 449.136719 581.402344 L 262.1875 581.402344 Z M 262.1875 344.386719 L 314.425781 476.425781 C 314.425781 491.394531 302.292969 503.53125 287.320312 503.53125 C 272.351562 503.53125 260.214844 491.394531 260.214844 476.425781 C 260.214844 461.457031 272.351562 449.320312 287.320312 449.320312 C 302.292969 449.320312 314.425781 461.457031 314.425781 476.425781 Z M 262.1875 344.386719 "/>
</clipPath>
<clipPath id="clip54">
  <path d="M 262.1875 344.386719 L 449.136719 344.386719 L 449.136719 581.402344 L 262.1875 581.402344 Z M 262.1875 344.386719 L 451.109375 449.363281 C 451.109375 464.332031 438.976562 476.46875 424.003906 476.46875 C 409.035156 476.46875 396.902344 464.332031 396.902344 449.363281 C 396.902344 434.390625 409.035156 422.257812 424.003906 422.257812 C 438.976562 422.257812 451.109375 434.390625 451.109375 449.363281 Z M 262.1875 344.386719 "/>
</clipPath>
</defs>
<g id="surface1">
<g clip-path="url(#clip1)" clip-rule="nonzero">
<g clip-path="url(#clip2)" clip-rule="evenodd">
<g clip-path="url(#clip3)" clip-rule="evenodd">
<path style="fill:none;stroke-width:0.0534151;stroke-linecap:butt;stroke-linejoin:miter;stroke:rgb(55.294118%,82.745098%,78.039216%);stroke-opacity:0.8;stroke-miterlimit:10;" d="M -2.17367 9.974373 L -2.702168 8.417169 " transform="matrix(101.488965,0,0,101.488965,644.60741,-562.925517)"/>
</g>
</g>
</g>
<g clip-path="url(#clip4)" clip-rule="nonzero">
<g clip-path="url(#clip5)" clip-rule="evenodd">
<g clip-path="url(#clip6)" clip-rule="evenodd">
<path style="fill:none;stroke-width:0.0534151;stroke-linecap:butt;stroke-linejoin:miter;stroke:rgb(55.294118%,82.745098%,78.039216%);stroke-opacity:0.8;stroke-miterlimit:10;" d="M -0.942548 8.259709 L -2.702168 8.417169 " transform="matrix(101.488965,0,0,101.488965,644.60741,-562.925517)"/>
</g>
</g>
</g>
<g clip-path="url(#clip7)" clip-rule="nonzero">
<g clip-path="url(#clip8)" clip-rule="evenodd">
<g clip-path="url(#clip9)" clip-rule="evenodd">
<path style="fill:none;stroke-width:0.0534151;stroke-linecap:butt;stroke-linejoin:miter;stroke:rgb(55.294118%,82.745098%,78.039216%);stroke-opacity:0.8;stroke-miterlimit:10;" d="M -2.001738 6.76428 L -2.702168 8.417169 " transform="matrix(101.488965,0,0,101.488965,644.60741,-562.925517)"/>
</g>
</g>
</g>
<g clip-path="url(#clip10)" clip-rule="nonzero">
<g clip-path="url(#clip11)" clip-rule="evenodd">
<g clip-path="url(#clip12)" clip-rule="evenodd">
<path style="fill:none;stroke-width:0.0534151;stroke-linecap:butt;stroke-linejoin:miter;stroke:rgb(55.294118%,82.745098%,78.039216%);stroke-opacity:0.8;stroke-miterlimit:10;" d="M -4.629102 8.11903 C -4.260219 8.430063 -4.242822 8.8638 -4.58557 9.20343 " transform="matrix(101.488965,0,0,101.488965,644.60741,-562.925517)"/>
</g>
</g>
</g>
<g clip-path="url(#clip13)" clip-rule="nonzero">
<g clip-path="url(#clip14)" clip-rule="evenodd">
<g clip-path="url(#clip15)" clip-rule="evenodd">
<path style="fill:none;stroke-width:0.0534151;stroke-linecap:butt;stroke-linejoin:miter;stroke:rgb(55.294118%,82.745098%,78.039216%);stroke-opacity:0.8;stroke-miterlimit:10;" d="M -4.629102 8.11903 L -2.702168 8.417169 " transform="matrix(101.488965,0,0,101.488965,644.60741,-562.925517)"/>
</g>
</g>
</g>
<g clip-path="url(#clip16)" clip-rule="nonzero">
<g clip-path="url(#clip17)" clip-rule="evenodd">
<g clip-path="url(#clip18)" clip-rule="evenodd">
<path style="fill:none;stroke-width:0.0534151;stroke-linecap:butt;stroke-linejoin:miter;stroke:rgb(55.294118%,82.745098%,78.039216%);stroke-opacity:0.8;stroke-miterlimit:10;" d="M -4.629102 8.11903 C -4.97185 8.458622 -4.954452 8.892397 -4.58557 9.20343 " transform="matrix(101.488965,0,0,101.488965,644.60741,-562.925517)"/>
</g>
</g>
</g>
<g clip-path="url(#clip19)" clip-rule="nonzero">
<g clip-path="url(#clip20)" clip-rule="evenodd">
<g clip-path="url(#clip21)" clip-rule="evenodd">
<path style="fill:none;stroke-width:0.0534151;stroke-linecap:butt;stroke-linejoin:miter;stroke:rgb(55.294118%,82.745098%,78.039216%);stroke-opacity:0.8;stroke-miterlimit:10;" d="M -5.848484 9.736393 C -5.60808 9.248424 -5.102906 9.035232 -4.58557 9.20343 " transform="matrix(101.488965,0,0,101.488965,644.60741,-562.925517)"/>
</g>
</g>
</g>
<g clip-path="url(#clip22)" clip-rule="nonzero">
<g clip-path="url(#clip23)" clip-rule="evenodd">
<g clip-path="url(#clip24)" clip-rule="evenodd">
<path style="fill:none;stroke-width:0.0534151;stroke-linecap:butt;stroke-linejoin:miter;stroke:rgb(55.294118%,82.745098%,78.039216%);stroke-opacity:0.8;stroke-miterlimit:10;" d="M -5.848484 9.736393 C -5.331148 9.904592 -4.825975 9.691399 -4.58557 9.20343 " transform="matrix(101.488965,0,0,101.488965,644.60741,-562.925517)"/>
</g>
</g>
</g>
<g clip-path="url(#clip25)" clip-rule="nonzero">
<g clip-path="url(#clip26)" clip-rule="evenodd">
<g clip-path="url(#clip27)" clip-rule="evenodd">
<path style="fill:none;stroke-width:0.0534151;stroke-linecap:butt;stroke-linejoin:miter;stroke:rgb(55.294118%,82.745098%,78.039216%);stroke-opacity:0.8;stroke-miterlimit:10;" d="M -3.050536 9.395646 L -4.58557 9.20343 " transform="matrix(101.488965,0,0,101.488965,644.60741,-562.925517)"/>
</g>
</g>
</g>
<g clip-path="url(#clip28)" clip-rule="nonzero">
<g clip-path="url(#clip29)" clip-rule="evenodd">
<g clip-path="url(#clip30)" clip-rule="evenodd">
<path style="fill:none;stroke-width:0.0534151;stroke-linecap:butt;stroke-linejoin:miter;stroke:rgb(55.294118%,82.745098%,78.039216%);stroke-opacity:0.8;stroke-miterlimit:10;" d="M -3.050536 9.395646 C -2.591318 9.272057 -2.240564 9.503532 -2.17367 9.974373 " transform="matrix(101.488965,0,0,101.488965,644.60741,-562.925517)"/>
</g>
</g>
</g>
<g clip-path="url(#clip31)" clip-rule="nonzero">
<g clip-path="url(#clip32)" clip-rule="evenodd">
<g clip-path="url(#clip33)" clip-rule="evenodd">
<path style="fill:none;stroke-width:0.0534151;stroke-linecap:butt;stroke-linejoin:miter;stroke:rgb(55.294118%,82.745098%,78.039216%);stroke-opacity:0.8;stroke-miterlimit:10;" d="M -3.050536 9.395646 C -2.983602 9.866449 -2.632848 10.097963 -2.17367 9.974373 " transform="matrix(101.488965,0,0,101.488965,644.60741,-562.925517)"/>
</g>
</g>
</g>
<g clip-path="url(#clip34)" clip-rule="nonzero">
<g clip-path="url(#clip35)" clip-rule="evenodd">
<g clip-path="url(#clip36)" clip-rule="evenodd">
<path style="fill:none;stroke-width:0.0534151;stroke-linecap:butt;stroke-linejoin:miter;stroke:rgb(55.294118%,82.745098%,78.039216%);stroke-opacity:0.8;stroke-miterlimit:10;" d="M -3.050536 9.395646 L -2.702168 8.417169 " transform="matrix(101.488965,0,0,101.488965,644.60741,-562.925517)"/>
</g>
</g>
</g>
<g clip-path="url(#clip37)" clip-rule="nonzero">
<g clip-path="url(#clip38)" clip-rule="evenodd">
<g clip-path="url(#clip39)" clip-rule="evenodd">
<path style="fill:none;stroke-width:0.0534151;stroke-linecap:butt;stroke-linejoin:miter;stroke:rgb(55.294118%,82.745098%,78.039216%);stroke-opacity:0.8;stroke-miterlimit:10;" d="M -3.623643 7.735983 L -4.58557 9.20343 " transform="matrix(101.488965,0,0,101.488965,644.60741,-562.925517)"/>
</g>
</g>
</g>
<g clip-path="url(#clip40)" clip-rule="nonzero">
<g clip-path="url(#clip41)" clip-rule="evenodd">
<g clip-path="url(#clip42)" clip-rule="evenodd">
<path style="fill:none;stroke-width:0.0534151;stroke-linecap:butt;stroke-linejoin:miter;stroke:rgb(55.294118%,82.745098%,78.039216%);stroke-opacity:0.8;stroke-miterlimit:10;" d="M -3.623643 7.735983 C -3.13552 7.653962 -2.766907 7.926429 -2.702168 8.417169 " transform="matrix(101.488965,0,0,101.488965,644.60741,-562.925517)"/>
</g>
</g>
</g>
<g clip-path="url(#clip43)" clip-rule="nonzero">
<g clip-path="url(#clip44)" clip-rule="evenodd">
<g clip-path="url(#clip45)" clip-rule="evenodd">
<path style="fill:none;stroke-width:0.0534151;stroke-linecap:butt;stroke-linejoin:miter;stroke:rgb(55.294118%,82.745098%,78.039216%);stroke-opacity:0.8;stroke-miterlimit:10;" d="M -3.623643 7.735983 C -3.558865 8.226685 -3.190291 8.499151 -2.702168 8.417169 " transform="matrix(101.488965,0,0,101.488965,644.60741,-562.925517)"/>
</g>
</g>
</g>
<g clip-path="url(#clip46)" clip-rule="nonzero">
<g clip-path="url(#clip47)" clip-rule="evenodd">
<g clip-path="url(#clip48)" clip-rule="evenodd">
<path style="fill:none;stroke-width:0.0534151;stroke-linecap:butt;stroke-linejoin:miter;stroke:rgb(55.294118%,82.745098%,78.039216%);stroke-opacity:0.8;stroke-miterlimit:10;" d="M -3.520453 10.241028 L -4.58557 9.20343 " transform="matrix(101.488965,0,0,101.488965,644.60741,-562.925517)"/>
</g>
</g>
</g>
<g clip-path="url(#clip49)" clip-rule="nonzero">
<g clip-path="url(#clip50)" clip-rule="evenodd">
<g clip-path="url(#clip51)" clip-rule="evenodd">
<path style="fill:none;stroke-width:0.0534151;stroke-linecap:butt;stroke-linejoin:miter;stroke:rgb(55.294118%,82.745098%,78.039216%);stroke-opacity:0.8;stroke-miterlimit:10;" d="M -3.520453 10.241028 L -2.702168 8.417169 " transform="matrix(101.488965,0,0,101.488965,644.60741,-562.925517)"/>
</g>
</g>
</g>
<g clip-path="url(#clip52)" clip-rule="nonzero">
<g clip-path="url(#clip53)" clip-rule="evenodd">
<g clip-path="url(#clip54)" clip-rule="evenodd">
<path style="fill:none;stroke-width:0.0534151;stroke-linecap:butt;stroke-linejoin:miter;stroke:rgb(55.294118%,82.745098%,78.039216%);stroke-opacity:0.8;stroke-miterlimit:10;" d="M -3.520453 10.241028 L -2.17367 9.974373 " transform="matrix(101.488965,0,0,101.488965,644.60741,-562.925517)"/>
</g>
</g>
</g>
<path style="fill-rule:nonzero;fill:rgb(55.294118%,82.745098%,78.039216%);fill-opacity:1;stroke-width:0.0534151;stroke-linecap:butt;stroke-linejoin:miter;stroke:rgb(55.294118%,82.745098%,78.039216%);stroke-opacity:1;stroke-miterlimit:10;" d="M 0.267059 0.0000126239 C 0.267059 0.147504 0.147511 0.267091 -0.0000189539 0.267091 C -0.14751 0.267091 -0.267058 0.147504 -0.267058 0.0000126239 C -0.267058 -0.147517 -0.14751 -0.267065 -0.0000189539 -0.267065 C 0.147511 -0.267065 0.267059 -0.147517 0.267059 0.0000126239 Z M 0.267059 0.0000126239 " transform="matrix(101.488965,0,0,101.488965,424.00583,449.362)"/>
<path style="fill-rule:nonzero;fill:rgb(55.294118%,82.745098%,78.039216%);fill-opacity:1;stroke-width:0.0534151;stroke-linecap:butt;stroke-linejoin:miter;stroke:rgb(55.294118%,82.745098%,78.039216%);stroke-opacity:1;stroke-miterlimit:10;" d="M 0.267061 0.0000146507 C 0.267061 0.147506 0.147513 0.267093 -0.0000169207 0.267093 C -0.147508 0.267093 -0.267095 0.147506 -0.267095 0.0000146507 C -0.267095 -0.147515 -0.147508 -0.267063 -0.0000169207 -0.267063 C 0.147513 -0.267063 0.267061 -0.147515 0.267061 0.0000146507 Z M 0.267061 0.0000146507 " transform="matrix(101.488965,0,0,101.488965,179.224374,371.119607)"/>
<path style="fill-rule:nonzero;fill:rgb(55.294118%,82.745098%,78.039216%);fill-opacity:1;stroke-width:0.0534151;stroke-linecap:butt;stroke-linejoin:miter;stroke:rgb(55.294118%,82.745098%,78.039216%);stroke-opacity:1;stroke-miterlimit:10;" d="M 0.267065 0.0000158245 C 0.267065 0.147507 0.147517 0.267094 -0.000012969 0.267094 C -0.147504 0.267094 -0.267091 0.147507 -0.267091 0.0000158245 C -0.267091 -0.147514 -0.147504 -0.267062 -0.000012969 -0.267062 C 0.147517 -0.267062 0.267065 -0.147514 0.267065 0.0000158245 Z M 0.267065 0.0000158245 " transform="matrix(101.488965,0,0,101.488965,370.368504,291.322613)"/>
<path style="fill-rule:nonzero;fill:rgb(55.294118%,82.745098%,78.039216%);fill-opacity:1;stroke-width:0.0534151;stroke-linecap:butt;stroke-linejoin:miter;stroke:rgb(55.294118%,82.745098%,78.039216%);stroke-opacity:1;stroke-miterlimit:10;" d="M 0.26707 0.0000191351 C 0.26707 0.147511 0.147483 0.267059 -0.00000803953 0.267059 C -0.147499 0.267059 -0.267086 0.147511 -0.267086 0.0000191351 C -0.267086 -0.147511 -0.147499 -0.267059 -0.00000803953 -0.267059 C 0.147483 -0.267059 0.26707 -0.147511 0.26707 0.0000191351 Z M 0.26707 0.0000191351 " transform="matrix(101.488965,0,0,101.488965,548.950035,275.341808)"/>
<path style="fill-rule:nonzero;fill:rgb(55.294118%,82.745098%,78.039216%);fill-opacity:1;stroke-width:0.0534151;stroke-linecap:butt;stroke-linejoin:miter;stroke:rgb(55.294118%,82.745098%,78.039216%);stroke-opacity:1;stroke-miterlimit:10;" d="M 0.267091 0.00000410639 C 0.267091 0.147496 0.147504 0.267082 0.0000129682 0.267082 C -0.147517 0.267082 -0.267065 0.147496 -0.267065 0.00000410639 C -0.267065 -0.147487 -0.147517 -0.267074 0.0000129682 -0.267074 C 0.147504 -0.267074 0.267091 -0.147487 0.267091 0.00000410639 Z M 0.267091 0.00000410639 " transform="matrix(101.488965,0,0,101.488965,441.451809,123.573802)"/>
<path style="fill-rule:nonzero;fill:rgb(55.294118%,82.745098%,78.039216%);fill-opacity:1;stroke-width:0.0534151;stroke-linecap:butt;stroke-linejoin:miter;stroke:rgb(55.294118%,82.745098%,78.039216%);stroke-opacity:1;stroke-miterlimit:10;" d="M 0.267088 0.00000470975 C 0.267088 0.147496 0.147501 0.267083 0.00000982363 0.267083 C -0.14752 0.267083 -0.267068 0.147496 -0.267068 0.00000470975 C -0.267068 -0.147487 -0.14752 -0.267073 0.00000982363 -0.267073 C 0.147501 -0.267073 0.267088 -0.147487 0.267088 0.00000470975 Z M 0.267088 0.00000470975 " transform="matrix(101.488965,0,0,101.488965,174.803691,261.065928)"/>
<path style="fill-rule:nonzero;fill:rgb(55.294118%,82.745098%,78.039216%);fill-opacity:1;stroke-width:0.0534151;stroke-linecap:butt;stroke-linejoin:miter;stroke:rgb(55.294118%,82.745098%,78.039216%);stroke-opacity:1;stroke-miterlimit:10;" d="M 0.267086 0.00000310436 C 0.267086 0.147495 0.147499 0.267081 0.00000803953 0.267081 C -0.147483 0.267081 -0.26707 0.147495 -0.26707 0.00000310436 C -0.26707 -0.147488 -0.147483 -0.267075 0.00000803953 -0.267075 C 0.147499 -0.267075 0.267086 -0.147488 0.267086 0.00000310436 Z M 0.267086 0.00000310436 " transform="matrix(101.488965,0,0,101.488965,51.049965,425.210622)"/>
<path style="fill-rule:nonzero;fill:rgb(55.294118%,82.745098%,78.039216%);fill-opacity:1;stroke-width:0.0534151;stroke-linecap:butt;stroke-linejoin:miter;stroke:rgb(55.294118%,82.745098%,78.039216%);stroke-opacity:1;stroke-miterlimit:10;" d="M 0.267076 0.00000577615 C 0.267076 0.147497 0.14749 0.267084 -0.00000156753 0.267084 C -0.147493 0.267084 -0.26708 0.147497 -0.26708 0.00000577615 C -0.26708 -0.147486 -0.147493 -0.267072 -0.00000156753 -0.267072 C 0.14749 -0.267072 0.267076 -0.147486 0.267076 0.00000577615 Z M 0.267076 0.00000577615 " transform="matrix(101.488965,0,0,101.488965,335.011878,390.62832)"/>
<path style="fill-rule:nonzero;fill:rgb(55.294118%,82.745098%,78.039216%);fill-opacity:1;stroke-width:0.0534151;stroke-linecap:butt;stroke-linejoin:miter;stroke:rgb(55.294118%,82.745098%,78.039216%);stroke-opacity:1;stroke-miterlimit:10;" d="M 0.267072 0.00000257582 C 0.267072 0.147494 0.147485 0.267081 -0.00000602477 0.267081 C -0.147497 0.267081 -0.267084 0.147494 -0.267084 0.00000257582 C -0.267084 -0.147489 -0.147497 -0.267075 -0.00000602477 -0.267075 C 0.147485 -0.267075 0.267072 -0.147489 0.267072 0.00000257582 Z M 0.267072 0.00000257582 " transform="matrix(101.488965,0,0,101.488965,276.848268,222.191145)"/>
<path style="fill-rule:nonzero;fill:rgb(55.294118%,82.745098%,78.039216%);fill-opacity:1;stroke-width:0.0534151;stroke-linecap:butt;stroke-linejoin:miter;stroke:rgb(55.294118%,82.745098%,78.039216%);stroke-opacity:1;stroke-miterlimit:10;" d="M 0.267062 -0.00000410639 C 0.267062 0.147487 0.147514 0.267074 -0.0000155023 0.267074 C -0.147507 0.267074 -0.267093 0.147487 -0.267093 -0.00000410639 C -0.267093 -0.147496 -0.147507 -0.267082 -0.0000155023 -0.267082 C 0.147514 -0.267082 0.267062 -0.147496 0.267062 -0.00000410639 Z M 0.267062 -0.00000410639 " transform="matrix(101.488965,0,0,101.488965,287.321886,476.426198)"/>
</g>
</svg>
