<?xml version="1.0" encoding="UTF-8"?>
<svg xmlns="http://www.w3.org/2000/svg" xmlns:xlink="http://www.w3.org/1999/xlink" width="600pt" height="600pt" viewBox="0 0 600 600" version="1.1">
<defs>
<clipPath id="clip1">
  <path d="M 0 25 L 600 25 L 600 575 L 0 575 Z M 0 25 "/>
</clipPath>
<clipPath id="clip2">
  <path d="M -73.367188 -73.359375 L 673.367188 -73.359375 L 673.367188 673.359375 L -73.367188 673.359375 Z M -73.367188 -73.359375 L 89.636719 433 C 89.636719 444.046875 80.683594 453 69.636719 453 C 58.589844 453 49.636719 444.046875 49.636719 433 C 49.636719 421.953125 58.589844 413 69.636719 413 C 80.683594 413 89.636719 421.953125 89.636719 433 Z M -73.367188 -73.359375 "/>
</clipPath>
<clipPath id="clip3">
  <path d="M -73.367188 -73.359375 L 673.367188 -73.359375 L 673.367188 673.359375 L -73.367188 673.359375 Z M -73.367188 -73.359375 L 550.363281 167 C 550.363281 178.046875 541.410156 187 530.363281 187 C 519.316406 187 510.363281 178.046875 510.363281 167 C 510.363281 155.953125 519.316406 147 530.363281 147 C 541.410156 147 550.363281 155.953125 550.363281 167 Z M -73.367188 -73.359375 "/>
</clipPath>
<clipPath id="clip4">
  <path d="M 0 25 L 600 25 L 600 380 L 0 380 Z M 0 25 "/>
</clipPath>
<clipPath id="clip5">
  <path d="M -51.90625 -84.484375 L 651.90625 -84.484375 L 651.90625 513.933594 L -51.90625 513.933594 Z M -51.90625 -84.484375 L 89.636719 167 C 89.636719 178.046875 80.683594 187 69.636719 187 C 58.589844 187 49.636719 178.046875 49.636719 167 C 49.636719 155.953125 58.589844 147 69.636719 147 C 80.683594 147 89.636719 155.953125 89.636719 167 Z M -51.90625 -84.484375 "/>
</clipPath>
<clipPath id="clip6">
  <path d="M -51.90625 -84.484375 L 651.90625 -84.484375 L 651.90625 513.933594 L -51.90625 513.933594 Z M -51.90625 -84.484375 L 550.363281 167 C 550.363281 178.046875 541.410156 187 530.363281 187 C 519.316406 187 510.363281 178.046875 510.363281 167 C 510.363281 155.953125 519.316406 147 530.363281 147 C 541.410156 147 550.363281 155.953125 550.363281 167 Z M -51.90625 -84.484375 "/>
</clipPath>
<clipPath id="clip7">
  <path d="M 158 0 L 600 0 L 600 357 L 158 357 Z M 158 0 "/>
</clipPath>
<clipPath id="clip8">
  <path d="M 25.371094 -85.660156 L 649.320312 -85.660156 L 649.320312 490.617188 L 25.371094 490.617188 Z M 25.371094 -85.660156 L 320 34 C 320 45.046875 311.046875 54 300 54 C 288.953125 54 280 45.046875 280 34 C 280 22.953125 288.953125 14 300 14 C 311.046875 14 320 22.953125 320 34 Z M 25.371094 -85.660156 "/>
</clipPath>
<clipPath id="clip9">
  <path d="M 25.371094 -85.660156 L 649.320312 -85.660156 L 649.320312 490.617188 L 25.371094 490.617188 Z M 25.371094 -85.660156 L 550.363281 167 C 550.363281 178.046875 541.410156 187 530.363281 187 C 519.316406 187 510.363281 178.046875 510.363281 167 C 510.363281 155.953125 519.316406 147 530.363281 147 C 541.410156 147 550.363281 155.953125 550.363281 167 Z M 25.371094 -85.660156 "/>
</clipPath>
</defs>
<g id="surface5">
<g clip-path="url(#clip1)" clip-rule="nonzero">
<g clip-path="url(#clip2)" clip-rule="evenodd">
<g clip-path="url(#clip3)" clip-rule="evenodd">
<path style="fill:none;stroke-width:0.037594;stroke-linecap:butt;stroke-linejoin:miter;stroke:rgb(27.45098%,50.980392%,70.588235%);stroke-opacity:0.6;stroke-miterlimit:10;" d="M -0.866027 0.5 C -0.866027 0.5 -0.866027 0.5 -0.721687 0.416662 C -0.577347 0.333338 -0.288681 0.166662 0 0 C 0.288681 -0.166662 0.577347 -0.333338 0.721687 -0.416662 C 0.866027 -0.5 0.866027 -0.5 0.866027 -0.5 " transform="matrix(266,0,0,266,300,300)"/>
</g>
</g>
</g>
<g clip-path="url(#clip4)" clip-rule="nonzero">
<g clip-path="url(#clip5)" clip-rule="evenodd">
<g clip-path="url(#clip6)" clip-rule="evenodd">
<path style="fill:none;stroke-width:0.037594;stroke-linecap:butt;stroke-linejoin:miter;stroke:rgb(27.45098%,50.980392%,70.588235%);stroke-opacity:0.6;stroke-miterlimit:10;" d="M -0.866027 -0.5 C -0.866027 -0.5 -0.866027 -0.5 -0.721687 -0.433329 C -0.577347 -0.366674 -0.288681 -0.233332 0 -0.233332 C 0.288681 -0.233332 0.577347 -0.366674 0.721687 -0.433329 C 0.866027 -0.5 0.866027 -0.5 0.866027 -0.5 " transform="matrix(266,0,0,266,300,300)"/>
</g>
</g>
</g>
<g clip-path="url(#clip7)" clip-rule="nonzero">
<g clip-path="url(#clip8)" clip-rule="evenodd">
<g clip-path="url(#clip9)" clip-rule="evenodd">
<path style="fill:none;stroke-width:0.037594;stroke-linecap:butt;stroke-linejoin:miter;stroke:rgb(27.45098%,50.980392%,70.588235%);stroke-opacity:0.6;stroke-miterlimit:10;" d="M 0 -1 C 0 -1 0 -1 0.0144355 -0.858332 C 0.028871 -0.716665 0.057742 -0.433329 0.202068 -0.350006 C 0.346408 -0.266668 0.606218 -0.383326 0.736123 -0.441671 C 0.866027 -0.5 0.866027 -0.5 0.866027 -0.5 " transform="matrix(266,0,0,266,300,300)"/>
</g>
</g>
</g>
<path style=" stroke:none;fill-rule:nonzero;fill:rgb(27.45098%,50.980392%,70.588235%);fill-opacity:1;" d="M 550.363281 433 C 550.363281 444.046875 541.410156 453 530.363281 453 C 519.316406 453 510.363281 444.046875 510.363281 433 C 510.363281 421.953125 519.316406 413 530.363281 413 C 541.410156 413 550.363281 421.953125 550.363281 433 Z M 550.363281 433 "/>
<path style=" stroke:none;fill-rule:nonzero;fill:rgb(27.45098%,50.980392%,70.588235%);fill-opacity:1;" d="M 320 566 C 320 577.046875 311.046875 586 300 586 C 288.953125 586 280 577.046875 280 566 C 280 554.953125 288.953125 546 300 546 C 311.046875 546 320 554.953125 320 566 Z M 320 566 "/>
<path style=" stroke:none;fill-rule:nonzero;fill:rgb(27.45098%,50.980392%,70.588235%);fill-opacity:1;" d="M 89.636719 433 C 89.636719 444.046875 80.683594 453 69.636719 453 C 58.589844 453 49.636719 444.046875 49.636719 433 C 49.636719 421.953125 58.589844 413 69.636719 413 C 80.683594 413 89.636719 421.953125 89.636719 433 Z M 89.636719 433 "/>
<path style=" stroke:none;fill-rule:nonzero;fill:rgb(27.45098%,50.980392%,70.588235%);fill-opacity:1;" d="M 89.636719 167 C 89.636719 178.046875 80.683594 187 69.636719 187 C 58.589844 187 49.636719 178.046875 49.636719 167 C 49.636719 155.953125 58.589844 147 69.636719 147 C 80.683594 147 89.636719 155.953125 89.636719 167 Z M 89.636719 167 "/>
<path style=" stroke:none;fill-rule:nonzero;fill:rgb(27.45098%,50.980392%,70.588235%);fill-opacity:1;" d="M 320 34 C 320 45.046875 311.046875 54 300 54 C 288.953125 54 280 45.046875 280 34 C 280 22.953125 288.953125 14 300 14 C 311.046875 14 320 22.953125 320 34 Z M 320 34 "/>
<path style=" stroke:none;fill-rule:nonzero;fill:rgb(27.45098%,50.980392%,70.588235%);fill-opacity:1;" d="M 550.363281 167 C 550.363281 178.046875 541.410156 187 530.363281 187 C 519.316406 187 510.363281 178.046875 510.363281 167 C 510.363281 155.953125 519.316406 147 530.363281 147 C 541.410156 147 550.363281 155.953125 550.363281 167 Z M 550.363281 167 "/>
</g>
</svg>
