<?xml version="1.0" encoding="UTF-8"?>
<svg xmlns="http://www.w3.org/2000/svg" xmlns:xlink="http://www.w3.org/1999/xlink" width="600pt" height="600pt" viewBox="0 0 600 600" version="1.1">
<defs>
<clipPath id="clip1">
  <path d="M 275 48 L 545.933594 48 L 545.933594 253 L 275 253 Z M 275 48 "/>
</clipPath>
<clipPath id="clip2">
  <path d="M 210.59375 -36.4375 L 545.933594 -36.4375 L 545.933594 285.90625 L 210.59375 285.90625 Z M 210.59375 -36.4375 L 379.101562 175.886719 C 379.101562 190.855469 366.964844 202.992188 351.996094 202.992188 C 337.027344 202.992188 324.890625 190.855469 324.890625 175.886719 C 324.890625 160.917969 337.027344 148.78125 351.996094 148.78125 C 366.964844 148.78125 379.101562 160.917969 379.101562 175.886719 Z M 210.59375 -36.4375 "/>
</clipPath>
<clipPath id="clip3">
  <path d="M 210.59375 -36.4375 L 545.933594 -36.4375 L 545.933594 285.90625 L 210.59375 285.90625 Z M 210.59375 -36.4375 L 504.355469 134.175781 C 504.355469 149.148438 492.21875 161.28125 477.25 161.28125 C 462.28125 161.28125 450.144531 149.148438 450.144531 134.175781 C 450.144531 119.207031 462.28125 107.070312 477.25 107.070312 C 492.21875 107.070312 504.355469 119.207031 504.355469 134.175781 Z M 210.59375 -36.4375 "/>
</clipPath>
<linearGradient id="linear0" gradientUnits="userSpaceOnUse" x1="6.29552" y1="-0.889764" x2="7.099584" y2="-1.157522" >
<stop offset="0" style="stop-color:rgb(55.294118%,82.745098%,78.039216%);stop-opacity:0.8;"/>
<stop offset="1" style="stop-color:rgb(100%,92.941176%,43.529412%);stop-opacity:0.8;"/>
</linearGradient>
<clipPath id="clip4">
  <path d="M 203 142.203125 L 432 142.203125 L 432 410 L 203 410 Z M 203 142.203125 "/>
</clipPath>
<clipPath id="clip5">
  <path d="M 193.289062 142.203125 L 515.671875 142.203125 L 515.671875 472.648438 L 193.289062 472.648438 Z M 193.289062 142.203125 L 379.101562 175.886719 C 379.101562 190.855469 366.964844 202.992188 351.996094 202.992188 C 337.027344 202.992188 324.890625 190.855469 324.890625 175.886719 C 324.890625 160.917969 337.027344 148.78125 351.996094 148.78125 C 366.964844 148.78125 379.101562 160.917969 379.101562 175.886719 Z M 193.289062 142.203125 "/>
</clipPath>
<clipPath id="clip6">
  <path d="M 193.289062 142.203125 L 515.671875 142.203125 L 515.671875 472.648438 L 193.289062 472.648438 Z M 193.289062 142.203125 L 307.636719 333.300781 C 307.636719 348.269531 295.503906 360.40625 280.53125 360.40625 C 265.5625 360.40625 253.425781 348.269531 253.425781 333.300781 C 253.425781 318.332031 265.5625 306.195312 280.53125 306.195312 C 295.503906 306.195312 307.636719 318.332031 307.636719 333.300781 Z M 193.289062 142.203125 "/>
</clipPath>
<linearGradient id="linear1" gradientUnits="userSpaceOnUse" x1="6.29552" y1="-0.889764" x2="5.836761" y2="0.120752" >
<stop offset="0" style="stop-color:rgb(55.294118%,82.745098%,78.039216%);stop-opacity:0.8;"/>
<stop offset="1" style="stop-color:rgb(100%,92.941176%,43.529412%);stop-opacity:0.8;"/>
</linearGradient>
<clipPath id="clip7">
  <path d="M 297.359375 57 L 531.894531 57 L 531.894531 253 L 297.359375 253 Z M 297.359375 57 "/>
</clipPath>
<clipPath id="clip8">
  <path d="M 297.359375 -19.039062 L 531.894531 -19.039062 L 531.894531 329.105469 L 297.359375 329.105469 Z M 297.359375 -19.039062 L 379.101562 175.886719 C 379.101562 190.855469 366.964844 202.992188 351.996094 202.992188 C 337.027344 202.992188 324.890625 190.855469 324.890625 175.886719 C 324.890625 160.917969 337.027344 148.78125 351.996094 148.78125 C 366.964844 148.78125 379.101562 160.917969 379.101562 175.886719 Z M 297.359375 -19.039062 "/>
</clipPath>
<clipPath id="clip9">
  <path d="M 297.359375 -19.039062 L 531.894531 -19.039062 L 531.894531 329.105469 L 297.359375 329.105469 Z M 297.359375 -19.039062 L 504.355469 134.175781 C 504.355469 149.148438 492.21875 161.28125 477.25 161.28125 C 462.28125 161.28125 450.144531 149.148438 450.144531 134.175781 C 450.144531 119.207031 462.28125 107.070312 477.25 107.070312 C 492.21875 107.070312 504.355469 119.207031 504.355469 134.175781 Z M 297.359375 -19.039062 "/>
</clipPath>
<linearGradient id="linear2" gradientUnits="userSpaceOnUse" x1="6.29552" y1="-0.889764" x2="7.099584" y2="-1.157522" >
<stop offset="0" style="stop-color:rgb(55.294118%,82.745098%,78.039216%);stop-opacity:0.8;"/>
<stop offset="1" style="stop-color:rgb(100%,92.941176%,43.529412%);stop-opacity:0.8;"/>
</linearGradient>
<clipPath id="clip10">
  <path d="M 283.304688 57 L 554 57 L 554 262 L 283.304688 262 Z M 283.304688 57 "/>
</clipPath>
<clipPath id="clip11">
  <path d="M 283.304688 24.128906 L 618.648438 24.128906 L 618.648438 346.488281 L 283.304688 346.488281 Z M 283.304688 24.128906 L 504.355469 134.175781 C 504.355469 149.148438 492.21875 161.28125 477.25 161.28125 C 462.28125 161.28125 450.144531 149.148438 450.144531 134.175781 C 450.144531 119.207031 462.28125 107.070312 477.25 107.070312 C 492.21875 107.070312 504.355469 119.207031 504.355469 134.175781 Z M 283.304688 24.128906 "/>
</clipPath>
<clipPath id="clip12">
  <path d="M 283.304688 24.128906 L 618.648438 24.128906 L 618.648438 346.488281 L 283.304688 346.488281 Z M 283.304688 24.128906 L 379.101562 175.886719 C 379.101562 190.855469 366.964844 202.992188 351.996094 202.992188 C 337.027344 202.992188 324.890625 190.855469 324.890625 175.886719 C 324.890625 160.917969 337.027344 148.78125 351.996094 148.78125 C 366.964844 148.78125 379.101562 160.917969 379.101562 175.886719 Z M 283.304688 24.128906 "/>
</clipPath>
<linearGradient id="linear3" gradientUnits="userSpaceOnUse" x1="7.099584" y1="-1.157522" x2="6.29552" y2="-0.889764" >
<stop offset="0" style="stop-color:rgb(100%,92.941176%,43.529412%);stop-opacity:0.8;"/>
<stop offset="1" style="stop-color:rgb(55.294118%,82.745098%,78.039216%);stop-opacity:0.8;"/>
</linearGradient>
<clipPath id="clip13">
  <path d="M 201 99 L 429 99 L 429 366.984375 L 201 366.984375 Z M 201 99 "/>
</clipPath>
<clipPath id="clip14">
  <path d="M 116.839844 36.539062 L 439.21875 36.539062 L 439.21875 366.984375 L 116.839844 366.984375 Z M 116.839844 36.539062 L 307.636719 333.300781 C 307.636719 348.269531 295.503906 360.40625 280.53125 360.40625 C 265.5625 360.40625 253.425781 348.269531 253.425781 333.300781 C 253.425781 318.332031 265.5625 306.195312 280.53125 306.195312 C 295.503906 306.195312 307.636719 318.332031 307.636719 333.300781 Z M 116.839844 36.539062 "/>
</clipPath>
<clipPath id="clip15">
  <path d="M 116.839844 36.539062 L 439.21875 36.539062 L 439.21875 366.984375 L 116.839844 366.984375 Z M 116.839844 36.539062 L 379.101562 175.886719 C 379.101562 190.855469 366.964844 202.992188 351.996094 202.992188 C 337.027344 202.992188 324.890625 190.855469 324.890625 175.886719 C 324.890625 160.917969 337.027344 148.78125 351.996094 148.78125 C 366.964844 148.78125 379.101562 160.917969 379.101562 175.886719 Z M 116.839844 36.539062 "/>
</clipPath>
<linearGradient id="linear4" gradientUnits="userSpaceOnUse" x1="5.836761" y1="0.120752" x2="6.29552" y2="-0.889764" >
<stop offset="0" style="stop-color:rgb(100%,92.941176%,43.529412%);stop-opacity:0.8;"/>
<stop offset="1" style="stop-color:rgb(55.294118%,82.745098%,78.039216%);stop-opacity:0.8;"/>
</linearGradient>
<clipPath id="clip16">
  <path d="M 203 106.074219 L 429 106.074219 L 429 403.125 L 203 403.125 Z M 203 106.074219 "/>
</clipPath>
<clipPath id="clip17">
  <path d="M 133.269531 106.074219 L 499.261719 106.074219 L 499.261719 403.125 L 133.269531 403.125 Z M 133.269531 106.074219 L 307.636719 333.300781 C 307.636719 348.269531 295.503906 360.40625 280.53125 360.40625 C 265.5625 360.40625 253.425781 348.269531 253.425781 333.300781 C 253.425781 318.332031 265.5625 306.195312 280.53125 306.195312 C 295.503906 306.195312 307.636719 318.332031 307.636719 333.300781 Z M 133.269531 106.074219 "/>
</clipPath>
<clipPath id="clip18">
  <path d="M 133.269531 106.074219 L 499.261719 106.074219 L 499.261719 403.125 L 133.269531 403.125 Z M 133.269531 106.074219 L 379.101562 175.886719 C 379.101562 190.855469 366.964844 202.992188 351.996094 202.992188 C 337.027344 202.992188 324.890625 190.855469 324.890625 175.886719 C 324.890625 160.917969 337.027344 148.78125 351.996094 148.78125 C 366.964844 148.78125 379.101562 160.917969 379.101562 175.886719 Z M 133.269531 106.074219 "/>
</clipPath>
<linearGradient id="linear5" gradientUnits="userSpaceOnUse" x1="5.836761" y1="0.120752" x2="6.29552" y2="-0.889764" >
<stop offset="0" style="stop-color:rgb(100%,92.941176%,43.529412%);stop-opacity:0.8;"/>
<stop offset="1" style="stop-color:rgb(55.294118%,82.745098%,78.039216%);stop-opacity:0.8;"/>
</linearGradient>
<clipPath id="clip19">
  <path d="M 275 0 L 463 0 L 463 253 L 275 253 Z M 275 0 "/>
</clipPath>
<clipPath id="clip20">
  <path d="M 224.429688 -50.492188 L 546.820312 -50.492188 L 546.820312 299.882812 L 224.429688 299.882812 Z M 224.429688 -50.492188 L 391.636719 51.050781 C 391.636719 66.019531 379.503906 78.15625 364.53125 78.15625 C 349.5625 78.15625 337.425781 66.019531 337.425781 51.050781 C 337.425781 36.082031 349.5625 23.945312 364.53125 23.945312 C 379.503906 23.945312 391.636719 36.082031 391.636719 51.050781 Z M 224.429688 -50.492188 "/>
</clipPath>
<clipPath id="clip21">
  <path d="M 224.429688 -50.492188 L 546.820312 -50.492188 L 546.820312 299.882812 L 224.429688 299.882812 Z M 224.429688 -50.492188 L 379.101562 175.886719 C 379.101562 190.855469 366.964844 202.992188 351.996094 202.992188 C 337.027344 202.992188 324.890625 190.855469 324.890625 175.886719 C 324.890625 160.917969 337.027344 148.78125 351.996094 148.78125 C 366.964844 148.78125 379.101562 160.917969 379.101562 175.886719 Z M 224.429688 -50.492188 "/>
</clipPath>
<linearGradient id="linear6" gradientUnits="userSpaceOnUse" x1="6.376001" y1="-1.691157" x2="6.29552" y2="-0.889764" >
<stop offset="0" style="stop-color:rgb(100%,92.941176%,43.529412%);stop-opacity:0.8;"/>
<stop offset="1" style="stop-color:rgb(55.294118%,82.745098%,78.039216%);stop-opacity:0.8;"/>
</linearGradient>
<clipPath id="clip22">
  <path d="M 275 13.199219 L 446 13.199219 L 446 243.375 L 275 243.375 Z M 275 13.199219 "/>
</clipPath>
<clipPath id="clip23">
  <path d="M 203.699219 13.199219 L 529.628906 13.199219 L 529.628906 243.375 L 203.699219 243.375 Z M 203.699219 13.199219 L 391.636719 51.050781 C 391.636719 66.019531 379.503906 78.15625 364.53125 78.15625 C 349.5625 78.15625 337.425781 66.019531 337.425781 51.050781 C 337.425781 36.082031 349.5625 23.945312 364.53125 23.945312 C 379.503906 23.945312 391.636719 36.082031 391.636719 51.050781 Z M 203.699219 13.199219 "/>
</clipPath>
<clipPath id="clip24">
  <path d="M 203.699219 13.199219 L 529.628906 13.199219 L 529.628906 243.375 L 203.699219 243.375 Z M 203.699219 13.199219 L 379.101562 175.886719 C 379.101562 190.855469 366.964844 202.992188 351.996094 202.992188 C 337.027344 202.992188 324.890625 190.855469 324.890625 175.886719 C 324.890625 160.917969 337.027344 148.78125 351.996094 148.78125 C 366.964844 148.78125 379.101562 160.917969 379.101562 175.886719 Z M 203.699219 13.199219 "/>
</clipPath>
<linearGradient id="linear7" gradientUnits="userSpaceOnUse" x1="6.376001" y1="-1.691157" x2="6.29552" y2="-0.889764" >
<stop offset="0" style="stop-color:rgb(100%,92.941176%,43.529412%);stop-opacity:0.8;"/>
<stop offset="1" style="stop-color:rgb(55.294118%,82.745098%,78.039216%);stop-opacity:0.8;"/>
</linearGradient>
<clipPath id="clip25">
  <path d="M 287 0 L 554 0 L 554 211 L 287 211 Z M 287 0 "/>
</clipPath>
<clipPath id="clip26">
  <path d="M 266.652344 -79.742188 L 575.128906 -79.742188 L 575.128906 264.96875 L 266.652344 264.96875 Z M 266.652344 -79.742188 L 391.636719 51.050781 C 391.636719 66.019531 379.503906 78.15625 364.53125 78.15625 C 349.5625 78.15625 337.425781 66.019531 337.425781 51.050781 C 337.425781 36.082031 349.5625 23.945312 364.53125 23.945312 C 379.503906 23.945312 391.636719 36.082031 391.636719 51.050781 Z M 266.652344 -79.742188 "/>
</clipPath>
<clipPath id="clip27">
  <path d="M 266.652344 -79.742188 L 575.128906 -79.742188 L 575.128906 264.96875 L 266.652344 264.96875 Z M 266.652344 -79.742188 L 504.355469 134.175781 C 504.355469 149.148438 492.21875 161.28125 477.25 161.28125 C 462.28125 161.28125 450.144531 149.148438 450.144531 134.175781 C 450.144531 119.207031 462.28125 107.070312 477.25 107.070312 C 492.21875 107.070312 504.355469 119.207031 504.355469 134.175781 Z M 266.652344 -79.742188 "/>
</clipPath>
<clipPath id="clip28">
  <path d="M 271 0 L 442 0 L 442 213.734375 L 271 213.734375 Z M 271 0 "/>
</clipPath>
<clipPath id="clip29">
  <path d="M 186.882812 -16.4375 L 512.828125 -16.4375 L 512.828125 213.734375 L 186.882812 213.734375 Z M 186.882812 -16.4375 L 391.636719 51.050781 C 391.636719 66.019531 379.503906 78.15625 364.53125 78.15625 C 349.5625 78.15625 337.425781 66.019531 337.425781 51.050781 C 337.425781 36.082031 349.5625 23.945312 364.53125 23.945312 C 379.503906 23.945312 391.636719 36.082031 391.636719 51.050781 Z M 186.882812 -16.4375 "/>
</clipPath>
<clipPath id="clip30">
  <path d="M 186.882812 -16.4375 L 512.828125 -16.4375 L 512.828125 213.734375 L 186.882812 213.734375 Z M 186.882812 -16.4375 L 379.101562 175.886719 C 379.101562 190.855469 366.964844 202.992188 351.996094 202.992188 C 337.027344 202.992188 324.890625 190.855469 324.890625 175.886719 C 324.890625 160.917969 337.027344 148.78125 351.996094 148.78125 C 366.964844 148.78125 379.101562 160.917969 379.101562 175.886719 Z M 186.882812 -16.4375 "/>
</clipPath>
<linearGradient id="linear8" gradientUnits="userSpaceOnUse" x1="6.376001" y1="-1.691157" x2="6.29552" y2="-0.889764" >
<stop offset="0" style="stop-color:rgb(100%,92.941176%,43.529412%);stop-opacity:0.8;"/>
<stop offset="1" style="stop-color:rgb(55.294118%,82.745098%,78.039216%);stop-opacity:0.8;"/>
</linearGradient>
<clipPath id="clip31">
  <path d="M 254 0 L 442 0 L 442 253 L 254 253 Z M 254 0 "/>
</clipPath>
<clipPath id="clip32">
  <path d="M 169.691406 -72.945312 L 492.082031 -72.945312 L 492.082031 277.429688 L 169.691406 277.429688 Z M 169.691406 -72.945312 L 391.636719 51.050781 C 391.636719 66.019531 379.503906 78.15625 364.53125 78.15625 C 349.5625 78.15625 337.425781 66.019531 337.425781 51.050781 C 337.425781 36.082031 349.5625 23.945312 364.53125 23.945312 C 379.503906 23.945312 391.636719 36.082031 391.636719 51.050781 Z M 169.691406 -72.945312 "/>
</clipPath>
<clipPath id="clip33">
  <path d="M 169.691406 -72.945312 L 492.082031 -72.945312 L 492.082031 277.429688 L 169.691406 277.429688 Z M 169.691406 -72.945312 L 379.101562 175.886719 C 379.101562 190.855469 366.964844 202.992188 351.996094 202.992188 C 337.027344 202.992188 324.890625 190.855469 324.890625 175.886719 C 324.890625 160.917969 337.027344 148.78125 351.996094 148.78125 C 366.964844 148.78125 379.101562 160.917969 379.101562 175.886719 Z M 169.691406 -72.945312 "/>
</clipPath>
<linearGradient id="linear9" gradientUnits="userSpaceOnUse" x1="6.376001" y1="-1.691157" x2="6.29552" y2="-0.889764" >
<stop offset="0" style="stop-color:rgb(100%,92.941176%,43.529412%);stop-opacity:0.8;"/>
<stop offset="1" style="stop-color:rgb(55.294118%,82.745098%,78.039216%);stop-opacity:0.8;"/>
</linearGradient>
<clipPath id="clip34">
  <path d="M 32 256 L 358 256 L 358 568 L 32 568 Z M 32 256 "/>
</clipPath>
<clipPath id="clip35">
  <path d="M -1.785156 213.292969 L 391.480469 213.292969 L 391.480469 611.128906 L -1.785156 611.128906 Z M -1.785156 213.292969 L 136.269531 491.121094 C 136.269531 506.089844 124.132812 518.226562 109.164062 518.226562 C 94.191406 518.226562 82.058594 506.089844 82.058594 491.121094 C 82.058594 476.148438 94.191406 464.015625 109.164062 464.015625 C 124.132812 464.015625 136.269531 476.148438 136.269531 491.121094 Z M -1.785156 213.292969 "/>
</clipPath>
<clipPath id="clip36">
  <path d="M -1.785156 213.292969 L 391.480469 213.292969 L 391.480469 611.128906 L -1.785156 611.128906 Z M -1.785156 213.292969 L 307.636719 333.300781 C 307.636719 348.269531 295.503906 360.40625 280.53125 360.40625 C 265.5625 360.40625 253.425781 348.269531 253.425781 333.300781 C 253.425781 318.332031 265.5625 306.195312 280.53125 306.195312 C 295.503906 306.195312 307.636719 318.332031 307.636719 333.300781 Z M -1.785156 213.292969 "/>
</clipPath>
<linearGradient id="linear10" gradientUnits="userSpaceOnUse" x1="4.736652" y1="1.133873" x2="5.836761" y2="0.120752" >
<stop offset="0" style="stop-color:rgb(55.294118%,82.745098%,78.039216%);stop-opacity:0.8;"/>
<stop offset="1" style="stop-color:rgb(100%,92.941176%,43.529412%);stop-opacity:0.8;"/>
</linearGradient>
<clipPath id="clip37">
  <path d="M 43 95 L 358 95 L 358 410 L 43 410 Z M 43 95 "/>
</clipPath>
<clipPath id="clip38">
  <path d="M 4.117188 56.785156 L 396.210938 56.785156 L 396.210938 448.761719 L 4.117188 448.761719 Z M 4.117188 56.785156 L 146.902344 172.246094 C 146.902344 187.214844 134.765625 199.351562 119.796875 199.351562 C 104.828125 199.351562 92.691406 187.214844 92.691406 172.246094 C 92.691406 157.273438 104.828125 145.140625 119.796875 145.140625 C 134.765625 145.140625 146.902344 157.273438 146.902344 172.246094 Z M 4.117188 56.785156 "/>
</clipPath>
<clipPath id="clip39">
  <path d="M 4.117188 56.785156 L 396.210938 56.785156 L 396.210938 448.761719 L 4.117188 448.761719 Z M 4.117188 56.785156 L 307.636719 333.300781 C 307.636719 348.269531 295.503906 360.40625 280.53125 360.40625 C 265.5625 360.40625 253.425781 348.269531 253.425781 333.300781 C 253.425781 318.332031 265.5625 306.195312 280.53125 306.195312 C 295.503906 306.195312 307.636719 318.332031 307.636719 333.300781 Z M 4.117188 56.785156 "/>
</clipPath>
<linearGradient id="linear11" gradientUnits="userSpaceOnUse" x1="4.804918" y1="-0.913148" x2="5.836761" y2="0.120752" >
<stop offset="0" style="stop-color:rgb(55.294118%,82.745098%,78.039216%);stop-opacity:0.8;"/>
<stop offset="1" style="stop-color:rgb(100%,92.941176%,43.529412%);stop-opacity:0.8;"/>
</linearGradient>
<clipPath id="clip40">
  <path d="M 203 256 L 516 256 L 516 558 L 203 558 Z M 203 256 "/>
</clipPath>
<clipPath id="clip41">
  <path d="M 169.042969 213.789062 L 550.332031 213.789062 L 550.332031 599.992188 L 169.042969 599.992188 Z M 169.042969 213.789062 L 465.949219 480.480469 C 465.949219 495.449219 453.8125 507.585938 438.84375 507.585938 C 423.871094 507.585938 411.738281 495.449219 411.738281 480.480469 C 411.738281 465.511719 423.871094 453.375 438.84375 453.375 C 453.8125 453.375 465.949219 465.511719 465.949219 480.480469 Z M 169.042969 213.789062 "/>
</clipPath>
<clipPath id="clip42">
  <path d="M 169.042969 213.789062 L 550.332031 213.789062 L 550.332031 599.992188 L 169.042969 599.992188 Z M 169.042969 213.789062 L 307.636719 333.300781 C 307.636719 348.269531 295.503906 360.40625 280.53125 360.40625 C 265.5625 360.40625 253.425781 348.269531 253.425781 333.300781 C 253.425781 318.332031 265.5625 306.195312 280.53125 306.195312 C 295.503906 306.195312 307.636719 318.332031 307.636719 333.300781 Z M 169.042969 213.789062 "/>
</clipPath>
<linearGradient id="linear12" gradientUnits="userSpaceOnUse" x1="6.853032" y1="1.065569" x2="5.836761" y2="0.120752" >
<stop offset="0" style="stop-color:rgb(55.294118%,82.745098%,78.039216%);stop-opacity:0.8;"/>
<stop offset="1" style="stop-color:rgb(100%,92.941176%,43.529412%);stop-opacity:0.8;"/>
</linearGradient>
<clipPath id="clip43">
  <path d="M 201 326.015625 L 358 326.015625 L 358 556.234375 L 201 556.234375 Z M 201 326.015625 "/>
</clipPath>
<clipPath id="clip44">
  <path d="M 116.761719 326.015625 L 441.71875 326.015625 L 441.71875 556.234375 L 116.761719 556.234375 Z M 116.761719 326.015625 L 305.054688 548.949219 C 305.054688 563.917969 292.917969 576.054688 277.949219 576.054688 C 262.976562 576.054688 250.84375 563.917969 250.84375 548.949219 C 250.84375 533.980469 262.976562 521.84375 277.949219 521.84375 C 292.917969 521.84375 305.054688 533.980469 305.054688 548.949219 Z M 116.761719 326.015625 "/>
</clipPath>
<clipPath id="clip45">
  <path d="M 116.761719 326.015625 L 441.71875 326.015625 L 441.71875 556.234375 L 116.761719 556.234375 Z M 116.761719 326.015625 L 307.636719 333.300781 C 307.636719 348.269531 295.503906 360.40625 280.53125 360.40625 C 265.5625 360.40625 253.425781 348.269531 253.425781 333.300781 C 253.425781 318.332031 265.5625 306.195312 280.53125 306.195312 C 295.503906 306.195312 307.636719 318.332031 307.636719 333.300781 Z M 116.761719 326.015625 "/>
</clipPath>
<linearGradient id="linear13" gradientUnits="userSpaceOnUse" x1="5.820168" y1="1.505113" x2="5.836761" y2="0.120752" >
<stop offset="0" style="stop-color:rgb(55.294118%,82.745098%,78.039216%);stop-opacity:0.8;"/>
<stop offset="1" style="stop-color:rgb(100%,92.941176%,43.529412%);stop-opacity:0.8;"/>
</linearGradient>
<clipPath id="clip46">
  <path d="M 400 115.550781 L 568 115.550781 L 568 312.5 L 400 312.5 Z M 400 115.550781 "/>
</clipPath>
<clipPath id="clip47">
  <path d="M 316.613281 115.550781 L 651.472656 115.550781 L 651.472656 312.5 L 316.613281 312.5 Z M 316.613281 115.550781 L 517.941406 293.875 C 517.941406 308.84375 505.808594 320.980469 490.835938 320.980469 C 475.867188 320.980469 463.730469 308.84375 463.730469 293.875 C 463.730469 278.90625 475.867188 266.769531 490.835938 266.769531 C 505.808594 266.769531 517.941406 278.90625 517.941406 293.875 Z M 316.613281 115.550781 "/>
</clipPath>
<clipPath id="clip48">
  <path d="M 316.613281 115.550781 L 651.472656 115.550781 L 651.472656 312.5 L 316.613281 312.5 Z M 316.613281 115.550781 L 504.355469 134.175781 C 504.355469 149.148438 492.21875 161.28125 477.25 161.28125 C 462.28125 161.28125 450.144531 149.148438 450.144531 134.175781 C 450.144531 119.207031 462.28125 107.070312 477.25 107.070312 C 492.21875 107.070312 504.355469 119.207031 504.355469 134.175781 Z M 316.613281 115.550781 "/>
</clipPath>
<linearGradient id="linear14" gradientUnits="userSpaceOnUse" x1="7.186812" y1="-0.132346" x2="7.099584" y2="-1.157522" >
<stop offset="0" style="stop-color:rgb(55.294118%,82.745098%,78.039216%);stop-opacity:0.8;"/>
<stop offset="1" style="stop-color:rgb(100%,92.941176%,43.529412%);stop-opacity:0.8;"/>
</linearGradient>
<clipPath id="clip49">
  <path d="M 246.40625 217 L 524.960938 217 L 524.960938 410 L 246.40625 410 Z M 246.40625 217 "/>
</clipPath>
<clipPath id="clip50">
  <path d="M 246.40625 135.34375 L 524.960938 135.34375 L 524.960938 491.832031 L 246.40625 491.832031 Z M 246.40625 135.34375 L 517.941406 293.875 C 517.941406 308.84375 505.808594 320.980469 490.835938 320.980469 C 475.867188 320.980469 463.730469 308.84375 463.730469 293.875 C 463.730469 278.90625 475.867188 266.769531 490.835938 266.769531 C 505.808594 266.769531 517.941406 278.90625 517.941406 293.875 Z M 246.40625 135.34375 "/>
</clipPath>
<clipPath id="clip51">
  <path d="M 246.40625 135.34375 L 524.960938 135.34375 L 524.960938 491.832031 L 246.40625 491.832031 Z M 246.40625 135.34375 L 307.636719 333.300781 C 307.636719 348.269531 295.503906 360.40625 280.53125 360.40625 C 265.5625 360.40625 253.425781 348.269531 253.425781 333.300781 C 253.425781 318.332031 265.5625 306.195312 280.53125 306.195312 C 295.503906 306.195312 307.636719 318.332031 307.636719 333.300781 Z M 246.40625 135.34375 "/>
</clipPath>
<linearGradient id="linear15" gradientUnits="userSpaceOnUse" x1="7.186812" y1="-0.132346" x2="5.836761" y2="0.120752" >
<stop offset="0" style="stop-color:rgb(55.294118%,82.745098%,78.039216%);stop-opacity:0.8;"/>
<stop offset="1" style="stop-color:rgb(100%,92.941176%,43.529412%);stop-opacity:0.8;"/>
</linearGradient>
<clipPath id="clip52">
  <path d="M 53 229 L 358 229 L 358 410 L 53 410 Z M 53 229 "/>
</clipPath>
<clipPath id="clip53">
  <path d="M 27.773438 144.558594 L 383.871094 144.558594 L 383.871094 466.949219 L 27.773438 466.949219 Z M 27.773438 144.558594 L 156.796875 332.421875 C 156.796875 347.394531 144.664062 359.527344 129.691406 359.527344 C 114.722656 359.527344 102.585938 347.394531 102.585938 332.421875 C 102.585938 317.453125 114.722656 305.316406 129.691406 305.316406 C 144.664062 305.316406 156.796875 317.453125 156.796875 332.421875 Z M 27.773438 144.558594 "/>
</clipPath>
<clipPath id="clip54">
  <path d="M 27.773438 144.558594 L 383.871094 144.558594 L 383.871094 466.949219 L 27.773438 466.949219 Z M 27.773438 144.558594 L 307.636719 333.300781 C 307.636719 348.269531 295.503906 360.40625 280.53125 360.40625 C 265.5625 360.40625 253.425781 348.269531 253.425781 333.300781 C 253.425781 318.332031 265.5625 306.195312 280.53125 306.195312 C 295.503906 306.195312 307.636719 318.332031 307.636719 333.300781 Z M 27.773438 144.558594 "/>
</clipPath>
<linearGradient id="linear16" gradientUnits="userSpaceOnUse" x1="4.868446" y1="0.115119" x2="5.836761" y2="0.120752" >
<stop offset="0" style="stop-color:rgb(55.294118%,82.745098%,78.039216%);stop-opacity:0.8;"/>
<stop offset="1" style="stop-color:rgb(100%,92.941176%,43.529412%);stop-opacity:0.8;"/>
</linearGradient>
<clipPath id="clip55">
  <path d="M 53 255 L 358 255 L 358 437 L 53 437 Z M 53 255 "/>
</clipPath>
<clipPath id="clip56">
  <path d="M 26.347656 198.769531 L 382.453125 198.769531 L 382.453125 521.160156 L 26.347656 521.160156 Z M 26.347656 198.769531 L 156.796875 332.421875 C 156.796875 347.394531 144.664062 359.527344 129.691406 359.527344 C 114.722656 359.527344 102.585938 347.394531 102.585938 332.421875 C 102.585938 317.453125 114.722656 305.316406 129.691406 305.316406 C 144.664062 305.316406 156.796875 317.453125 156.796875 332.421875 Z M 26.347656 198.769531 "/>
</clipPath>
<clipPath id="clip57">
  <path d="M 26.347656 198.769531 L 382.453125 198.769531 L 382.453125 521.160156 L 26.347656 521.160156 Z M 26.347656 198.769531 L 307.636719 333.300781 C 307.636719 348.269531 295.503906 360.40625 280.53125 360.40625 C 265.5625 360.40625 253.425781 348.269531 253.425781 333.300781 C 253.425781 318.332031 265.5625 306.195312 280.53125 306.195312 C 295.503906 306.195312 307.636719 318.332031 307.636719 333.300781 Z M 26.347656 198.769531 "/>
</clipPath>
<linearGradient id="linear17" gradientUnits="userSpaceOnUse" x1="4.868446" y1="0.115119" x2="5.836761" y2="0.120752" >
<stop offset="0" style="stop-color:rgb(55.294118%,82.745098%,78.039216%);stop-opacity:0.8;"/>
<stop offset="1" style="stop-color:rgb(100%,92.941176%,43.529412%);stop-opacity:0.8;"/>
</linearGradient>
</defs>
<g id="surface1">
<g clip-path="url(#clip1)" clip-rule="nonzero">
<g clip-path="url(#clip2)" clip-rule="evenodd">
<g clip-path="url(#clip3)" clip-rule="evenodd">
<path style="fill:none;stroke-width:0.0348004;stroke-linecap:butt;stroke-linejoin:miter;stroke:url(#linear0);stroke-miterlimit:10;" d="M 6.295521 -0.889768 C 6.463431 -1.190205 6.785058 -1.297306 7.099589 -1.157531 " transform="matrix(155.775315,0,0,155.775315,-628.690655,314.490536)"/>
</g>
</g>
</g>
<g clip-path="url(#clip4)" clip-rule="nonzero">
<g clip-path="url(#clip5)" clip-rule="evenodd">
<g clip-path="url(#clip6)" clip-rule="evenodd">
<path style="fill:none;stroke-width:0.0348004;stroke-linecap:butt;stroke-linejoin:miter;stroke:url(#linear1);stroke-miterlimit:10;" d="M 6.295521 -0.889768 C 6.369145 -0.490705 6.185637 -0.0865022 5.836752 0.120752 " transform="matrix(155.775315,0,0,155.775315,-628.690655,314.490536)"/>
</g>
</g>
</g>
<g clip-path="url(#clip7)" clip-rule="nonzero">
<g clip-path="url(#clip8)" clip-rule="evenodd">
<g clip-path="url(#clip9)" clip-rule="evenodd">
<path style="fill:none;stroke-width:0.0348004;stroke-linecap:butt;stroke-linejoin:miter;stroke:url(#linear2);stroke-miterlimit:10;" d="M 6.295521 -0.889768 C 6.536729 -0.970087 6.858356 -1.077187 7.099589 -1.157531 " transform="matrix(155.775315,0,0,155.775315,-628.690655,314.490536)"/>
</g>
</g>
</g>
<g clip-path="url(#clip10)" clip-rule="nonzero">
<g clip-path="url(#clip11)" clip-rule="evenodd">
<g clip-path="url(#clip12)" clip-rule="evenodd">
<path style="fill:none;stroke-width:0.0348004;stroke-linecap:butt;stroke-linejoin:miter;stroke:url(#linear3);stroke-miterlimit:10;" d="M 7.099589 -1.157531 C 6.931653 -0.857068 6.610051 -0.749968 6.295521 -0.889768 " transform="matrix(155.775315,0,0,155.775315,-628.690655,314.490536)"/>
</g>
</g>
</g>
<g clip-path="url(#clip13)" clip-rule="nonzero">
<g clip-path="url(#clip14)" clip-rule="evenodd">
<g clip-path="url(#clip15)" clip-rule="evenodd">
<path style="fill:none;stroke-width:0.0348004;stroke-linecap:butt;stroke-linejoin:miter;stroke:url(#linear4);stroke-miterlimit:10;" d="M 5.836752 0.120752 C 5.763128 -0.27831 5.946636 -0.682513 6.295521 -0.889768 " transform="matrix(155.775315,0,0,155.775315,-628.690655,314.490536)"/>
</g>
</g>
</g>
<g clip-path="url(#clip16)" clip-rule="nonzero">
<g clip-path="url(#clip17)" clip-rule="evenodd">
<g clip-path="url(#clip18)" clip-rule="evenodd">
<path style="fill:none;stroke-width:0.0348004;stroke-linecap:butt;stroke-linejoin:miter;stroke:url(#linear5);stroke-miterlimit:10;" d="M 5.836752 0.120752 C 5.974395 -0.182394 6.157903 -0.586622 6.295521 -0.889768 " transform="matrix(155.775315,0,0,155.775315,-628.690655,314.490536)"/>
</g>
</g>
</g>
<g clip-path="url(#clip19)" clip-rule="nonzero">
<g clip-path="url(#clip20)" clip-rule="evenodd">
<g clip-path="url(#clip21)" clip-rule="evenodd">
<path style="fill:none;stroke-width:0.0348004;stroke-linecap:butt;stroke-linejoin:miter;stroke:url(#linear6);stroke-miterlimit:10;" d="M 6.37599 -1.691152 C 6.582693 -1.427551 6.550495 -1.107002 6.295521 -0.889768 " transform="matrix(155.775315,0,0,155.775315,-628.690655,314.490536)"/>
</g>
</g>
</g>
<g clip-path="url(#clip22)" clip-rule="nonzero">
<g clip-path="url(#clip23)" clip-rule="evenodd">
<g clip-path="url(#clip24)" clip-rule="evenodd">
<path style="fill:none;stroke-width:0.0348004;stroke-linecap:butt;stroke-linejoin:miter;stroke:url(#linear7);stroke-miterlimit:10;" d="M 6.37599 -1.691152 C 6.428801 -1.443023 6.396603 -1.122449 6.295521 -0.889768 " transform="matrix(155.775315,0,0,155.775315,-628.690655,314.490536)"/>
</g>
</g>
</g>
<g clip-path="url(#clip25)" clip-rule="nonzero">
<g clip-path="url(#clip26)" clip-rule="evenodd">
<g clip-path="url(#clip27)" clip-rule="evenodd">
<path style="fill:none;stroke-width:0.0348004;stroke-linecap:butt;stroke-linejoin:miter;stroke:rgb(100%,92.941176%,43.529412%);stroke-opacity:0.8;stroke-miterlimit:10;" d="M 6.37599 -1.691152 L 7.099589 -1.157531 " transform="matrix(155.775315,0,0,155.775315,-628.690655,314.490536)"/>
</g>
</g>
</g>
<g clip-path="url(#clip28)" clip-rule="nonzero">
<g clip-path="url(#clip29)" clip-rule="evenodd">
<g clip-path="url(#clip30)" clip-rule="evenodd">
<path style="fill:none;stroke-width:0.0348004;stroke-linecap:butt;stroke-linejoin:miter;stroke:url(#linear8);stroke-miterlimit:10;" d="M 6.37599 -1.691152 C 6.274908 -1.45847 6.24271 -1.137921 6.295521 -0.889768 " transform="matrix(155.775315,0,0,155.775315,-628.690655,314.490536)"/>
</g>
</g>
</g>
<g clip-path="url(#clip31)" clip-rule="nonzero">
<g clip-path="url(#clip32)" clip-rule="evenodd">
<g clip-path="url(#clip33)" clip-rule="evenodd">
<path style="fill:none;stroke-width:0.0348004;stroke-linecap:butt;stroke-linejoin:miter;stroke:url(#linear9);stroke-miterlimit:10;" d="M 6.37599 -1.691152 C 6.121016 -1.473917 6.088818 -1.153368 6.295521 -0.889768 " transform="matrix(155.775315,0,0,155.775315,-628.690655,314.490536)"/>
</g>
</g>
</g>
<g clip-path="url(#clip34)" clip-rule="nonzero">
<g clip-path="url(#clip35)" clip-rule="evenodd">
<g clip-path="url(#clip36)" clip-rule="evenodd">
<path style="fill:none;stroke-width:0.0348004;stroke-linecap:butt;stroke-linejoin:miter;stroke:url(#linear10);stroke-miterlimit:10;" d="M 4.73666 1.13388 L 5.836752 0.120752 " transform="matrix(155.775315,0,0,155.775315,-628.690655,314.490536)"/>
</g>
</g>
</g>
<g clip-path="url(#clip37)" clip-rule="nonzero">
<g clip-path="url(#clip38)" clip-rule="evenodd">
<g clip-path="url(#clip39)" clip-rule="evenodd">
<path style="fill:none;stroke-width:0.0348004;stroke-linecap:butt;stroke-linejoin:miter;stroke:url(#linear11);stroke-miterlimit:10;" d="M 4.804917 -0.913139 L 5.836752 0.120752 " transform="matrix(155.775315,0,0,155.775315,-628.690655,314.490536)"/>
</g>
</g>
</g>
<g clip-path="url(#clip40)" clip-rule="nonzero">
<g clip-path="url(#clip41)" clip-rule="evenodd">
<g clip-path="url(#clip42)" clip-rule="evenodd">
<path style="fill:none;stroke-width:0.0348004;stroke-linecap:butt;stroke-linejoin:miter;stroke:url(#linear12);stroke-miterlimit:10;" d="M 6.85304 1.065573 L 5.836752 0.120752 " transform="matrix(155.775315,0,0,155.775315,-628.690655,314.490536)"/>
</g>
</g>
</g>
<g clip-path="url(#clip43)" clip-rule="nonzero">
<g clip-path="url(#clip44)" clip-rule="evenodd">
<g clip-path="url(#clip45)" clip-rule="evenodd">
<path style="fill:none;stroke-width:0.0348004;stroke-linecap:butt;stroke-linejoin:miter;stroke:url(#linear13);stroke-miterlimit:10;" d="M 5.820177 1.505108 L 5.836752 0.120752 " transform="matrix(155.775315,0,0,155.775315,-628.690655,314.490536)"/>
</g>
</g>
</g>
<g clip-path="url(#clip46)" clip-rule="nonzero">
<g clip-path="url(#clip47)" clip-rule="evenodd">
<g clip-path="url(#clip48)" clip-rule="evenodd">
<path style="fill:none;stroke-width:0.0348004;stroke-linecap:butt;stroke-linejoin:miter;stroke:url(#linear14);stroke-miterlimit:10;" d="M 7.186804 -0.132341 L 7.099589 -1.157531 " transform="matrix(155.775315,0,0,155.775315,-628.690655,314.490536)"/>
</g>
</g>
</g>
<g clip-path="url(#clip49)" clip-rule="nonzero">
<g clip-path="url(#clip50)" clip-rule="evenodd">
<g clip-path="url(#clip51)" clip-rule="evenodd">
<path style="fill:none;stroke-width:0.0348004;stroke-linecap:butt;stroke-linejoin:miter;stroke:url(#linear15);stroke-miterlimit:10;" d="M 7.186804 -0.132341 L 5.836752 0.120752 " transform="matrix(155.775315,0,0,155.775315,-628.690655,314.490536)"/>
</g>
</g>
</g>
<g clip-path="url(#clip52)" clip-rule="nonzero">
<g clip-path="url(#clip53)" clip-rule="evenodd">
<g clip-path="url(#clip54)" clip-rule="evenodd">
<path style="fill:none;stroke-width:0.0348004;stroke-linecap:butt;stroke-linejoin:miter;stroke:url(#linear16);stroke-miterlimit:10;" d="M 4.868435 0.11511 C 5.160297 -0.115189 5.547624 -0.112933 5.836752 0.120752 " transform="matrix(155.775315,0,0,155.775315,-628.690655,314.490536)"/>
</g>
</g>
</g>
<g clip-path="url(#clip55)" clip-rule="nonzero">
<g clip-path="url(#clip56)" clip-rule="evenodd">
<g clip-path="url(#clip57)" clip-rule="evenodd">
<path style="fill:none;stroke-width:0.0348004;stroke-linecap:butt;stroke-linejoin:miter;stroke:url(#linear17);stroke-miterlimit:10;" d="M 4.868435 0.11511 C 5.157589 0.34882 5.544916 0.351052 5.836752 0.120752 " transform="matrix(155.775315,0,0,155.775315,-628.690655,314.490536)"/>
</g>
</g>
</g>
<path style="fill-rule:nonzero;fill:rgb(55.294118%,82.745098%,78.039216%);fill-opacity:1;stroke-width:0.0348004;stroke-linecap:butt;stroke-linejoin:miter;stroke:rgb(55.294118%,82.745098%,78.039216%);stroke-opacity:1;stroke-miterlimit:10;" d="M 0.174004 -0.00000362895 C 0.174004 0.0960883 0.0960927 0.174 0.000000756623 0.174 C -0.0960912 0.174 -0.174003 0.0960883 -0.174003 -0.00000362895 C -0.174003 -0.0960956 -0.0960912 -0.174007 0.000000756623 -0.174007 C 0.0960927 -0.174007 0.174004 -0.0960956 0.174004 -0.00000362895 Z M 0.174004 -0.00000362895 " transform="matrix(155.775315,0,0,155.775315,351.995976,175.887284)"/>
<path style="fill-rule:nonzero;fill:rgb(100%,92.941176%,43.529412%);fill-opacity:1;stroke-width:0.0348004;stroke-linecap:butt;stroke-linejoin:miter;stroke:rgb(100%,92.941176%,43.529412%);stroke-opacity:1;stroke-miterlimit:10;" d="M 0.174008 -0.0000086394 C 0.174008 0.0961084 0.0960963 0.173995 0.00000439234 0.173995 C -0.0960875 0.173995 -0.173999 0.0961084 -0.173999 -0.0000086394 C -0.173999 -0.0961006 -0.0960875 -0.174012 0.00000439234 -0.174012 C 0.0960963 -0.174012 0.174008 -0.0961006 0.174008 -0.0000086394 Z M 0.174008 -0.0000086394 " transform="matrix(155.775315,0,0,155.775315,477.249316,134.177127)"/>
<path style="fill-rule:nonzero;fill:rgb(100%,92.941176%,43.529412%);fill-opacity:1;stroke-width:0.0348004;stroke-linecap:butt;stroke-linejoin:miter;stroke:rgb(100%,92.941176%,43.529412%);stroke-opacity:1;stroke-miterlimit:10;" d="M 0.173994 0.000000316178 C 0.173994 0.0960922 0.0961078 0.174004 -0.00000915527 0.174004 C -0.0961011 0.174004 -0.174013 0.0960922 -0.174013 0.000000316178 C -0.174013 -0.0960916 -0.0961011 -0.174003 -0.00000915527 -0.174003 C 0.0961078 -0.174003 0.173994 -0.0960916 0.173994 0.000000316178 Z M 0.173994 0.000000316178 " transform="matrix(155.775315,0,0,155.775315,280.532676,333.300732)"/>
<path style="fill-rule:nonzero;fill:rgb(100%,92.941176%,43.529412%);fill-opacity:1;stroke-width:0.0348004;stroke-linecap:butt;stroke-linejoin:miter;stroke:rgb(100%,92.941176%,43.529412%);stroke-opacity:1;stroke-miterlimit:10;" d="M 0.173993 0.00000523783 C 0.173993 0.0960972 0.0961062 0.174009 -0.0000108128 0.174009 C -0.0961027 0.174009 -0.174014 0.0960972 -0.174014 0.00000523783 C -0.174014 -0.0960867 -0.0961027 -0.173998 -0.0000108128 -0.173998 C 0.0961062 -0.173998 0.173993 -0.0960867 0.173993 0.00000523783 Z M 0.173993 0.00000523783 " transform="matrix(155.775315,0,0,155.775315,364.532934,51.049965)"/>
<path style="fill-rule:nonzero;fill:rgb(55.294118%,82.745098%,78.039216%);fill-opacity:1;stroke-width:0.0348004;stroke-linecap:butt;stroke-linejoin:miter;stroke:rgb(55.294118%,82.745098%,78.039216%);stroke-opacity:1;stroke-miterlimit:10;" d="M 0.174012 0.00000732683 C 0.174012 0.0960993 0.0961001 0.174011 0.00000814948 0.174011 C -0.0961089 0.174011 -0.173995 0.0960993 -0.173995 0.00000732683 C -0.173995 -0.0961097 -0.0961089 -0.173996 0.00000814948 -0.173996 C 0.0961001 -0.173996 0.174012 -0.0961097 0.174012 0.00000732683 Z M 0.174012 0.00000732683 " transform="matrix(155.775315,0,0,155.775315,109.162793,491.119952)"/>
<path style="fill-rule:nonzero;fill:rgb(55.294118%,82.745098%,78.039216%);fill-opacity:1;stroke-width:0.0348004;stroke-linecap:butt;stroke-linejoin:miter;stroke:rgb(55.294118%,82.745098%,78.039216%);stroke-opacity:1;stroke-miterlimit:10;" d="M 0.174003 0.00000920347 C 0.174003 0.0961011 0.0960918 0.174013 -0.000000151194 0.174013 C -0.0960921 0.174013 -0.174004 0.0961011 -0.174004 0.00000920347 C -0.174004 -0.0961078 -0.0960921 -0.173994 -0.000000151194 -0.173994 C 0.0960918 -0.173994 0.174003 -0.0961078 0.174003 0.00000920347 Z M 0.174003 0.00000920347 " transform="matrix(155.775315,0,0,155.775315,119.796899,172.24466)"/>
<path style="fill-rule:nonzero;fill:rgb(55.294118%,82.745098%,78.039216%);fill-opacity:1;stroke-width:0.0348004;stroke-linecap:butt;stroke-linejoin:miter;stroke:rgb(55.294118%,82.745098%,78.039216%);stroke-opacity:1;stroke-miterlimit:10;" d="M 0.174011 0.00000356135 C 0.174011 0.0960955 0.0960992 0.174007 0.0000072701 0.174007 C -0.0961097 0.174007 -0.173996 0.0960955 -0.173996 0.00000356135 C -0.173996 -0.0960884 -0.0961097 -0.174 0.0000072701 -0.174 C 0.0960992 -0.174 0.174011 -0.0960884 0.174011 0.00000356135 Z M 0.174011 0.00000356135 " transform="matrix(155.775315,0,0,155.775315,438.842617,480.479914)"/>
<path style="fill-rule:nonzero;fill:rgb(55.294118%,82.745098%,78.039216%);fill-opacity:1;stroke-width:0.0348004;stroke-linecap:butt;stroke-linejoin:miter;stroke:rgb(55.294118%,82.745098%,78.039216%);stroke-opacity:1;stroke-miterlimit:10;" d="M 0.174012 -0.00000523783 C 0.174012 0.0960867 0.0961005 0.173998 0.0000085921 0.173998 C -0.0961084 0.173998 -0.173995 0.0960867 -0.173995 -0.00000523783 C -0.173995 -0.0960972 -0.0961084 -0.174009 0.0000085921 -0.174009 C 0.0961005 -0.174009 0.174012 -0.0960972 0.174012 -0.00000523783 Z M 0.174012 -0.00000523783 " transform="matrix(155.775315,0,0,155.775315,277.94788,548.950035)"/>
<path style="fill-rule:nonzero;fill:rgb(55.294118%,82.745098%,78.039216%);fill-opacity:1;stroke-width:0.0348004;stroke-linecap:butt;stroke-linejoin:miter;stroke:rgb(55.294118%,82.745098%,78.039216%);stroke-opacity:1;stroke-miterlimit:10;" d="M 0.173995 0.00000429482 C 0.173995 0.0960962 0.0961089 0.174008 -0.00000814948 0.174008 C -0.0961001 0.174008 -0.174012 0.0960962 -0.174012 0.00000429482 C -0.174012 -0.0960876 -0.0961001 -0.173999 -0.00000814948 -0.173999 C 0.0961089 -0.173999 0.173995 -0.0960876 0.173995 0.00000429482 Z M 0.173995 0.00000429482 " transform="matrix(155.775315,0,0,155.775315,490.837207,293.874331)"/>
<path style="fill-rule:nonzero;fill:rgb(55.294118%,82.745098%,78.039216%);fill-opacity:1;stroke-width:0.0348004;stroke-linecap:butt;stroke-linejoin:miter;stroke:rgb(55.294118%,82.745098%,78.039216%);stroke-opacity:1;stroke-miterlimit:10;" d="M 0.173993 -0.00000873791 C 0.173993 0.0961083 0.096106 0.173995 -0.0000109991 0.173995 C -0.0961029 0.173995 -0.174015 0.0961083 -0.174015 -0.00000873791 C -0.174015 -0.0961007 -0.0961029 -0.174012 -0.0000109991 -0.174012 C 0.096106 -0.174012 0.173993 -0.0961007 0.173993 -0.00000873791 Z M 0.173993 -0.00000873791 " transform="matrix(155.775315,0,0,155.775315,129.69312,332.423236)"/>
</g>
</svg>
