<?xml version="1.0" encoding="UTF-8"?>
<svg xmlns="http://www.w3.org/2000/svg" xmlns:xlink="http://www.w3.org/1999/xlink" width="600pt" height="600pt" viewBox="0 0 600 600" version="1.1">
<defs>
<clipPath id="clip1">
  <path d="M 250 0 L 600 0 L 600 383 L 250 383 Z M 250 0 "/>
</clipPath>
<clipPath id="clip2">
  <path d="M 115.765625 -65.753906 L 692.183594 -65.753906 L 692.183594 517.320312 L 115.765625 517.320312 Z M 115.765625 -65.753906 L 476.351562 84.800781 C 476.351562 95.847656 467.398438 104.800781 456.351562 104.800781 C 445.304688 104.800781 436.351562 95.847656 436.351562 84.800781 C 436.351562 73.753906 445.304688 64.800781 456.351562 64.800781 C 467.398438 64.800781 476.351562 73.753906 476.351562 84.800781 Z M 115.765625 -65.753906 "/>
</clipPath>
<clipPath id="clip3">
  <path d="M 115.765625 -65.753906 L 692.183594 -65.753906 L 692.183594 517.320312 L 115.765625 517.320312 Z M 115.765625 -65.753906 L 572.980469 217.800781 C 572.980469 228.847656 564.027344 237.800781 552.980469 237.800781 C 541.933594 237.800781 532.980469 228.847656 532.980469 217.800781 C 532.980469 206.753906 541.933594 197.800781 552.980469 197.800781 C 564.027344 197.800781 572.980469 206.753906 572.980469 217.800781 Z M 115.765625 -65.753906 "/>
</clipPath>
<clipPath id="clip4">
  <path d="M 158 0 L 600 0 L 600 379 L 158 379 Z M 158 0 "/>
</clipPath>
<clipPath id="clip5">
  <path d="M 25.578125 -52.617188 L 617.1875 -52.617188 L 617.1875 512.832031 L 25.578125 512.832031 Z M 25.578125 -52.617188 L 320 34 C 320 45.046875 311.046875 54 300 54 C 288.953125 54 280 45.046875 280 34 C 280 22.953125 288.953125 14 300 14 C 311.046875 14 320 22.953125 320 34 Z M 25.578125 -52.617188 "/>
</clipPath>
<clipPath id="clip6">
  <path d="M 25.578125 -52.617188 L 617.1875 -52.617188 L 617.1875 512.832031 L 25.578125 512.832031 Z M 25.578125 -52.617188 L 572.980469 217.800781 C 572.980469 228.847656 564.027344 237.800781 552.980469 237.800781 C 541.933594 237.800781 532.980469 228.847656 532.980469 217.800781 C 532.980469 206.753906 541.933594 197.800781 552.980469 197.800781 C 564.027344 197.800781 572.980469 206.753906 572.980469 217.800781 Z M 25.578125 -52.617188 "/>
</clipPath>
<clipPath id="clip7">
  <path d="M 250 0 L 600 0 L 600 524 L 250 524 Z M 250 0 "/>
</clipPath>
<clipPath id="clip8">
  <path d="M 115.707031 -57.214844 L 697.28125 -57.214844 L 697.28125 634.730469 L 115.707031 634.730469 Z M 115.707031 -57.214844 L 572.980469 382.199219 C 572.980469 393.246094 564.027344 402.199219 552.980469 402.199219 C 541.933594 402.199219 532.980469 393.246094 532.980469 382.199219 C 532.980469 371.152344 541.933594 362.199219 552.980469 362.199219 C 564.027344 362.199219 572.980469 371.152344 572.980469 382.199219 Z M 115.707031 -57.214844 "/>
</clipPath>
<clipPath id="clip9">
  <path d="M 115.707031 -57.214844 L 697.28125 -57.214844 L 697.28125 634.730469 L 115.707031 634.730469 Z M 115.707031 -57.214844 L 476.351562 84.800781 C 476.351562 95.847656 467.398438 104.800781 456.351562 104.800781 C 445.304688 104.800781 436.351562 95.847656 436.351562 84.800781 C 436.351562 73.753906 445.304688 64.800781 456.351562 64.800781 C 467.398438 64.800781 476.351562 73.753906 476.351562 84.800781 Z M 115.707031 -57.214844 "/>
</clipPath>
<clipPath id="clip10">
  <path d="M 250 76 L 600 76 L 600 600 L 250 600 Z M 250 76 "/>
</clipPath>
<clipPath id="clip11">
  <path d="M 115.707031 -34.730469 L 697.28125 -34.730469 L 697.28125 657.214844 L 115.707031 657.214844 Z M 115.707031 -34.730469 L 476.351562 515.199219 C 476.351562 526.246094 467.398438 535.199219 456.351562 535.199219 C 445.304688 535.199219 436.351562 526.246094 436.351562 515.199219 C 436.351562 504.152344 445.304688 495.199219 456.351562 495.199219 C 467.398438 495.199219 476.351562 504.152344 476.351562 515.199219 Z M 115.707031 -34.730469 "/>
</clipPath>
<clipPath id="clip12">
  <path d="M 115.707031 -34.730469 L 697.28125 -34.730469 L 697.28125 657.214844 L 115.707031 657.214844 Z M 115.707031 -34.730469 L 572.980469 217.800781 C 572.980469 228.847656 564.027344 237.800781 552.980469 237.800781 C 541.933594 237.800781 532.980469 228.847656 532.980469 217.800781 C 532.980469 206.753906 541.933594 197.800781 552.980469 197.800781 C 564.027344 197.800781 572.980469 206.753906 572.980469 217.800781 Z M 115.707031 -34.730469 "/>
</clipPath>
<clipPath id="clip13">
  <path d="M 158 0 L 598 0 L 598 591.90625 L 158 591.90625 Z M 158 0 "/>
</clipPath>
<clipPath id="clip14">
  <path d="M 24.476562 -68.394531 L 690.519531 -68.394531 L 690.519531 591.90625 L 24.476562 591.90625 Z M 24.476562 -68.394531 L 320 566 C 320 577.046875 311.046875 586 300 586 C 288.953125 586 280 577.046875 280 566 C 280 554.953125 288.953125 546 300 546 C 311.046875 546 320 554.953125 320 566 Z M 24.476562 -68.394531 "/>
</clipPath>
<clipPath id="clip15">
  <path d="M 24.476562 -68.394531 L 690.519531 -68.394531 L 690.519531 591.90625 L 24.476562 591.90625 Z M 24.476562 -68.394531 L 476.351562 84.800781 C 476.351562 95.847656 467.398438 104.800781 456.351562 104.800781 C 445.304688 104.800781 436.351562 95.847656 436.351562 84.800781 C 436.351562 73.753906 445.304688 64.800781 456.351562 64.800781 C 467.398438 64.800781 476.351562 73.753906 476.351562 84.800781 Z M 24.476562 -68.394531 "/>
</clipPath>
<clipPath id="clip16">
  <path d="M 0 0 L 598 0 L 598 383 L 0 383 Z M 0 0 "/>
</clipPath>
<clipPath id="clip17">
  <path d="M -19.039062 -102.609375 L 664.550781 -102.609375 L 664.550781 517.34375 L -19.039062 517.34375 Z M -19.039062 -102.609375 L 67.019531 217.800781 C 67.019531 228.847656 58.066406 237.800781 47.019531 237.800781 C 35.972656 237.800781 27.019531 228.847656 27.019531 217.800781 C 27.019531 206.753906 35.972656 197.800781 47.019531 197.800781 C 58.066406 197.800781 67.019531 206.753906 67.019531 217.800781 Z M -19.039062 -102.609375 "/>
</clipPath>
<clipPath id="clip18">
  <path d="M -19.039062 -102.609375 L 664.550781 -102.609375 L 664.550781 517.34375 L -19.039062 517.34375 Z M -19.039062 -102.609375 L 476.351562 84.800781 C 476.351562 95.847656 467.398438 104.800781 456.351562 104.800781 C 445.304688 104.800781 436.351562 95.847656 436.351562 84.800781 C 436.351562 73.753906 445.304688 64.800781 456.351562 64.800781 C 467.398438 64.800781 476.351562 73.753906 476.351562 84.800781 Z M -19.039062 -102.609375 "/>
</clipPath>
<clipPath id="clip19">
  <path d="M 0 0 L 442 0 L 442 379 L 0 379 Z M 0 0 "/>
</clipPath>
<clipPath id="clip20">
  <path d="M -17.1875 -52.617188 L 574.421875 -52.617188 L 574.421875 512.832031 L -17.1875 512.832031 Z M -17.1875 -52.617188 L 67.019531 217.800781 C 67.019531 228.847656 58.066406 237.800781 47.019531 237.800781 C 35.972656 237.800781 27.019531 228.847656 27.019531 217.800781 C 27.019531 206.753906 35.972656 197.800781 47.019531 197.800781 C 58.066406 197.800781 67.019531 206.753906 67.019531 217.800781 Z M -17.1875 -52.617188 "/>
</clipPath>
<clipPath id="clip21">
  <path d="M -17.1875 -52.617188 L 574.421875 -52.617188 L 574.421875 512.832031 L -17.1875 512.832031 Z M -17.1875 -52.617188 L 320 34 C 320 45.046875 311.046875 54 300 54 C 288.953125 54 280 45.046875 280 34 C 280 22.953125 288.953125 14 300 14 C 311.046875 14 320 22.953125 320 34 Z M -17.1875 -52.617188 "/>
</clipPath>
<clipPath id="clip22">
  <path d="M 0 76 L 600 76 L 600 404 L 0 404 Z M 0 76 "/>
</clipPath>
<clipPath id="clip23">
  <path d="M -29.90625 -49.640625 L 629.90625 -49.640625 L 629.90625 537.640625 L -29.90625 537.640625 Z M -29.90625 -49.640625 L 67.019531 217.800781 C 67.019531 228.847656 58.066406 237.800781 47.019531 237.800781 C 35.972656 237.800781 27.019531 228.847656 27.019531 217.800781 C 27.019531 206.753906 35.972656 197.800781 47.019531 197.800781 C 58.066406 197.800781 67.019531 206.753906 67.019531 217.800781 Z M -29.90625 -49.640625 "/>
</clipPath>
<clipPath id="clip24">
  <path d="M -29.90625 -49.640625 L 629.90625 -49.640625 L 629.90625 537.640625 L -29.90625 537.640625 Z M -29.90625 -49.640625 L 572.980469 217.800781 C 572.980469 228.847656 564.027344 237.800781 552.980469 237.800781 C 541.933594 237.800781 532.980469 228.847656 532.980469 217.800781 C 532.980469 206.753906 541.933594 197.800781 552.980469 197.800781 C 564.027344 197.800781 572.980469 206.753906 572.980469 217.800781 Z M -29.90625 -49.640625 "/>
</clipPath>
<clipPath id="clip25">
  <path d="M 0 0 L 442 0 L 442 524 L 0 524 Z M 0 0 "/>
</clipPath>
<clipPath id="clip26">
  <path d="M -70.484375 -3.027344 L 574.625 -3.027344 L 574.625 635.507812 L -70.484375 635.507812 Z M -70.484375 -3.027344 L 67.019531 382.199219 C 67.019531 393.246094 58.066406 402.199219 47.019531 402.199219 C 35.972656 402.199219 27.019531 393.246094 27.019531 382.199219 C 27.019531 371.152344 35.972656 362.199219 47.019531 362.199219 C 58.066406 362.199219 67.019531 371.152344 67.019531 382.199219 Z M -70.484375 -3.027344 "/>
</clipPath>
<clipPath id="clip27">
  <path d="M -70.484375 -3.027344 L 574.625 -3.027344 L 574.625 635.507812 L -70.484375 635.507812 Z M -70.484375 -3.027344 L 320 34 C 320 45.046875 311.046875 54 300 54 C 288.953125 54 280 45.046875 280 34 C 280 22.953125 288.953125 14 300 14 C 311.046875 14 320 22.953125 320 34 Z M -70.484375 -3.027344 "/>
</clipPath>
<clipPath id="clip28">
  <path d="M 0 76 L 600 76 L 600 524 L 0 524 Z M 0 76 "/>
</clipPath>
<clipPath id="clip29">
  <path d="M -45.175781 -45.179688 L 645.175781 -45.179688 L 645.175781 645.179688 L -45.175781 645.179688 Z M -45.175781 -45.179688 L 67.019531 382.199219 C 67.019531 393.246094 58.066406 402.199219 47.019531 402.199219 C 35.972656 402.199219 27.019531 393.246094 27.019531 382.199219 C 27.019531 371.152344 35.972656 362.199219 47.019531 362.199219 C 58.066406 362.199219 67.019531 371.152344 67.019531 382.199219 Z M -45.175781 -45.179688 "/>
</clipPath>
<clipPath id="clip30">
  <path d="M -45.175781 -45.179688 L 645.175781 -45.179688 L 645.175781 645.179688 L -45.175781 645.179688 Z M -45.175781 -45.179688 L 572.980469 217.800781 C 572.980469 228.847656 564.027344 237.800781 552.980469 237.800781 C 541.933594 237.800781 532.980469 228.847656 532.980469 217.800781 C 532.980469 206.753906 541.933594 197.800781 552.980469 197.800781 C 564.027344 197.800781 572.980469 206.753906 572.980469 217.800781 Z M -45.175781 -45.179688 "/>
</clipPath>
<clipPath id="clip31">
  <path d="M 2 76 L 600 76 L 600 600 L 2 600 Z M 2 76 "/>
</clipPath>
<clipPath id="clip32">
  <path d="M -71.820312 -39.804688 L 660.175781 -39.804688 L 660.175781 694.132812 L -71.820312 694.132812 Z M -71.820312 -39.804688 L 163.648438 515.199219 C 163.648438 526.246094 154.695312 535.199219 143.648438 535.199219 C 132.601562 535.199219 123.648438 526.246094 123.648438 515.199219 C 123.648438 504.152344 132.601562 495.199219 143.648438 495.199219 C 154.695312 495.199219 163.648438 504.152344 163.648438 515.199219 Z M -71.820312 -39.804688 "/>
</clipPath>
<clipPath id="clip33">
  <path d="M -71.820312 -39.804688 L 660.175781 -39.804688 L 660.175781 694.132812 L -71.820312 694.132812 Z M -71.820312 -39.804688 L 572.980469 217.800781 C 572.980469 228.847656 564.027344 237.800781 552.980469 237.800781 C 541.933594 237.800781 532.980469 228.847656 532.980469 217.800781 C 532.980469 206.753906 541.933594 197.800781 552.980469 197.800781 C 564.027344 197.800781 572.980469 206.753906 572.980469 217.800781 Z M -71.820312 -39.804688 "/>
</clipPath>
<clipPath id="clip34">
  <path d="M 2 0 L 600 0 L 600 383 L 2 383 Z M 2 0 "/>
</clipPath>
<clipPath id="clip35">
  <path d="M -64.550781 -102.609375 L 619.039062 -102.609375 L 619.039062 517.34375 L -64.550781 517.34375 Z M -64.550781 -102.609375 L 163.648438 84.800781 C 163.648438 95.847656 154.695312 104.800781 143.648438 104.800781 C 132.601562 104.800781 123.648438 95.847656 123.648438 84.800781 C 123.648438 73.753906 132.601562 64.800781 143.648438 64.800781 C 154.695312 64.800781 163.648438 73.753906 163.648438 84.800781 Z M -64.550781 -102.609375 "/>
</clipPath>
<clipPath id="clip36">
  <path d="M -64.550781 -102.609375 L 619.039062 -102.609375 L 619.039062 517.34375 L -64.550781 517.34375 Z M -64.550781 -102.609375 L 572.980469 217.800781 C 572.980469 228.847656 564.027344 237.800781 552.980469 237.800781 C 541.933594 237.800781 532.980469 228.847656 532.980469 217.800781 C 532.980469 206.753906 541.933594 197.800781 552.980469 197.800781 C 564.027344 197.800781 572.980469 206.753906 572.980469 217.800781 Z M -64.550781 -102.609375 "/>
</clipPath>
<clipPath id="clip37">
  <path d="M 2 0 L 598 0 L 598 341 L 2 341 Z M 2 0 "/>
</clipPath>
<clipPath id="clip38">
  <path d="M -63.269531 -104.023438 L 663.269531 -104.023438 L 663.269531 475.574219 L -63.269531 475.574219 Z M -63.269531 -104.023438 L 163.648438 84.800781 C 163.648438 95.847656 154.695312 104.800781 143.648438 104.800781 C 132.601562 104.800781 123.648438 95.847656 123.648438 84.800781 C 123.648438 73.753906 132.601562 64.800781 143.648438 64.800781 C 154.695312 64.800781 163.648438 73.753906 163.648438 84.800781 Z M -63.269531 -104.023438 "/>
</clipPath>
<clipPath id="clip39">
  <path d="M -63.269531 -104.023438 L 663.269531 -104.023438 L 663.269531 475.574219 L -63.269531 475.574219 Z M -63.269531 -104.023438 L 476.351562 84.800781 C 476.351562 95.847656 467.398438 104.800781 456.351562 104.800781 C 445.304688 104.800781 436.351562 95.847656 436.351562 84.800781 C 436.351562 73.753906 445.304688 64.800781 456.351562 64.800781 C 467.398438 64.800781 476.351562 73.753906 476.351562 84.800781 Z M -63.269531 -104.023438 "/>
</clipPath>
<clipPath id="clip40">
  <path d="M 2 0 L 442 0 L 442 331 L 2 331 Z M 2 0 "/>
</clipPath>
<clipPath id="clip41">
  <path d="M -69.808594 -96.550781 L 575.316406 -96.550781 L 575.316406 464.449219 L -69.808594 464.449219 Z M -69.808594 -96.550781 L 163.648438 84.800781 C 163.648438 95.847656 154.695312 104.800781 143.648438 104.800781 C 132.601562 104.800781 123.648438 95.847656 123.648438 84.800781 C 123.648438 73.753906 132.601562 64.800781 143.648438 64.800781 C 154.695312 64.800781 163.648438 73.753906 163.648438 84.800781 Z M -69.808594 -96.550781 "/>
</clipPath>
<clipPath id="clip42">
  <path d="M -69.808594 -96.550781 L 575.316406 -96.550781 L 575.316406 464.449219 L -69.808594 464.449219 Z M -69.808594 -96.550781 L 320 34 C 320 45.046875 311.046875 54 300 54 C 288.953125 54 280 45.046875 280 34 C 280 22.953125 288.953125 14 300 14 C 311.046875 14 320 22.953125 320 34 Z M -69.808594 -96.550781 "/>
</clipPath>
</defs>
<g id="surface1">
<g clip-path="url(#clip1)" clip-rule="nonzero">
<g clip-path="url(#clip2)" clip-rule="evenodd">
<g clip-path="url(#clip3)" clip-rule="evenodd">
<path style="fill:none;stroke-width:0.037594;stroke-linecap:butt;stroke-linejoin:miter;stroke:rgb(27.45098%,50.980392%,70.588235%);stroke-opacity:0.6;stroke-miterlimit:10;" d="M 0.587788 -0.80902 C 0.587788 -0.80902 0.587788 -0.80902 0.515463 -0.692816 C 0.443154 -0.576612 0.29852 -0.344205 0.359067 -0.260882 C 0.419613 -0.177543 0.685327 -0.243274 0.818198 -0.276154 C 0.951054 -0.30902 0.951054 -0.30902 0.951054 -0.30902 " transform="matrix(266,0,0,266,300,300)"/>
</g>
</g>
</g>
<g clip-path="url(#clip4)" clip-rule="nonzero">
<g clip-path="url(#clip5)" clip-rule="evenodd">
<g clip-path="url(#clip6)" clip-rule="evenodd">
<path style="fill:none;stroke-width:0.037594;stroke-linecap:butt;stroke-linejoin:miter;stroke:rgb(27.45098%,50.980392%,70.588235%);stroke-opacity:0.6;stroke-miterlimit:10;" d="M 0 -1 C 0 -1 0 -1 0.0158453 -0.855146 C 0.0317052 -0.710306 0.0634105 -0.420597 0.221907 -0.305436 C 0.380419 -0.190275 0.665737 -0.249648 0.808403 -0.279326 C 0.951054 -0.30902 0.951054 -0.30902 0.951054 -0.30902 " transform="matrix(266,0,0,266,300,300)"/>
</g>
</g>
</g>
<g clip-path="url(#clip7)" clip-rule="nonzero">
<g clip-path="url(#clip8)" clip-rule="evenodd">
<g clip-path="url(#clip9)" clip-rule="evenodd">
<path style="fill:none;stroke-width:0.037594;stroke-linecap:butt;stroke-linejoin:miter;stroke:rgb(27.45098%,50.980392%,70.588235%);stroke-opacity:0.6;stroke-miterlimit:10;" d="M 0.951054 0.30902 C 0.951054 0.30902 0.951054 0.30902 0.818198 0.249178 C 0.685327 0.18935 0.419613 0.0696664 0.359067 -0.116674 C 0.29852 -0.302999 0.443154 -0.556009 0.515463 -0.682507 C 0.587788 -0.80902 0.587788 -0.80902 0.587788 -0.80902 " transform="matrix(266,0,0,266,300,300)"/>
</g>
</g>
</g>
<g clip-path="url(#clip10)" clip-rule="nonzero">
<g clip-path="url(#clip11)" clip-rule="evenodd">
<g clip-path="url(#clip12)" clip-rule="evenodd">
<path style="fill:none;stroke-width:0.037594;stroke-linecap:butt;stroke-linejoin:miter;stroke:rgb(27.45098%,50.980392%,70.588235%);stroke-opacity:0.6;stroke-miterlimit:10;" d="M 0.587788 0.80902 C 0.587788 0.80902 0.587788 0.80902 0.515463 0.682507 C 0.443154 0.556009 0.29852 0.302999 0.359067 0.116674 C 0.419613 -0.0696664 0.685327 -0.18935 0.818198 -0.249178 C 0.951054 -0.30902 0.951054 -0.30902 0.951054 -0.30902 " transform="matrix(266,0,0,266,300,300)"/>
</g>
</g>
</g>
<g clip-path="url(#clip13)" clip-rule="nonzero">
<g clip-path="url(#clip14)" clip-rule="evenodd">
<g clip-path="url(#clip15)" clip-rule="evenodd">
<path style="fill:none;stroke-width:0.037594;stroke-linecap:butt;stroke-linejoin:miter;stroke:rgb(27.45098%,50.980392%,70.588235%);stroke-opacity:0.6;stroke-miterlimit:10;" d="M 0 1 C 0 1 0 1 0.009795 0.83651 C 0.01959 0.673035 0.03918 0.34607 0.137145 0.0445694 C 0.235109 -0.256946 0.411449 -0.532983 0.499618 -0.670994 C 0.587788 -0.80902 0.587788 -0.80902 0.587788 -0.80902 " transform="matrix(266,0,0,266,300,300)"/>
</g>
</g>
</g>
<g clip-path="url(#clip16)" clip-rule="nonzero">
<g clip-path="url(#clip17)" clip-rule="evenodd">
<g clip-path="url(#clip18)" clip-rule="evenodd">
<path style="fill:none;stroke-width:0.037594;stroke-linecap:butt;stroke-linejoin:miter;stroke:rgb(27.45098%,50.980392%,70.588235%);stroke-opacity:0.6;stroke-miterlimit:10;" d="M -0.951054 -0.30902 C -0.951054 -0.30902 -0.951054 -0.30902 -0.798608 -0.276154 C -0.646147 -0.243274 -0.341239 -0.177543 -0.0847627 -0.260882 C 0.171713 -0.344205 0.379743 -0.576612 0.483773 -0.692816 C 0.587788 -0.80902 0.587788 -0.80902 0.587788 -0.80902 " transform="matrix(266,0,0,266,300,300)"/>
</g>
</g>
</g>
<g clip-path="url(#clip19)" clip-rule="nonzero">
<g clip-path="url(#clip20)" clip-rule="evenodd">
<g clip-path="url(#clip21)" clip-rule="evenodd">
<path style="fill:none;stroke-width:0.037594;stroke-linecap:butt;stroke-linejoin:miter;stroke:rgb(27.45098%,50.980392%,70.588235%);stroke-opacity:0.6;stroke-miterlimit:10;" d="M -0.951054 -0.30902 C -0.951054 -0.30902 -0.951054 -0.30902 -0.808403 -0.279326 C -0.665737 -0.249648 -0.380419 -0.190275 -0.221907 -0.305436 C -0.0634105 -0.420597 -0.0317052 -0.710306 -0.0158453 -0.855146 C 0 -1 0 -1 0 -1 " transform="matrix(266,0,0,266,300,300)"/>
</g>
</g>
</g>
<g clip-path="url(#clip22)" clip-rule="nonzero">
<g clip-path="url(#clip23)" clip-rule="evenodd">
<g clip-path="url(#clip24)" clip-rule="evenodd">
<path style="fill:none;stroke-width:0.037594;stroke-linecap:butt;stroke-linejoin:miter;stroke:rgb(27.45098%,50.980392%,70.588235%);stroke-opacity:0.6;stroke-miterlimit:10;" d="M -0.951054 -0.30902 C -0.951054 -0.30902 -0.951054 -0.30902 -0.792543 -0.267813 C -0.634031 -0.226607 -0.317023 -0.144208 0 -0.144208 C 0.317023 -0.144208 0.634031 -0.226607 0.792543 -0.267813 C 0.951054 -0.30902 0.951054 -0.30902 0.951054 -0.30902 " transform="matrix(266,0,0,266,300,300)"/>
</g>
</g>
</g>
<g clip-path="url(#clip25)" clip-rule="nonzero">
<g clip-path="url(#clip26)" clip-rule="evenodd">
<g clip-path="url(#clip27)" clip-rule="evenodd">
<path style="fill:none;stroke-width:0.037594;stroke-linecap:butt;stroke-linejoin:miter;stroke:rgb(27.45098%,50.980392%,70.588235%);stroke-opacity:0.6;stroke-miterlimit:10;" d="M -0.951054 0.30902 C -0.951054 0.30902 -0.951054 0.30902 -0.808403 0.245991 C -0.665737 0.182977 -0.380419 0.0569343 -0.221907 -0.161228 C -0.0634105 -0.379406 -0.0317052 -0.689703 -0.0158453 -0.844851 C 0 -1 0 -1 0 -1 " transform="matrix(266,0,0,266,300,300)"/>
</g>
</g>
</g>
<g clip-path="url(#clip28)" clip-rule="nonzero">
<g clip-path="url(#clip29)" clip-rule="evenodd">
<g clip-path="url(#clip30)" clip-rule="evenodd">
<path style="fill:none;stroke-width:0.037594;stroke-linecap:butt;stroke-linejoin:miter;stroke:rgb(27.45098%,50.980392%,70.588235%);stroke-opacity:0.6;stroke-miterlimit:10;" d="M -0.951054 0.30902 C -0.951054 0.30902 -0.951054 0.30902 -0.792543 0.257519 C -0.634031 0.206018 -0.317023 0.103002 0 0 C 0.317023 -0.103002 0.634031 -0.206018 0.792543 -0.257519 C 0.951054 -0.30902 0.951054 -0.30902 0.951054 -0.30902 " transform="matrix(266,0,0,266,300,300)"/>
</g>
</g>
</g>
<g clip-path="url(#clip31)" clip-rule="nonzero">
<g clip-path="url(#clip32)" clip-rule="evenodd">
<g clip-path="url(#clip33)" clip-rule="evenodd">
<path style="fill:none;stroke-width:0.037594;stroke-linecap:butt;stroke-linejoin:miter;stroke:rgb(27.45098%,50.980392%,70.588235%);stroke-opacity:0.6;stroke-miterlimit:10;" d="M -0.587788 0.80902 C -0.587788 0.80902 -0.587788 0.80902 -0.483773 0.682507 C -0.379743 0.556009 -0.171713 0.302999 0.0847627 0.116674 C 0.341239 -0.0696664 0.646147 -0.18935 0.798608 -0.249178 C 0.951054 -0.30902 0.951054 -0.30902 0.951054 -0.30902 " transform="matrix(266,0,0,266,300,300)"/>
</g>
</g>
</g>
<g clip-path="url(#clip34)" clip-rule="nonzero">
<g clip-path="url(#clip35)" clip-rule="evenodd">
<g clip-path="url(#clip36)" clip-rule="evenodd">
<path style="fill:none;stroke-width:0.037594;stroke-linecap:butt;stroke-linejoin:miter;stroke:rgb(27.45098%,50.980392%,70.588235%);stroke-opacity:0.6;stroke-miterlimit:10;" d="M -0.587788 -0.80902 C -0.587788 -0.80902 -0.587788 -0.80902 -0.483773 -0.692816 C -0.379743 -0.576612 -0.171713 -0.344205 0.0847627 -0.260882 C 0.341239 -0.177543 0.646147 -0.243274 0.798608 -0.276154 C 0.951054 -0.30902 0.951054 -0.30902 0.951054 -0.30902 " transform="matrix(266,0,0,266,300,300)"/>
</g>
</g>
</g>
<g clip-path="url(#clip37)" clip-rule="nonzero">
<g clip-path="url(#clip38)" clip-rule="evenodd">
<g clip-path="url(#clip39)" clip-rule="evenodd">
<path style="fill:none;stroke-width:0.037594;stroke-linecap:butt;stroke-linejoin:miter;stroke:rgb(27.45098%,50.980392%,70.588235%);stroke-opacity:0.6;stroke-miterlimit:10;" d="M -0.587788 -0.80902 C -0.587788 -0.80902 -0.587788 -0.80902 -0.489823 -0.701143 C -0.391859 -0.59328 -0.195929 -0.377541 0 -0.377541 C 0.195929 -0.377541 0.391859 -0.59328 0.489823 -0.701143 C 0.587788 -0.80902 0.587788 -0.80902 0.587788 -0.80902 " transform="matrix(266,0,0,266,300,300)"/>
</g>
</g>
</g>
<g clip-path="url(#clip40)" clip-rule="nonzero">
<g clip-path="url(#clip41)" clip-rule="evenodd">
<g clip-path="url(#clip42)" clip-rule="evenodd">
<path style="fill:none;stroke-width:0.037594;stroke-linecap:butt;stroke-linejoin:miter;stroke:rgb(27.45098%,50.980392%,70.588235%);stroke-opacity:0.6;stroke-miterlimit:10;" d="M -0.587788 -0.80902 C -0.587788 -0.80902 -0.587788 -0.80902 -0.499618 -0.704329 C -0.411449 -0.599639 -0.235109 -0.390273 -0.137145 -0.42211 C -0.03918 -0.453933 -0.01959 -0.726974 -0.009795 -0.863487 C 0 -1 0 -1 0 -1 " transform="matrix(266,0,0,266,300,300)"/>
</g>
</g>
</g>
<path style=" stroke:none;fill-rule:nonzero;fill:rgb(27.45098%,50.980392%,70.588235%);fill-opacity:1;" d="M 572.980469 382.199219 C 572.980469 393.246094 564.027344 402.199219 552.980469 402.199219 C 541.933594 402.199219 532.980469 393.246094 532.980469 382.199219 C 532.980469 371.152344 541.933594 362.199219 552.980469 362.199219 C 564.027344 362.199219 572.980469 371.152344 572.980469 382.199219 Z M 572.980469 382.199219 "/>
<path style=" stroke:none;fill-rule:nonzero;fill:rgb(27.45098%,50.980392%,70.588235%);fill-opacity:1;" d="M 476.351562 515.199219 C 476.351562 526.246094 467.398438 535.199219 456.351562 535.199219 C 445.304688 535.199219 436.351562 526.246094 436.351562 515.199219 C 436.351562 504.152344 445.304688 495.199219 456.351562 495.199219 C 467.398438 495.199219 476.351562 504.152344 476.351562 515.199219 Z M 476.351562 515.199219 "/>
<path style=" stroke:none;fill-rule:nonzero;fill:rgb(27.45098%,50.980392%,70.588235%);fill-opacity:1;" d="M 320 566 C 320 577.046875 311.046875 586 300 586 C 288.953125 586 280 577.046875 280 566 C 280 554.953125 288.953125 546 300 546 C 311.046875 546 320 554.953125 320 566 Z M 320 566 "/>
<path style=" stroke:none;fill-rule:nonzero;fill:rgb(27.45098%,50.980392%,70.588235%);fill-opacity:1;" d="M 163.648438 515.199219 C 163.648438 526.246094 154.695312 535.199219 143.648438 535.199219 C 132.601562 535.199219 123.648438 526.246094 123.648438 515.199219 C 123.648438 504.152344 132.601562 495.199219 143.648438 495.199219 C 154.695312 495.199219 163.648438 504.152344 163.648438 515.199219 Z M 163.648438 515.199219 "/>
<path style=" stroke:none;fill-rule:nonzero;fill:rgb(27.45098%,50.980392%,70.588235%);fill-opacity:1;" d="M 67.019531 382.199219 C 67.019531 393.246094 58.066406 402.199219 47.019531 402.199219 C 35.972656 402.199219 27.019531 393.246094 27.019531 382.199219 C 27.019531 371.152344 35.972656 362.199219 47.019531 362.199219 C 58.066406 362.199219 67.019531 371.152344 67.019531 382.199219 Z M 67.019531 382.199219 "/>
<path style=" stroke:none;fill-rule:nonzero;fill:rgb(27.45098%,50.980392%,70.588235%);fill-opacity:1;" d="M 67.019531 217.800781 C 67.019531 228.847656 58.066406 237.800781 47.019531 237.800781 C 35.972656 237.800781 27.019531 228.847656 27.019531 217.800781 C 27.019531 206.753906 35.972656 197.800781 47.019531 197.800781 C 58.066406 197.800781 67.019531 206.753906 67.019531 217.800781 Z M 67.019531 217.800781 "/>
<path style=" stroke:none;fill-rule:nonzero;fill:rgb(27.45098%,50.980392%,70.588235%);fill-opacity:1;" d="M 163.648438 84.800781 C 163.648438 95.847656 154.695312 104.800781 143.648438 104.800781 C 132.601562 104.800781 123.648438 95.847656 123.648438 84.800781 C 123.648438 73.753906 132.601562 64.800781 143.648438 64.800781 C 154.695312 64.800781 163.648438 73.753906 163.648438 84.800781 Z M 163.648438 84.800781 "/>
<path style=" stroke:none;fill-rule:nonzero;fill:rgb(27.45098%,50.980392%,70.588235%);fill-opacity:1;" d="M 320 34 C 320 45.046875 311.046875 54 300 54 C 288.953125 54 280 45.046875 280 34 C 280 22.953125 288.953125 14 300 14 C 311.046875 14 320 22.953125 320 34 Z M 320 34 "/>
<path style=" stroke:none;fill-rule:nonzero;fill:rgb(27.45098%,50.980392%,70.588235%);fill-opacity:1;" d="M 476.351562 84.800781 C 476.351562 95.847656 467.398438 104.800781 456.351562 104.800781 C 445.304688 104.800781 436.351562 95.847656 436.351562 84.800781 C 436.351562 73.753906 445.304688 64.800781 456.351562 64.800781 C 467.398438 64.800781 476.351562 73.753906 476.351562 84.800781 Z M 476.351562 84.800781 "/>
<path style=" stroke:none;fill-rule:nonzero;fill:rgb(27.45098%,50.980392%,70.588235%);fill-opacity:1;" d="M 572.980469 217.800781 C 572.980469 228.847656 564.027344 237.800781 552.980469 237.800781 C 541.933594 237.800781 532.980469 228.847656 532.980469 217.800781 C 532.980469 206.753906 541.933594 197.800781 552.980469 197.800781 C 564.027344 197.800781 572.980469 206.753906 572.980469 217.800781 Z M 572.980469 217.800781 "/>
</g>
</svg>
