<?xml version="1.0" encoding="UTF-8"?>
<svg xmlns="http://www.w3.org/2000/svg" xmlns:xlink="http://www.w3.org/1999/xlink" width="600pt" height="600pt" viewBox="0 0 600 600" version="1.1">
<defs>
<clipPath id="clip1">
  <path d="M 234 0 L 600 0 L 600 366 L 234 366 Z M 234 0 "/>
</clipPath>
<clipPath id="clip2">
  <path d="M 78.332031 -94.578125 L 694.578125 -94.578125 L 694.578125 521.664062 L 78.332031 521.664062 Z M 78.332031 -94.578125 L 430.179688 34 C 430.179688 45.046875 421.226562 54 410.179688 54 C 399.136719 54 390.179688 45.046875 390.179688 34 C 390.179688 22.953125 399.136719 14 410.179688 14 C 421.226562 14 430.179688 22.953125 430.179688 34 Z M 78.332031 -94.578125 "/>
</clipPath>
<clipPath id="clip3">
  <path d="M 78.332031 -94.578125 L 694.578125 -94.578125 L 694.578125 521.664062 L 78.332031 521.664062 Z M 78.332031 -94.578125 L 586 189.820312 C 586 200.863281 577.046875 209.820312 566 209.820312 C 554.953125 209.820312 546 200.863281 546 189.820312 C 546 178.773438 554.953125 169.820312 566 169.820312 C 577.046875 169.820312 586 178.773438 586 189.820312 Z M 78.332031 -94.578125 "/>
</clipPath>
<clipPath id="clip4">
  <path d="M 234 0 L 600 0 L 600 552 L 234 552 Z M 234 0 "/>
</clipPath>
<clipPath id="clip5">
  <path d="M 78.316406 -56.128906 L 714.886719 -56.128906 L 714.886719 672.382812 L 78.316406 672.382812 Z M 78.316406 -56.128906 L 586 410.179688 C 586 421.226562 577.046875 430.179688 566 430.179688 C 554.953125 430.179688 546 421.226562 546 410.179688 C 546 399.136719 554.953125 390.179688 566 390.179688 C 577.046875 390.179688 586 399.136719 586 410.179688 Z M 78.316406 -56.128906 "/>
</clipPath>
<clipPath id="clip6">
  <path d="M 78.316406 -56.128906 L 714.886719 -56.128906 L 714.886719 672.382812 L 78.316406 672.382812 Z M 78.316406 -56.128906 L 430.179688 34 C 430.179688 45.046875 421.226562 54 410.179688 54 C 399.136719 54 390.179688 45.046875 390.179688 34 C 390.179688 22.953125 399.136719 14 410.179688 14 C 421.226562 14 430.179688 22.953125 430.179688 34 Z M 78.316406 -56.128906 "/>
</clipPath>
<clipPath id="clip7">
  <path d="M 234 48 L 600 48 L 600 600 L 234 600 Z M 234 48 "/>
</clipPath>
<clipPath id="clip8">
  <path d="M 78.316406 -72.382812 L 714.886719 -72.382812 L 714.886719 656.128906 L 78.316406 656.128906 Z M 78.316406 -72.382812 L 430.179688 566 C 430.179688 577.046875 421.226562 586 410.179688 586 C 399.136719 586 390.179688 577.046875 390.179688 566 C 390.179688 554.953125 399.136719 546 410.179688 546 C 421.226562 546 430.179688 554.953125 430.179688 566 Z M 78.316406 -72.382812 "/>
</clipPath>
<clipPath id="clip9">
  <path d="M 78.316406 -72.382812 L 714.886719 -72.382812 L 714.886719 656.128906 L 78.316406 656.128906 Z M 78.316406 -72.382812 L 586 189.820312 C 586 200.863281 577.046875 209.820312 566 209.820312 C 554.953125 209.820312 546 200.863281 546 189.820312 C 546 178.773438 554.953125 169.820312 566 169.820312 C 577.046875 169.820312 586 178.773438 586 189.820312 Z M 78.316406 -72.382812 "/>
</clipPath>
<clipPath id="clip10">
  <path d="M 0 0 L 552 0 L 552 366 L 0 366 Z M 0 0 "/>
</clipPath>
<clipPath id="clip11">
  <path d="M -56.128906 -114.886719 L 672.382812 -114.886719 L 672.382812 521.667969 L -56.128906 521.667969 Z M -56.128906 -114.886719 L 54 189.820312 C 54 200.863281 45.046875 209.820312 34 209.820312 C 22.953125 209.820312 14 200.863281 14 189.820312 C 14 178.773438 22.953125 169.820312 34 169.820312 C 45.046875 169.820312 54 178.773438 54 189.820312 Z M -56.128906 -114.886719 "/>
</clipPath>
<clipPath id="clip12">
  <path d="M -56.128906 -114.886719 L 672.382812 -114.886719 L 672.382812 521.667969 L -56.128906 521.667969 Z M -56.128906 -114.886719 L 430.179688 34 C 430.179688 45.046875 421.226562 54 410.179688 54 C 399.136719 54 390.179688 45.046875 390.179688 34 C 390.179688 22.953125 399.136719 14 410.179688 14 C 421.226562 14 430.179688 22.953125 430.179688 34 Z M -56.128906 -114.886719 "/>
</clipPath>
<clipPath id="clip13">
  <path d="M 0 48 L 600 48 L 600 391 L 0 391 Z M 0 48 "/>
</clipPath>
<clipPath id="clip14">
  <path d="M -66.570312 -93.480469 L 666.570312 -93.480469 L 666.570312 546.5 L -66.570312 546.5 Z M -66.570312 -93.480469 L 54 189.820312 C 54 200.863281 45.046875 209.820312 34 209.820312 C 22.953125 209.820312 14 200.863281 14 189.820312 C 14 178.773438 22.953125 169.820312 34 169.820312 C 45.046875 169.820312 54 178.773438 54 189.820312 Z M -66.570312 -93.480469 "/>
</clipPath>
<clipPath id="clip15">
  <path d="M -66.570312 -93.480469 L 666.570312 -93.480469 L 666.570312 546.5 L -66.570312 546.5 Z M -66.570312 -93.480469 L 586 189.820312 C 586 200.863281 577.046875 209.820312 566 209.820312 C 554.953125 209.820312 546 200.863281 546 189.820312 C 546 178.773438 554.953125 169.820312 566 169.820312 C 577.046875 169.820312 586 178.773438 586 189.820312 Z M -66.570312 -93.480469 "/>
</clipPath>
<clipPath id="clip16">
  <path d="M 48 48 L 600 48 L 600 600 L 48 600 Z M 48 48 "/>
</clipPath>
<clipPath id="clip17">
  <path d="M -77.472656 -77.472656 L 705.210938 -77.472656 L 705.210938 705.210938 L -77.472656 705.210938 Z M -77.472656 -77.472656 L 209.820312 566 C 209.820312 577.046875 200.863281 586 189.820312 586 C 178.773438 586 169.820312 577.046875 169.820312 566 C 169.820312 554.953125 178.773438 546 189.820312 546 C 200.863281 546 209.820312 554.953125 209.820312 566 Z M -77.472656 -77.472656 "/>
</clipPath>
<clipPath id="clip18">
  <path d="M -77.472656 -77.472656 L 705.210938 -77.472656 L 705.210938 705.210938 L -77.472656 705.210938 Z M -77.472656 -77.472656 L 586 189.820312 C 586 200.863281 577.046875 209.820312 566 209.820312 C 554.953125 209.820312 546 200.863281 546 189.820312 C 546 178.773438 554.953125 169.820312 566 169.820312 C 577.046875 169.820312 586 178.773438 586 189.820312 Z M -77.472656 -77.472656 "/>
</clipPath>
<clipPath id="clip19">
  <path d="M 0 48 L 600 48 L 600 552 L 0 552 Z M 0 48 "/>
</clipPath>
<clipPath id="clip20">
  <path d="M -86.183594 -86.179688 L 686.183594 -86.179688 L 686.183594 686.179688 L -86.183594 686.179688 Z M -86.183594 -86.179688 L 54 410.179688 C 54 421.226562 45.046875 430.179688 34 430.179688 C 22.953125 430.179688 14 421.226562 14 410.179688 C 14 399.136719 22.953125 390.179688 34 390.179688 C 45.046875 390.179688 54 399.136719 54 410.179688 Z M -86.183594 -86.179688 "/>
</clipPath>
<clipPath id="clip21">
  <path d="M -86.183594 -86.179688 L 686.183594 -86.179688 L 686.183594 686.179688 L -86.183594 686.179688 Z M -86.183594 -86.179688 L 586 189.820312 C 586 200.863281 577.046875 209.820312 566 209.820312 C 554.953125 209.820312 546 200.863281 546 189.820312 C 546 178.773438 554.953125 169.820312 566 169.820312 C 577.046875 169.820312 586 178.773438 586 189.820312 Z M -86.183594 -86.179688 "/>
</clipPath>
<clipPath id="clip22">
  <path d="M 48 0 L 600 0 L 600 366 L 48 366 Z M 48 0 "/>
</clipPath>
<clipPath id="clip23">
  <path d="M -72.382812 -114.886719 L 656.128906 -114.886719 L 656.128906 521.675781 L -72.382812 521.675781 Z M -72.382812 -114.886719 L 209.820312 34 C 209.820312 45.046875 200.863281 54 189.820312 54 C 178.773438 54 169.820312 45.046875 169.820312 34 C 169.820312 22.953125 178.773438 14 189.820312 14 C 200.863281 14 209.820312 22.953125 209.820312 34 Z M -72.382812 -114.886719 "/>
</clipPath>
<clipPath id="clip24">
  <path d="M -72.382812 -114.886719 L 656.128906 -114.886719 L 656.128906 521.675781 L -72.382812 521.675781 Z M -72.382812 -114.886719 L 586 189.820312 C 586 200.863281 577.046875 209.820312 566 209.820312 C 554.953125 209.820312 546 200.863281 546 189.820312 C 546 178.773438 554.953125 169.820312 566 169.820312 C 577.046875 169.820312 586 178.773438 586 189.820312 Z M -72.382812 -114.886719 "/>
</clipPath>
<clipPath id="clip25">
  <path d="M 48 0 L 552 0 L 552 318 L 48 318 Z M 48 0 "/>
</clipPath>
<clipPath id="clip26">
  <path d="M -75.855469 -122.050781 L 675.855469 -122.050781 L 675.855469 473.785156 L -75.855469 473.785156 Z M -75.855469 -122.050781 L 209.820312 34 C 209.820312 45.046875 200.863281 54 189.820312 54 C 178.773438 54 169.820312 45.046875 169.820312 34 C 169.820312 22.953125 178.773438 14 189.820312 14 C 200.863281 14 209.820312 22.953125 209.820312 34 Z M -75.855469 -122.050781 "/>
</clipPath>
<clipPath id="clip27">
  <path d="M -75.855469 -122.050781 L 675.855469 -122.050781 L 675.855469 473.785156 L -75.855469 473.785156 Z M -75.855469 -122.050781 L 430.179688 34 C 430.179688 45.046875 421.226562 54 410.179688 54 C 399.136719 54 390.179688 45.046875 390.179688 34 C 390.179688 22.953125 399.136719 14 410.179688 14 C 421.226562 14 430.179688 22.953125 430.179688 34 Z M -75.855469 -122.050781 "/>
</clipPath>
</defs>
<g id="surface9">
<g clip-path="url(#clip1)" clip-rule="nonzero">
<g clip-path="url(#clip2)" clip-rule="evenodd">
<g clip-path="url(#clip3)" clip-rule="evenodd">
<path style="fill:none;stroke-width:0.0347323;stroke-linecap:butt;stroke-linejoin:miter;stroke:rgb(27.45098%,50.980392%,70.588235%);stroke-opacity:0.6;stroke-miterlimit:10;" d="M 0.38268 -0.92388 C 0.38268 -0.92388 0.38268 -0.92388 0.340675 -0.79168 C 0.298671 -0.659466 0.214662 -0.395066 0.304871 -0.304871 C 0.395066 -0.214662 0.659466 -0.298671 0.79168 -0.340675 C 0.92388 -0.38268 0.92388 -0.38268 0.92388 -0.38268 " transform="matrix(287.916325,0,0,287.916325,300,300)"/>
</g>
</g>
</g>
<g clip-path="url(#clip4)" clip-rule="nonzero">
<g clip-path="url(#clip5)" clip-rule="evenodd">
<g clip-path="url(#clip6)" clip-rule="evenodd">
<path style="fill:none;stroke-width:0.0347323;stroke-linecap:butt;stroke-linejoin:miter;stroke:rgb(27.45098%,50.980392%,70.588235%);stroke-opacity:0.6;stroke-miterlimit:10;" d="M 0.92388 0.38268 C 0.92388 0.38268 0.92388 0.38268 0.79168 0.309877 C 0.659466 0.237089 0.395066 0.0914844 0.304871 -0.126285 C 0.214662 -0.34404 0.298671 -0.63396 0.340675 -0.778913 C 0.38268 -0.92388 0.38268 -0.92388 0.38268 -0.92388 " transform="matrix(287.916325,0,0,287.916325,300,300)"/>
</g>
</g>
</g>
<g clip-path="url(#clip7)" clip-rule="nonzero">
<g clip-path="url(#clip8)" clip-rule="evenodd">
<g clip-path="url(#clip9)" clip-rule="evenodd">
<path style="fill:none;stroke-width:0.0347323;stroke-linecap:butt;stroke-linejoin:miter;stroke:rgb(27.45098%,50.980392%,70.588235%);stroke-opacity:0.6;stroke-miterlimit:10;" d="M 0.38268 0.92388 C 0.38268 0.92388 0.38268 0.92388 0.340675 0.778913 C 0.298671 0.63396 0.214662 0.34404 0.304871 0.126285 C 0.395066 -0.0914844 0.659466 -0.237089 0.79168 -0.309877 C 0.92388 -0.38268 0.92388 -0.38268 0.92388 -0.38268 " transform="matrix(287.916325,0,0,287.916325,300,300)"/>
</g>
</g>
</g>
<g clip-path="url(#clip10)" clip-rule="nonzero">
<g clip-path="url(#clip11)" clip-rule="evenodd">
<g clip-path="url(#clip12)" clip-rule="evenodd">
<path style="fill:none;stroke-width:0.0347323;stroke-linecap:butt;stroke-linejoin:miter;stroke:rgb(27.45098%,50.980392%,70.588235%);stroke-opacity:0.6;stroke-miterlimit:10;" d="M -0.92388 -0.38268 C -0.92388 -0.38268 -0.92388 -0.38268 -0.778913 -0.340675 C -0.63396 -0.298671 -0.34404 -0.214662 -0.126285 -0.304871 C 0.0914844 -0.395066 0.237089 -0.659466 0.309877 -0.79168 C 0.38268 -0.92388 0.38268 -0.92388 0.38268 -0.92388 " transform="matrix(287.916325,0,0,287.916325,300,300)"/>
</g>
</g>
</g>
<g clip-path="url(#clip13)" clip-rule="nonzero">
<g clip-path="url(#clip14)" clip-rule="evenodd">
<g clip-path="url(#clip15)" clip-rule="evenodd">
<path style="fill:none;stroke-width:0.0347323;stroke-linecap:butt;stroke-linejoin:miter;stroke:rgb(27.45098%,50.980392%,70.588235%);stroke-opacity:0.6;stroke-miterlimit:10;" d="M -0.92388 -0.38268 C -0.92388 -0.38268 -0.92388 -0.38268 -0.769904 -0.331653 C -0.615915 -0.28064 -0.307964 -0.178586 -0.000000000000000222 -0.178586 C 0.307964 -0.178586 0.615915 -0.28064 0.769904 -0.331653 C 0.92388 -0.38268 0.92388 -0.38268 0.92388 -0.38268 " transform="matrix(287.916325,0,0,287.916325,300,300)"/>
</g>
</g>
</g>
<g clip-path="url(#clip16)" clip-rule="nonzero">
<g clip-path="url(#clip17)" clip-rule="evenodd">
<g clip-path="url(#clip18)" clip-rule="evenodd">
<path style="fill:none;stroke-width:0.0347323;stroke-linecap:butt;stroke-linejoin:miter;stroke:rgb(27.45098%,50.980392%,70.588235%);stroke-opacity:0.6;stroke-miterlimit:10;" d="M -0.38268 0.92388 C -0.38268 0.92388 -0.38268 0.92388 -0.309877 0.778913 C -0.237089 0.63396 -0.0914844 0.34404 0.126285 0.126285 C 0.34404 -0.0914844 0.63396 -0.237089 0.778913 -0.309877 C 0.92388 -0.38268 0.92388 -0.38268 0.92388 -0.38268 " transform="matrix(287.916325,0,0,287.916325,300,300)"/>
</g>
</g>
</g>
<g clip-path="url(#clip19)" clip-rule="nonzero">
<g clip-path="url(#clip20)" clip-rule="evenodd">
<g clip-path="url(#clip21)" clip-rule="evenodd">
<path style="fill:none;stroke-width:0.0347323;stroke-linecap:butt;stroke-linejoin:miter;stroke:rgb(27.45098%,50.980392%,70.588235%);stroke-opacity:0.6;stroke-miterlimit:10;" d="M -0.92388 0.38268 C -0.92388 0.38268 -0.92388 0.38268 -0.769904 0.3189 C -0.615915 0.25512 -0.307964 0.12756 -0.000000000000000222 0 C 0.307964 -0.12756 0.615915 -0.25512 0.769904 -0.3189 C 0.92388 -0.38268 0.92388 -0.38268 0.92388 -0.38268 " transform="matrix(287.916325,0,0,287.916325,300,300)"/>
</g>
</g>
</g>
<g clip-path="url(#clip22)" clip-rule="nonzero">
<g clip-path="url(#clip23)" clip-rule="evenodd">
<g clip-path="url(#clip24)" clip-rule="evenodd">
<path style="fill:none;stroke-width:0.0347323;stroke-linecap:butt;stroke-linejoin:miter;stroke:rgb(27.45098%,50.980392%,70.588235%);stroke-opacity:0.6;stroke-miterlimit:10;" d="M -0.38268 -0.92388 C -0.38268 -0.92388 -0.38268 -0.92388 -0.309877 -0.79168 C -0.237089 -0.659466 -0.0914844 -0.395066 0.126285 -0.304871 C 0.34404 -0.214662 0.63396 -0.298671 0.778913 -0.340675 C 0.92388 -0.38268 0.92388 -0.38268 0.92388 -0.38268 " transform="matrix(287.916325,0,0,287.916325,300,300)"/>
</g>
</g>
</g>
<g clip-path="url(#clip25)" clip-rule="nonzero">
<g clip-path="url(#clip26)" clip-rule="evenodd">
<g clip-path="url(#clip27)" clip-rule="evenodd">
<path style="fill:none;stroke-width:0.0347323;stroke-linecap:butt;stroke-linejoin:miter;stroke:rgb(27.45098%,50.980392%,70.588235%);stroke-opacity:0.6;stroke-miterlimit:10;" d="M -0.38268 -0.92388 C -0.38268 -0.92388 -0.38268 -0.92388 -0.3189 -0.800702 C -0.25512 -0.677511 -0.12756 -0.431142 -0.000000000000000222 -0.431142 C 0.12756 -0.431142 0.25512 -0.677511 0.3189 -0.800702 C 0.38268 -0.92388 0.38268 -0.92388 0.38268 -0.92388 " transform="matrix(287.916325,0,0,287.916325,300,300)"/>
</g>
</g>
</g>
<path style=" stroke:none;fill-rule:nonzero;fill:rgb(27.45098%,50.980392%,70.588235%);fill-opacity:1;" d="M 586 410.179688 C 586 421.226562 577.046875 430.179688 566 430.179688 C 554.953125 430.179688 546 421.226562 546 410.179688 C 546 399.136719 554.953125 390.179688 566 390.179688 C 577.046875 390.179688 586 399.136719 586 410.179688 Z M 586 410.179688 "/>
<path style=" stroke:none;fill-rule:nonzero;fill:rgb(27.45098%,50.980392%,70.588235%);fill-opacity:1;" d="M 430.179688 566 C 430.179688 577.046875 421.226562 586 410.179688 586 C 399.136719 586 390.179688 577.046875 390.179688 566 C 390.179688 554.953125 399.136719 546 410.179688 546 C 421.226562 546 430.179688 554.953125 430.179688 566 Z M 430.179688 566 "/>
<path style=" stroke:none;fill-rule:nonzero;fill:rgb(27.45098%,50.980392%,70.588235%);fill-opacity:1;" d="M 209.820312 566 C 209.820312 577.046875 200.863281 586 189.820312 586 C 178.773438 586 169.820312 577.046875 169.820312 566 C 169.820312 554.953125 178.773438 546 189.820312 546 C 200.863281 546 209.820312 554.953125 209.820312 566 Z M 209.820312 566 "/>
<path style=" stroke:none;fill-rule:nonzero;fill:rgb(27.45098%,50.980392%,70.588235%);fill-opacity:1;" d="M 54 410.179688 C 54 421.226562 45.046875 430.179688 34 430.179688 C 22.953125 430.179688 14 421.226562 14 410.179688 C 14 399.136719 22.953125 390.179688 34 390.179688 C 45.046875 390.179688 54 399.136719 54 410.179688 Z M 54 410.179688 "/>
<path style=" stroke:none;fill-rule:nonzero;fill:rgb(27.45098%,50.980392%,70.588235%);fill-opacity:1;" d="M 54 189.820312 C 54 200.863281 45.046875 209.820312 34 209.820312 C 22.953125 209.820312 14 200.863281 14 189.820312 C 14 178.773438 22.953125 169.820312 34 169.820312 C 45.046875 169.820312 54 178.773438 54 189.820312 Z M 54 189.820312 "/>
<path style=" stroke:none;fill-rule:nonzero;fill:rgb(27.45098%,50.980392%,70.588235%);fill-opacity:1;" d="M 209.820312 34 C 209.820312 45.046875 200.863281 54 189.820312 54 C 178.773438 54 169.820312 45.046875 169.820312 34 C 169.820312 22.953125 178.773438 14 189.820312 14 C 200.863281 14 209.820312 22.953125 209.820312 34 Z M 209.820312 34 "/>
<path style=" stroke:none;fill-rule:nonzero;fill:rgb(27.45098%,50.980392%,70.588235%);fill-opacity:1;" d="M 430.179688 34 C 430.179688 45.046875 421.226562 54 410.179688 54 C 399.136719 54 390.179688 45.046875 390.179688 34 C 390.179688 22.953125 399.136719 14 410.179688 14 C 421.226562 14 430.179688 22.953125 430.179688 34 Z M 430.179688 34 "/>
<path style=" stroke:none;fill-rule:nonzero;fill:rgb(27.45098%,50.980392%,70.588235%);fill-opacity:1;" d="M 586 189.820312 C 586 200.863281 577.046875 209.820312 566 209.820312 C 554.953125 209.820312 546 200.863281 546 189.820312 C 546 178.773438 554.953125 169.820312 566 169.820312 C 577.046875 169.820312 586 178.773438 586 189.820312 Z M 586 189.820312 "/>
</g>
</svg>
